G04 Layer: BottomSolderMaskLayer*
G04 EasyEDA v6.4.25, 2021-09-19T11:37:02+02:00*
G04 64e9d69745c74d7bbaee3c671462624f,10*
G04 Gerber Generator version 0.2*
G04 Scale: 100 percent, Rotated: No, Reflected: No *
G04 Dimensions in inches *
G04 leading zeros omitted , absolute positions ,3 integer and 6 decimal *
%FSLAX36Y36*%
%MOIN*%

%ADD65C,0.0700*%
%ADD68C,0.0660*%
%ADD71C,0.0640*%
%ADD75C,0.0591*%
%ADD89C,0.0827*%
%ADD90C,0.0680*%
%ADD92C,0.0474*%

%LPD*%
G36*
X-883070Y-264499D02*
G01*
X-883070Y-195500D01*
X-756971Y-195500D01*
X-756971Y-264499D01*
G37*
D65*
G01*
X-220051Y1489549D03*
G01*
X-220051Y1389549D03*
G01*
X-320051Y1489549D03*
G01*
X-420051Y1489549D03*
G01*
X-520051Y1489549D03*
G01*
X-620051Y1489549D03*
G01*
X-720051Y1489549D03*
G01*
X-820051Y1489549D03*
G01*
X-920051Y1489549D03*
G01*
X-1020051Y1489549D03*
G01*
X-1120050Y1489549D03*
G36*
X-1154971Y1354499D02*
G01*
X-1154971Y1424499D01*
X-1084971Y1424499D01*
X-1084971Y1354499D01*
G37*
G01*
X-1020051Y1389549D03*
G01*
X-920051Y1389549D03*
G01*
X-820051Y1389549D03*
G01*
X-720051Y1389549D03*
G01*
X-620051Y1389549D03*
G01*
X-520051Y1389549D03*
G01*
X-420051Y1389549D03*
G01*
X-320051Y1389549D03*
G01*
X779948Y1489549D03*
G01*
X779948Y1389549D03*
G01*
X679948Y1489549D03*
G01*
X579948Y1489549D03*
G01*
X479948Y1489549D03*
G01*
X379948Y1489549D03*
G01*
X279948Y1489549D03*
G01*
X179948Y1489549D03*
G01*
X79948Y1489549D03*
G01*
X-20051Y1489549D03*
G01*
X-120051Y1489549D03*
G01*
X-120051Y1389549D03*
G01*
X-20051Y1389549D03*
G01*
X79948Y1389549D03*
G01*
X179948Y1389549D03*
G01*
X279948Y1389549D03*
G01*
X379948Y1389549D03*
G01*
X479948Y1389549D03*
G01*
X579948Y1389549D03*
G01*
X679948Y1389549D03*
D68*
G01*
X-99970Y1040000D03*
G01*
X-199970Y1040000D03*
G36*
X-332970Y1006999D02*
G01*
X-332970Y1073000D01*
X-266971Y1073000D01*
X-266971Y1006999D01*
G37*
D71*
G01*
X959998Y901219D03*
G01*
X959998Y822480D03*
G01*
X959998Y743739D03*
G01*
X959998Y665000D03*
G01*
X959998Y586260D03*
G01*
X959998Y507519D03*
G36*
X928028Y396799D02*
G01*
X928028Y460799D01*
X992029Y460799D01*
X992029Y396799D01*
G37*
G36*
X-1200070Y-591999D02*
G01*
X-1200070Y-528000D01*
X-1136071Y-528000D01*
X-1136071Y-591999D01*
G37*
G01*
X-1089331Y-560000D03*
G01*
X-1010591Y-560000D03*
G01*
X-931850Y-560000D03*
G36*
X965429Y170999D02*
G01*
X965429Y230199D01*
X1024628Y230199D01*
X1024628Y170999D01*
G37*
D75*
G01*
X995029Y279340D03*
G36*
X729728Y1203000D02*
G01*
X729728Y1266999D01*
X793729Y1266999D01*
X793729Y1203000D01*
G37*
D71*
G01*
X840469Y1235000D03*
G01*
X919209Y1235000D03*
G01*
X997948Y1235000D03*
D65*
G01*
X409828Y1210000D03*
G01*
X309828Y1210000D03*
G01*
X209828Y1210000D03*
G01*
X109828Y1210000D03*
G36*
X-25171Y1175000D02*
G01*
X-25171Y1245000D01*
X44828Y1245000D01*
X44828Y1175000D01*
G37*
G36*
X729728Y978000D02*
G01*
X729728Y1041999D01*
X793729Y1041999D01*
X793729Y978000D01*
G37*
D71*
G01*
X840459Y1010000D03*
G01*
X919198Y1010000D03*
G01*
X997938Y1010000D03*
G36*
X729929Y1093000D02*
G01*
X729929Y1156999D01*
X793928Y1156999D01*
X793928Y1093000D01*
G37*
G01*
X840628Y1125000D03*
G01*
X919368Y1125000D03*
G01*
X998109Y1125000D03*
D68*
G01*
X579828Y990000D03*
G01*
X579828Y1090000D03*
G36*
X546828Y1156999D02*
G01*
X546828Y1223000D01*
X612829Y1223000D01*
X612829Y1156999D01*
G37*
G36*
X-736370Y-566399D02*
G01*
X-736370Y-483600D01*
X-653671Y-483600D01*
X-653671Y-566399D01*
G37*
D89*
G01*
X-595000Y-525000D03*
G36*
X527228Y-222800D02*
G01*
X527228Y-165599D01*
X562829Y-165599D01*
X562829Y-222800D01*
G37*
G36*
X564628Y-124400D02*
G01*
X564628Y-67199D01*
X600228Y-67199D01*
X600228Y-124400D01*
G37*
G36*
X489828Y-124400D02*
G01*
X489828Y-67199D01*
X525429Y-67199D01*
X525429Y-124400D01*
G37*
G36*
X36229Y-430999D02*
G01*
X36229Y-364000D01*
X63828Y-364000D01*
X63828Y-430999D01*
G37*
G36*
X-13770Y-430999D02*
G01*
X-13770Y-364000D01*
X13828Y-364000D01*
X13828Y-430999D01*
G37*
G36*
X-63770Y-430999D02*
G01*
X-63770Y-364000D01*
X-36171Y-364000D01*
X-36171Y-430999D01*
G37*
G36*
X-113770Y-430999D02*
G01*
X-113770Y-364000D01*
X-86171Y-364000D01*
X-86171Y-430999D01*
G37*
G36*
X36229Y-215999D02*
G01*
X36229Y-149000D01*
X63828Y-149000D01*
X63828Y-215999D01*
G37*
G36*
X-13770Y-215999D02*
G01*
X-13770Y-149000D01*
X13828Y-149000D01*
X13828Y-215999D01*
G37*
G36*
X-63770Y-215999D02*
G01*
X-63770Y-149000D01*
X-36171Y-149000D01*
X-36171Y-215999D01*
G37*
G36*
X-113770Y-215999D02*
G01*
X-113770Y-149000D01*
X-86171Y-149000D01*
X-86171Y-215999D01*
G37*
G36*
X-117570Y-390399D02*
G01*
X-117570Y-244600D01*
X67529Y-244600D01*
X67529Y-390399D01*
G37*
G36*
X411229Y-410999D02*
G01*
X411229Y-344000D01*
X438828Y-344000D01*
X438828Y-410999D01*
G37*
G36*
X361229Y-410999D02*
G01*
X361229Y-344000D01*
X388828Y-344000D01*
X388828Y-410999D01*
G37*
G36*
X311229Y-410999D02*
G01*
X311229Y-344000D01*
X338828Y-344000D01*
X338828Y-410999D01*
G37*
G36*
X261229Y-410999D02*
G01*
X261229Y-344000D01*
X288828Y-344000D01*
X288828Y-410999D01*
G37*
G36*
X411229Y-195999D02*
G01*
X411229Y-129000D01*
X438828Y-129000D01*
X438828Y-195999D01*
G37*
G36*
X361229Y-195999D02*
G01*
X361229Y-129000D01*
X388828Y-129000D01*
X388828Y-195999D01*
G37*
G36*
X311229Y-195999D02*
G01*
X311229Y-129000D01*
X338828Y-129000D01*
X338828Y-195999D01*
G37*
G36*
X261229Y-195999D02*
G01*
X261229Y-129000D01*
X288828Y-129000D01*
X288828Y-195999D01*
G37*
G36*
X257429Y-370399D02*
G01*
X257429Y-224600D01*
X442529Y-224600D01*
X442529Y-370399D01*
G37*
G36*
X157228Y-262800D02*
G01*
X157228Y-205599D01*
X192829Y-205599D01*
X192829Y-262800D01*
G37*
G36*
X194628Y-164400D02*
G01*
X194628Y-107199D01*
X230228Y-107199D01*
X230228Y-164400D01*
G37*
G36*
X119828Y-164400D02*
G01*
X119828Y-107199D01*
X155429Y-107199D01*
X155429Y-164400D01*
G37*
G36*
X-689471Y1155999D02*
G01*
X-689471Y1214000D01*
X-656471Y1214000D01*
X-656471Y1155999D01*
G37*
G36*
X-653470Y1155999D02*
G01*
X-653470Y1214000D01*
X-620470Y1214000D01*
X-620470Y1155999D01*
G37*
G36*
X50528Y1030999D02*
G01*
X50528Y1089000D01*
X83528Y1089000D01*
X83528Y1030999D01*
G37*
G36*
X86529Y1030999D02*
G01*
X86529Y1089000D01*
X119529Y1089000D01*
X119529Y1030999D01*
G37*
G36*
X-369471Y1175999D02*
G01*
X-369471Y1234000D01*
X-336471Y1234000D01*
X-336471Y1175999D01*
G37*
G36*
X-333470Y1175999D02*
G01*
X-333470Y1234000D01*
X-300470Y1234000D01*
X-300470Y1175999D01*
G37*
G36*
X819029Y586500D02*
G01*
X819029Y648899D01*
X891028Y648899D01*
X891028Y586500D01*
G37*
G36*
X819029Y461100D02*
G01*
X819029Y523499D01*
X891028Y523499D01*
X891028Y461100D01*
G37*
G36*
X753329Y198000D02*
G01*
X753329Y213800D01*
X790829Y213800D01*
X790829Y198000D01*
G37*
G36*
X753329Y217699D02*
G01*
X753329Y233499D01*
X790829Y233499D01*
X790829Y217699D01*
G37*
G36*
X736629Y234400D02*
G01*
X736629Y271900D01*
X752429Y271900D01*
X752429Y234400D01*
G37*
G36*
X716929Y234400D02*
G01*
X716929Y271900D01*
X732728Y271900D01*
X732728Y234400D01*
G37*
G36*
X697228Y234400D02*
G01*
X697228Y271900D01*
X713028Y271900D01*
X713028Y234400D01*
G37*
G36*
X677529Y234400D02*
G01*
X677529Y271900D01*
X693329Y271900D01*
X693329Y234400D01*
G37*
G36*
X639228Y217699D02*
G01*
X639228Y233499D01*
X676629Y233499D01*
X676629Y217699D01*
G37*
G36*
X639228Y198000D02*
G01*
X639228Y213800D01*
X676629Y213800D01*
X676629Y198000D01*
G37*
G36*
X677529Y119800D02*
G01*
X677529Y173800D01*
X713028Y173800D01*
X713028Y119800D01*
G37*
G36*
X716929Y119800D02*
G01*
X716929Y173800D01*
X752429Y173800D01*
X752429Y119800D01*
G37*
G36*
X580228Y260799D02*
G01*
X580228Y288499D01*
X619728Y288499D01*
X619728Y260799D01*
G37*
G36*
X580228Y221500D02*
G01*
X580228Y249200D01*
X619728Y249200D01*
X619728Y221500D01*
G37*
D90*
G01*
X-1360941Y-340940D03*
G01*
X-1360941Y141340D03*
G01*
X-286140Y-340000D03*
G01*
X-286140Y142280D03*
G36*
X895228Y146500D02*
G01*
X895228Y174200D01*
X934728Y174200D01*
X934728Y146500D01*
G37*
G36*
X895228Y185799D02*
G01*
X895228Y213499D01*
X934728Y213499D01*
X934728Y185799D01*
G37*
G36*
X570228Y803600D02*
G01*
X570228Y886399D01*
X625429Y886399D01*
X625429Y803600D01*
G37*
G36*
X444228Y803600D02*
G01*
X444228Y886399D01*
X499429Y886399D01*
X499429Y803600D01*
G37*
G36*
X570228Y693600D02*
G01*
X570228Y776399D01*
X625429Y776399D01*
X625429Y693600D01*
G37*
G36*
X444228Y693600D02*
G01*
X444228Y776399D01*
X499429Y776399D01*
X499429Y693600D01*
G37*
G36*
X-549771Y976500D02*
G01*
X-549771Y1004200D01*
X-510271Y1004200D01*
X-510271Y976500D01*
G37*
G36*
X-549771Y1015799D02*
G01*
X-549771Y1043499D01*
X-510271Y1043499D01*
X-510271Y1015799D01*
G37*
G36*
X-727771Y982199D02*
G01*
X-727771Y1017800D01*
X-670570Y1017800D01*
X-670570Y982199D01*
G37*
G36*
X-629371Y944800D02*
G01*
X-629371Y980399D01*
X-572170Y980399D01*
X-572170Y944800D01*
G37*
G36*
X-629371Y1019600D02*
G01*
X-629371Y1055199D01*
X-572170Y1055199D01*
X-572170Y1019600D01*
G37*
G36*
X-370970Y697899D02*
G01*
X-370970Y784600D01*
X-284270Y784600D01*
X-284270Y697899D01*
G37*
G36*
X-370970Y797899D02*
G01*
X-370970Y884600D01*
X-284270Y884600D01*
X-284270Y797899D01*
G37*
G36*
X-370970Y246700D02*
G01*
X-370970Y333400D01*
X-284270Y333400D01*
X-284270Y246700D01*
G37*
G36*
X-370970Y346700D02*
G01*
X-370970Y433400D01*
X-284270Y433400D01*
X-284270Y346700D01*
G37*
G36*
X-1394670Y246700D02*
G01*
X-1394670Y333400D01*
X-1307871Y333400D01*
X-1307871Y246700D01*
G37*
G36*
X-1394670Y346700D02*
G01*
X-1394670Y433400D01*
X-1307871Y433400D01*
X-1307871Y346700D01*
G37*
G36*
X-1394670Y697899D02*
G01*
X-1394670Y784600D01*
X-1307871Y784600D01*
X-1307871Y697899D01*
G37*
G36*
X-1394670Y797899D02*
G01*
X-1394670Y884600D01*
X-1307871Y884600D01*
X-1307871Y797899D01*
G37*
G36*
X750829Y-98400D02*
G01*
X750829Y28899D01*
X909228Y28899D01*
X909228Y-98400D01*
G37*
G36*
X750829Y-368899D02*
G01*
X750829Y-241599D01*
X909228Y-241599D01*
X909228Y-368899D01*
G37*
G36*
X975228Y-34200D02*
G01*
X975228Y-6500D01*
X1014728Y-6500D01*
X1014728Y-34200D01*
G37*
G36*
X975228Y-73499D02*
G01*
X975228Y-45799D01*
X1014728Y-45799D01*
X1014728Y-73499D01*
G37*
G36*
X1030228Y-73499D02*
G01*
X1030228Y-45799D01*
X1069728Y-45799D01*
X1069728Y-73499D01*
G37*
G36*
X1030228Y-34200D02*
G01*
X1030228Y-6500D01*
X1069728Y-6500D01*
X1069728Y-34200D01*
G37*
G36*
X90829Y795999D02*
G01*
X90829Y904000D01*
X198828Y904000D01*
X198828Y795999D01*
G37*
G36*
X185029Y750000D02*
G01*
X185029Y790000D01*
X203028Y790000D01*
X203028Y750000D01*
G37*
G36*
X165329Y750000D02*
G01*
X165329Y790000D01*
X183329Y790000D01*
X183329Y750000D01*
G37*
G36*
X145628Y750000D02*
G01*
X145628Y790000D01*
X163629Y790000D01*
X163629Y750000D01*
G37*
G36*
X126028Y750000D02*
G01*
X126028Y790000D01*
X144029Y790000D01*
X144029Y750000D01*
G37*
G36*
X106328Y750000D02*
G01*
X106328Y790000D01*
X124328Y790000D01*
X124328Y750000D01*
G37*
G36*
X86629Y750000D02*
G01*
X86629Y790000D01*
X104628Y790000D01*
X104628Y750000D01*
G37*
G36*
X44828Y791799D02*
G01*
X44828Y809800D01*
X84828Y809800D01*
X84828Y791799D01*
G37*
G36*
X44828Y811500D02*
G01*
X44828Y829499D01*
X84828Y829499D01*
X84828Y811500D01*
G37*
G36*
X44828Y831199D02*
G01*
X44828Y849200D01*
X84828Y849200D01*
X84828Y831199D01*
G37*
G36*
X44828Y850799D02*
G01*
X44828Y868800D01*
X84828Y868800D01*
X84828Y850799D01*
G37*
G36*
X44828Y870500D02*
G01*
X44828Y888499D01*
X84828Y888499D01*
X84828Y870500D01*
G37*
G36*
X44828Y890199D02*
G01*
X44828Y908200D01*
X84828Y908200D01*
X84828Y890199D01*
G37*
G36*
X86629Y910000D02*
G01*
X86629Y950000D01*
X104628Y950000D01*
X104628Y910000D01*
G37*
G36*
X106328Y910000D02*
G01*
X106328Y950000D01*
X124328Y950000D01*
X124328Y910000D01*
G37*
G36*
X126028Y910000D02*
G01*
X126028Y950000D01*
X144029Y950000D01*
X144029Y910000D01*
G37*
G36*
X145628Y910000D02*
G01*
X145628Y950000D01*
X163629Y950000D01*
X163629Y910000D01*
G37*
G36*
X165329Y910000D02*
G01*
X165329Y950000D01*
X183329Y950000D01*
X183329Y910000D01*
G37*
G36*
X185029Y910000D02*
G01*
X185029Y950000D01*
X203028Y950000D01*
X203028Y910000D01*
G37*
G36*
X204828Y890199D02*
G01*
X204828Y908200D01*
X244828Y908200D01*
X244828Y890199D01*
G37*
G36*
X204828Y870500D02*
G01*
X204828Y888499D01*
X244828Y888499D01*
X244828Y870500D01*
G37*
G36*
X204828Y850799D02*
G01*
X204828Y868800D01*
X244828Y868800D01*
X244828Y850799D01*
G37*
G36*
X204828Y831199D02*
G01*
X204828Y849200D01*
X244828Y849200D01*
X244828Y831199D01*
G37*
G36*
X204828Y811500D02*
G01*
X204828Y829499D01*
X244828Y829499D01*
X244828Y811500D01*
G37*
G36*
X204828Y791799D02*
G01*
X204828Y809800D01*
X244828Y809800D01*
X244828Y791799D01*
G37*
G36*
X855228Y1296500D02*
G01*
X855228Y1324200D01*
X894728Y1324200D01*
X894728Y1296500D01*
G37*
G36*
X855228Y1335799D02*
G01*
X855228Y1363499D01*
X894728Y1363499D01*
X894728Y1335799D01*
G37*
G36*
X515829Y-294699D02*
G01*
X515829Y-255300D01*
X543528Y-255300D01*
X543528Y-294699D01*
G37*
G36*
X476428Y-294699D02*
G01*
X476428Y-255300D01*
X504129Y-255300D01*
X504129Y-294699D01*
G37*
G36*
X295228Y165799D02*
G01*
X295228Y193499D01*
X334728Y193499D01*
X334728Y165799D01*
G37*
G36*
X295228Y126500D02*
G01*
X295228Y154200D01*
X334728Y154200D01*
X334728Y126500D01*
G37*
G36*
X121428Y120300D02*
G01*
X121428Y159699D01*
X149129Y159699D01*
X149129Y120300D01*
G37*
G36*
X160829Y120300D02*
G01*
X160829Y159699D01*
X188528Y159699D01*
X188528Y120300D01*
G37*
G36*
X145829Y-319699D02*
G01*
X145829Y-280300D01*
X173528Y-280300D01*
X173528Y-319699D01*
G37*
G36*
X106428Y-319699D02*
G01*
X106428Y-280300D01*
X134129Y-280300D01*
X134129Y-319699D01*
G37*
G36*
X498629Y-561399D02*
G01*
X498629Y-478600D01*
X581428Y-478600D01*
X581428Y-561399D01*
G37*
D89*
G01*
X440029Y-520000D03*
G36*
X238428Y-561399D02*
G01*
X238428Y-478600D01*
X321229Y-478600D01*
X321229Y-561399D01*
G37*
G01*
X179828Y-520000D03*
G36*
X-181571Y-561399D02*
G01*
X-181571Y-478600D01*
X-98770Y-478600D01*
X-98770Y-561399D01*
G37*
G01*
X-40171Y-520000D03*
G36*
X643629Y-561399D02*
G01*
X643629Y-478600D01*
X726428Y-478600D01*
X726428Y-561399D01*
G37*
G01*
X785029Y-520000D03*
G36*
X825329Y239800D02*
G01*
X825329Y275300D01*
X864728Y275300D01*
X864728Y239800D01*
G37*
G36*
X825329Y184699D02*
G01*
X825329Y220199D01*
X864728Y220199D01*
X864728Y184699D01*
G37*
G36*
X591028Y499299D02*
G01*
X591028Y541799D01*
X692228Y541799D01*
X692228Y499299D01*
G37*
G36*
X591028Y408699D02*
G01*
X591028Y451300D01*
X692228Y451300D01*
X692228Y408699D01*
G37*
G36*
X591028Y318200D02*
G01*
X591028Y360700D01*
X692228Y360700D01*
X692228Y318200D01*
G37*
G36*
X367728Y357100D02*
G01*
X367728Y502899D01*
X469029Y502899D01*
X469029Y357100D01*
G37*
G36*
X718629Y450399D02*
G01*
X718629Y505599D01*
X801428Y505599D01*
X801428Y450399D01*
G37*
G36*
X718629Y324400D02*
G01*
X718629Y379600D01*
X801428Y379600D01*
X801428Y324400D01*
G37*
G36*
X815528Y365999D02*
G01*
X815528Y424000D01*
X848528Y424000D01*
X848528Y365999D01*
G37*
G36*
X851529Y365999D02*
G01*
X851529Y424000D01*
X884529Y424000D01*
X884529Y365999D01*
G37*
G36*
X-98470Y1210999D02*
G01*
X-98470Y1269000D01*
X-65470Y1269000D01*
X-65470Y1210999D01*
G37*
G36*
X-134471Y1210999D02*
G01*
X-134471Y1269000D01*
X-101471Y1269000D01*
X-101471Y1210999D01*
G37*
D92*
G01*
X-1075001Y890000D03*
M02*
