G04 Layer: BottomLayer*
G04 EasyEDA v6.4.25, 2021-09-19T11:37:02+02:00*
G04 64e9d69745c74d7bbaee3c671462624f,10*
G04 Gerber Generator version 0.2*
G04 Scale: 100 percent, Rotated: No, Reflected: No *
G04 Dimensions in inches *
G04 leading zeros omitted , absolute positions ,3 integer and 6 decimal *
%FSLAX36Y36*%
%MOIN*%

%ADD10C,0.0100*%
%ADD11C,0.0102*%
%ADD12C,0.1200*%
%ADD13C,0.0300*%
%ADD14C,0.0200*%
%ADD16C,0.0240*%
%ADD17C,0.0240*%
%ADD23R,0.0680X0.0585*%
%ADD35C,0.0620*%
%ADD36R,0.0620X0.0620*%
%ADD37C,0.0600*%
%ADD38R,0.0600X0.0600*%
%ADD39R,0.0551X0.0551*%
%ADD40C,0.0551*%
%ADD42C,0.0787*%
%ADD43C,0.0394*%
%ADD44C,0.1600*%
%ADD55R,0.0972X0.1417*%

%LPD*%
G36*
X408040Y1450200D02*
G01*
X406460Y1450520D01*
X405140Y1451440D01*
X404300Y1452800D01*
X404040Y1454379D01*
X404440Y1455920D01*
X405400Y1457200D01*
X409060Y1460420D01*
X412620Y1464480D01*
X415620Y1468959D01*
X418000Y1473779D01*
X419720Y1478880D01*
X420780Y1484180D01*
X421140Y1489540D01*
X420780Y1494920D01*
X419720Y1500220D01*
X418000Y1505320D01*
X415620Y1510140D01*
X412620Y1514620D01*
X409520Y1518160D01*
X408760Y1519480D01*
X408519Y1520980D01*
X408880Y1522460D01*
X409760Y1523680D01*
X411040Y1524520D01*
X412520Y1524800D01*
X447360Y1524800D01*
X448840Y1524520D01*
X450120Y1523680D01*
X451000Y1522460D01*
X451360Y1520980D01*
X451120Y1519480D01*
X450360Y1518160D01*
X447260Y1514620D01*
X444260Y1510140D01*
X442980Y1507540D01*
X461940Y1507540D01*
X461940Y1520800D01*
X462239Y1522340D01*
X463120Y1523620D01*
X464420Y1524500D01*
X465940Y1524800D01*
X493940Y1524800D01*
X495480Y1524500D01*
X496760Y1523620D01*
X497640Y1522340D01*
X497939Y1520800D01*
X497939Y1507540D01*
X516900Y1507540D01*
X515620Y1510140D01*
X512620Y1514620D01*
X509520Y1518160D01*
X508760Y1519480D01*
X508519Y1520980D01*
X508880Y1522460D01*
X509760Y1523680D01*
X511040Y1524520D01*
X512520Y1524800D01*
X547360Y1524800D01*
X548840Y1524520D01*
X550120Y1523680D01*
X551000Y1522460D01*
X551360Y1520980D01*
X551120Y1519480D01*
X550360Y1518160D01*
X547260Y1514620D01*
X544260Y1510140D01*
X541880Y1505320D01*
X540160Y1500220D01*
X539100Y1494920D01*
X538740Y1489540D01*
X539100Y1484180D01*
X540160Y1478880D01*
X541880Y1473779D01*
X544260Y1468959D01*
X547260Y1464480D01*
X550820Y1460420D01*
X554480Y1457200D01*
X555460Y1455920D01*
X555840Y1454379D01*
X555580Y1452800D01*
X554740Y1451440D01*
X553420Y1450520D01*
X551840Y1450200D01*
X508040Y1450200D01*
X506460Y1450520D01*
X505140Y1451440D01*
X504300Y1452800D01*
X504040Y1454379D01*
X504440Y1455920D01*
X505400Y1457200D01*
X509060Y1460420D01*
X512620Y1464480D01*
X515620Y1468959D01*
X516900Y1471540D01*
X497939Y1471540D01*
X497939Y1454199D01*
X497640Y1452660D01*
X496760Y1451380D01*
X495480Y1450500D01*
X493940Y1450200D01*
X465940Y1450200D01*
X464420Y1450500D01*
X463120Y1451380D01*
X462239Y1452660D01*
X461940Y1454199D01*
X461940Y1471540D01*
X442980Y1471540D01*
X444260Y1468959D01*
X447260Y1464480D01*
X450820Y1460420D01*
X454480Y1457200D01*
X455460Y1455920D01*
X455840Y1454379D01*
X455580Y1452800D01*
X454739Y1451440D01*
X453420Y1450520D01*
X451840Y1450200D01*
G37*

%LPD*%
G36*
X208039Y1450200D02*
G01*
X206460Y1450520D01*
X205140Y1451440D01*
X204300Y1452800D01*
X204040Y1454379D01*
X204440Y1455920D01*
X205400Y1457200D01*
X209060Y1460420D01*
X212620Y1464480D01*
X215620Y1468959D01*
X218000Y1473779D01*
X219720Y1478880D01*
X220780Y1484180D01*
X221140Y1489540D01*
X220780Y1494920D01*
X219720Y1500220D01*
X218000Y1505320D01*
X215620Y1510140D01*
X212620Y1514620D01*
X209520Y1518160D01*
X208760Y1519480D01*
X208520Y1520980D01*
X208880Y1522460D01*
X209760Y1523680D01*
X211040Y1524520D01*
X212520Y1524800D01*
X247360Y1524800D01*
X248840Y1524520D01*
X250120Y1523680D01*
X251000Y1522460D01*
X251360Y1520980D01*
X251119Y1519480D01*
X250360Y1518160D01*
X247260Y1514620D01*
X244259Y1510140D01*
X242979Y1507540D01*
X261940Y1507540D01*
X261940Y1520800D01*
X262240Y1522340D01*
X263120Y1523620D01*
X264420Y1524500D01*
X265940Y1524800D01*
X293940Y1524800D01*
X295480Y1524500D01*
X296760Y1523620D01*
X297640Y1522340D01*
X297940Y1520800D01*
X297940Y1507540D01*
X316900Y1507540D01*
X315620Y1510140D01*
X312620Y1514620D01*
X309520Y1518160D01*
X308760Y1519480D01*
X308520Y1520980D01*
X308880Y1522460D01*
X309760Y1523680D01*
X311040Y1524520D01*
X312520Y1524800D01*
X347360Y1524800D01*
X348840Y1524520D01*
X350120Y1523680D01*
X351000Y1522460D01*
X351360Y1520980D01*
X351120Y1519480D01*
X350360Y1518160D01*
X347260Y1514620D01*
X344260Y1510140D01*
X341880Y1505320D01*
X340160Y1500220D01*
X339099Y1494920D01*
X338740Y1489540D01*
X339099Y1484180D01*
X340160Y1478880D01*
X341880Y1473779D01*
X344260Y1468959D01*
X347260Y1464480D01*
X350820Y1460420D01*
X354480Y1457200D01*
X355460Y1455920D01*
X355840Y1454379D01*
X355580Y1452800D01*
X354739Y1451440D01*
X353420Y1450520D01*
X351840Y1450200D01*
X308040Y1450200D01*
X306460Y1450520D01*
X305140Y1451440D01*
X304300Y1452800D01*
X304040Y1454379D01*
X304440Y1455920D01*
X305400Y1457200D01*
X309060Y1460420D01*
X312620Y1464480D01*
X315620Y1468959D01*
X316900Y1471540D01*
X297940Y1471540D01*
X297940Y1454199D01*
X297640Y1452660D01*
X296760Y1451380D01*
X295480Y1450500D01*
X293940Y1450200D01*
X265940Y1450200D01*
X264420Y1450500D01*
X263120Y1451380D01*
X262240Y1452660D01*
X261940Y1454199D01*
X261940Y1471540D01*
X242979Y1471540D01*
X244259Y1468959D01*
X247260Y1464480D01*
X250820Y1460420D01*
X254480Y1457200D01*
X255460Y1455920D01*
X255840Y1454379D01*
X255580Y1452800D01*
X254740Y1451440D01*
X253420Y1450520D01*
X251840Y1450200D01*
G37*

%LPD*%
G36*
X47440Y1345200D02*
G01*
X45920Y1345500D01*
X44620Y1346380D01*
X19560Y1371440D01*
X18720Y1372640D01*
X18380Y1374079D01*
X18600Y1375540D01*
X19720Y1378880D01*
X20780Y1384180D01*
X21140Y1389540D01*
X20780Y1394920D01*
X19720Y1400220D01*
X18000Y1405320D01*
X15620Y1410140D01*
X13320Y1413580D01*
X12700Y1415180D01*
X12800Y1416879D01*
X13600Y1418400D01*
X14980Y1419440D01*
X16640Y1419800D01*
X43240Y1419800D01*
X44920Y1419440D01*
X46280Y1418400D01*
X47080Y1416879D01*
X47180Y1415180D01*
X46560Y1413580D01*
X44260Y1410140D01*
X42980Y1407540D01*
X61940Y1407540D01*
X61940Y1415800D01*
X62240Y1417340D01*
X63120Y1418620D01*
X64420Y1419500D01*
X65940Y1419800D01*
X93940Y1419800D01*
X95480Y1419500D01*
X96760Y1418620D01*
X97640Y1417340D01*
X97940Y1415800D01*
X97940Y1407540D01*
X116900Y1407540D01*
X115620Y1410140D01*
X113320Y1413580D01*
X112700Y1415180D01*
X112800Y1416879D01*
X113600Y1418400D01*
X114980Y1419440D01*
X116640Y1419800D01*
X143240Y1419800D01*
X144920Y1419440D01*
X146280Y1418400D01*
X147080Y1416879D01*
X147180Y1415180D01*
X146560Y1413580D01*
X144260Y1410140D01*
X141880Y1405320D01*
X140160Y1400220D01*
X139100Y1394920D01*
X138740Y1389540D01*
X139100Y1384180D01*
X140160Y1378880D01*
X141880Y1373779D01*
X144260Y1368959D01*
X147260Y1364480D01*
X150820Y1360420D01*
X154860Y1356879D01*
X159340Y1353880D01*
X161560Y1352780D01*
X162940Y1351660D01*
X163700Y1350060D01*
X163680Y1348300D01*
X162900Y1346699D01*
X161520Y1345600D01*
X159780Y1345200D01*
X100100Y1345200D01*
X98360Y1345600D01*
X96980Y1346699D01*
X96760Y1346380D01*
X95480Y1345500D01*
X93940Y1345200D01*
X65940Y1345200D01*
X64420Y1345500D01*
X63120Y1346380D01*
X62900Y1346699D01*
X61520Y1345600D01*
X59780Y1345200D01*
G37*

%LPC*%
G36*
X61940Y1352480D02*
G01*
X61940Y1371540D01*
X42980Y1371540D01*
X44260Y1368959D01*
X47260Y1364480D01*
X50820Y1360420D01*
X54860Y1356879D01*
X59340Y1353880D01*
X61560Y1352780D01*
G37*
G36*
X97940Y1352480D02*
G01*
X98320Y1352780D01*
X100540Y1353880D01*
X105020Y1356879D01*
X109060Y1360420D01*
X112620Y1364480D01*
X115620Y1368959D01*
X116900Y1371540D01*
X97940Y1371540D01*
G37*

%LPD*%
G36*
X-210460Y1310200D02*
G01*
X-211980Y1310500D01*
X-213280Y1311380D01*
X-278840Y1376940D01*
X-279600Y1378000D01*
X-279980Y1379240D01*
X-279940Y1380540D01*
X-279220Y1384180D01*
X-278860Y1389540D01*
X-279220Y1394920D01*
X-280280Y1400220D01*
X-282000Y1405320D01*
X-282780Y1406900D01*
X-283200Y1408480D01*
X-282920Y1410120D01*
X-282020Y1411500D01*
X-274880Y1418620D01*
X-273580Y1419500D01*
X-272060Y1419800D01*
X-256759Y1419800D01*
X-255080Y1419440D01*
X-253720Y1418400D01*
X-252920Y1416879D01*
X-252820Y1415180D01*
X-253440Y1413580D01*
X-255740Y1410140D01*
X-258120Y1405320D01*
X-259840Y1400220D01*
X-260900Y1394920D01*
X-261260Y1389540D01*
X-260900Y1384180D01*
X-259840Y1378880D01*
X-258120Y1373779D01*
X-255740Y1368959D01*
X-252740Y1364480D01*
X-249180Y1360420D01*
X-245140Y1356879D01*
X-240660Y1353880D01*
X-235820Y1351500D01*
X-230720Y1349760D01*
X-225440Y1348720D01*
X-220060Y1348360D01*
X-214680Y1348720D01*
X-209400Y1349760D01*
X-206060Y1350900D01*
X-204600Y1351100D01*
X-203160Y1350760D01*
X-201940Y1349940D01*
X-169040Y1317020D01*
X-168160Y1315740D01*
X-167860Y1314199D01*
X-168160Y1312660D01*
X-169040Y1311380D01*
X-170340Y1310500D01*
X-171860Y1310200D01*
G37*

%LPD*%
G36*
X-112560Y1305200D02*
G01*
X-114080Y1305500D01*
X-115380Y1306380D01*
X-180440Y1371440D01*
X-181280Y1372640D01*
X-181620Y1374079D01*
X-181400Y1375540D01*
X-180280Y1378880D01*
X-179220Y1384180D01*
X-178860Y1389540D01*
X-179220Y1394920D01*
X-180280Y1400220D01*
X-182000Y1405320D01*
X-184380Y1410140D01*
X-186680Y1413580D01*
X-187300Y1415180D01*
X-187200Y1416879D01*
X-186400Y1418400D01*
X-185020Y1419440D01*
X-183359Y1419800D01*
X-156760Y1419800D01*
X-155080Y1419440D01*
X-153720Y1418400D01*
X-152920Y1416879D01*
X-152820Y1415180D01*
X-153440Y1413580D01*
X-155740Y1410140D01*
X-158120Y1405320D01*
X-159840Y1400220D01*
X-160900Y1394920D01*
X-161260Y1389540D01*
X-160900Y1384180D01*
X-159840Y1378880D01*
X-158120Y1373779D01*
X-155740Y1368959D01*
X-152740Y1364480D01*
X-149180Y1360420D01*
X-145140Y1356879D01*
X-140660Y1353880D01*
X-135820Y1351500D01*
X-130719Y1349760D01*
X-125440Y1348720D01*
X-120060Y1348360D01*
X-114680Y1348720D01*
X-109400Y1349760D01*
X-106060Y1350900D01*
X-104600Y1351100D01*
X-103160Y1350760D01*
X-101940Y1349940D01*
X-64040Y1312020D01*
X-63160Y1310740D01*
X-62859Y1309199D01*
X-63160Y1307660D01*
X-64040Y1306380D01*
X-65340Y1305500D01*
X-66860Y1305200D01*
G37*

%LPD*%
G36*
X-437020Y1290200D02*
G01*
X-438560Y1290500D01*
X-439860Y1291380D01*
X-497760Y1349259D01*
X-498700Y1350760D01*
X-498900Y1352500D01*
X-498360Y1354160D01*
X-497140Y1355420D01*
X-494980Y1356879D01*
X-490940Y1360420D01*
X-487380Y1364480D01*
X-484380Y1368959D01*
X-482000Y1373779D01*
X-480280Y1378880D01*
X-479219Y1384180D01*
X-478860Y1389540D01*
X-479219Y1394920D01*
X-480280Y1400220D01*
X-482000Y1405320D01*
X-484380Y1410140D01*
X-487380Y1414620D01*
X-490940Y1418680D01*
X-494980Y1422220D01*
X-499460Y1425220D01*
X-504300Y1427600D01*
X-509400Y1429340D01*
X-514680Y1430380D01*
X-520060Y1430740D01*
X-525440Y1430380D01*
X-530720Y1429340D01*
X-535820Y1427600D01*
X-540660Y1425220D01*
X-545140Y1422220D01*
X-549180Y1418680D01*
X-552740Y1414620D01*
X-554180Y1412460D01*
X-555460Y1411260D01*
X-557120Y1410700D01*
X-558860Y1410920D01*
X-560340Y1411860D01*
X-594100Y1445600D01*
X-596540Y1447620D01*
X-597480Y1448120D01*
X-598740Y1449180D01*
X-599460Y1450640D01*
X-599540Y1452280D01*
X-598960Y1453800D01*
X-597820Y1454980D01*
X-594980Y1456879D01*
X-590940Y1460420D01*
X-587380Y1464480D01*
X-584380Y1468959D01*
X-582000Y1473779D01*
X-580280Y1478880D01*
X-579220Y1484180D01*
X-578860Y1489540D01*
X-579220Y1494920D01*
X-580280Y1500220D01*
X-582000Y1505320D01*
X-584380Y1510140D01*
X-587380Y1514620D01*
X-590480Y1518160D01*
X-591240Y1519480D01*
X-591480Y1520980D01*
X-591120Y1522460D01*
X-590240Y1523680D01*
X-588960Y1524520D01*
X-587480Y1524800D01*
X-552640Y1524800D01*
X-551160Y1524520D01*
X-549880Y1523680D01*
X-549000Y1522460D01*
X-548640Y1520980D01*
X-548880Y1519480D01*
X-549640Y1518160D01*
X-552740Y1514620D01*
X-555740Y1510140D01*
X-557020Y1507540D01*
X-538060Y1507540D01*
X-538060Y1520800D01*
X-537760Y1522340D01*
X-536880Y1523620D01*
X-535580Y1524500D01*
X-534060Y1524800D01*
X-512939Y1524800D01*
X-511400Y1524500D01*
X-510100Y1523620D01*
X-503240Y1516759D01*
X-502360Y1515460D01*
X-502060Y1513920D01*
X-502060Y1507540D01*
X-495680Y1507540D01*
X-494159Y1507240D01*
X-492860Y1506380D01*
X-486360Y1499880D01*
X-485480Y1498580D01*
X-485180Y1497040D01*
X-485180Y1475540D01*
X-485480Y1474019D01*
X-486360Y1472720D01*
X-487640Y1471860D01*
X-489180Y1471540D01*
X-502060Y1471540D01*
X-502060Y1452600D01*
X-499460Y1453880D01*
X-494980Y1456879D01*
X-491820Y1459640D01*
X-490500Y1460420D01*
X-489000Y1460640D01*
X-487520Y1460280D01*
X-486300Y1459400D01*
X-485460Y1458120D01*
X-485180Y1456639D01*
X-485180Y1455200D01*
X-484860Y1452040D01*
X-484000Y1449199D01*
X-482600Y1446560D01*
X-480580Y1444120D01*
X-460860Y1424400D01*
X-458420Y1422380D01*
X-455780Y1420980D01*
X-454880Y1420700D01*
X-453579Y1420020D01*
X-452600Y1418899D01*
X-452100Y1417500D01*
X-452140Y1416020D01*
X-452720Y1414660D01*
X-455740Y1410140D01*
X-458120Y1405320D01*
X-459840Y1400220D01*
X-460900Y1394920D01*
X-461260Y1389540D01*
X-460900Y1384180D01*
X-459840Y1378880D01*
X-458120Y1373779D01*
X-455740Y1368959D01*
X-452740Y1364480D01*
X-449180Y1360420D01*
X-445140Y1356879D01*
X-440660Y1353880D01*
X-435820Y1351500D01*
X-430720Y1349760D01*
X-425439Y1348720D01*
X-420060Y1348360D01*
X-414680Y1348720D01*
X-409400Y1349760D01*
X-406040Y1350900D01*
X-404580Y1351120D01*
X-403140Y1350780D01*
X-401920Y1349940D01*
X-349000Y1297020D01*
X-348140Y1295740D01*
X-347840Y1294199D01*
X-348140Y1292660D01*
X-349000Y1291380D01*
X-350300Y1290500D01*
X-351840Y1290200D01*
G37*

%LPC*%
G36*
X-538060Y1452600D02*
G01*
X-538060Y1471540D01*
X-557020Y1471540D01*
X-555740Y1468959D01*
X-552740Y1464480D01*
X-549180Y1460420D01*
X-545140Y1456879D01*
X-540660Y1453880D01*
G37*

%LPD*%
G36*
X522540Y1160200D02*
G01*
X521019Y1160500D01*
X519720Y1161380D01*
X496400Y1184700D01*
X495520Y1186000D01*
X495220Y1187520D01*
X495220Y1259820D01*
X494900Y1263500D01*
X493980Y1266900D01*
X492960Y1269100D01*
X492580Y1270660D01*
X492840Y1272240D01*
X493700Y1273580D01*
X495020Y1274480D01*
X496580Y1274800D01*
X572060Y1274800D01*
X573600Y1274500D01*
X574900Y1273620D01*
X610500Y1238020D01*
X611360Y1236740D01*
X611660Y1235200D01*
X611360Y1233660D01*
X610500Y1232380D01*
X609200Y1231500D01*
X607660Y1231200D01*
X597820Y1231200D01*
X597820Y1208000D01*
X620380Y1208000D01*
X621820Y1207740D01*
X623060Y1206980D01*
X623960Y1205820D01*
X624360Y1204420D01*
X624260Y1202960D01*
X623140Y1198840D01*
X622800Y1195000D01*
X623140Y1191140D01*
X624140Y1187420D01*
X625780Y1183920D01*
X628080Y1180640D01*
X630720Y1178000D01*
X633900Y1175780D01*
X637400Y1174160D01*
X641140Y1173160D01*
X645000Y1172820D01*
X648840Y1173160D01*
X650000Y1173460D01*
X651380Y1173580D01*
X652740Y1173220D01*
X653860Y1172420D01*
X654659Y1171300D01*
X655780Y1168900D01*
X657460Y1166500D01*
X658120Y1164900D01*
X658060Y1163160D01*
X657260Y1161620D01*
X655879Y1160580D01*
X654200Y1160200D01*
X625020Y1160200D01*
X623480Y1160500D01*
X622200Y1161380D01*
X621320Y1162660D01*
X621020Y1164200D01*
X621020Y1172000D01*
X597820Y1172000D01*
X597820Y1164200D01*
X597520Y1162660D01*
X596640Y1161380D01*
X595360Y1160500D01*
X593820Y1160200D01*
X565820Y1160200D01*
X564280Y1160500D01*
X563000Y1161380D01*
X562120Y1162660D01*
X561820Y1164200D01*
X561820Y1172000D01*
X538620Y1172000D01*
X538620Y1164200D01*
X538320Y1162660D01*
X537440Y1161380D01*
X536160Y1160500D01*
X534620Y1160200D01*
G37*

%LPC*%
G36*
X538620Y1208000D02*
G01*
X561820Y1208000D01*
X561820Y1231200D01*
X549040Y1231200D01*
X546560Y1230920D01*
X544400Y1230160D01*
X542480Y1228960D01*
X540860Y1227340D01*
X539660Y1225420D01*
X538900Y1223260D01*
X538620Y1220780D01*
G37*

%LPD*%
G36*
X-313980Y1000200D02*
G01*
X-315520Y1000500D01*
X-316800Y1001380D01*
X-317680Y1002660D01*
X-317980Y1004200D01*
X-317980Y1022000D01*
X-341200Y1022000D01*
X-341599Y1020560D01*
X-342520Y1019360D01*
X-343820Y1018600D01*
X-345300Y1018360D01*
X-346760Y1018680D01*
X-348000Y1019520D01*
X-373600Y1045120D01*
X-374480Y1046420D01*
X-374780Y1047960D01*
X-374780Y1129800D01*
X-375100Y1132960D01*
X-375959Y1135800D01*
X-377360Y1138440D01*
X-379240Y1140740D01*
X-381540Y1142620D01*
X-384180Y1144020D01*
X-387020Y1144880D01*
X-390180Y1145200D01*
X-424219Y1145200D01*
X-425900Y1145580D01*
X-427280Y1146620D01*
X-428080Y1148160D01*
X-428140Y1149900D01*
X-427480Y1151500D01*
X-425800Y1153900D01*
X-424159Y1157420D01*
X-423160Y1161140D01*
X-422819Y1165000D01*
X-423160Y1168860D01*
X-424159Y1172580D01*
X-424880Y1174100D01*
X-425240Y1175660D01*
X-424980Y1177240D01*
X-424120Y1178580D01*
X-422819Y1179480D01*
X-421240Y1179800D01*
X-378960Y1179800D01*
X-377360Y1179460D01*
X-376019Y1178520D01*
X-375180Y1177120D01*
X-374640Y1175580D01*
X-373440Y1173660D01*
X-371820Y1172040D01*
X-369900Y1170840D01*
X-367740Y1170080D01*
X-365260Y1169800D01*
X-340700Y1169800D01*
X-338220Y1170080D01*
X-336300Y1170760D01*
X-334980Y1170980D01*
X-333660Y1170760D01*
X-331740Y1170080D01*
X-329260Y1169800D01*
X-304960Y1169800D01*
X-303440Y1169500D01*
X-302140Y1168620D01*
X-216900Y1083380D01*
X-216040Y1082140D01*
X-215720Y1080660D01*
X-215960Y1079180D01*
X-216740Y1077880D01*
X-217940Y1076960D01*
X-220580Y1075680D01*
X-225060Y1072680D01*
X-229100Y1069120D01*
X-232659Y1065080D01*
X-235660Y1060600D01*
X-238039Y1055760D01*
X-239760Y1050660D01*
X-240820Y1045380D01*
X-241180Y1040000D01*
X-240820Y1034620D01*
X-239760Y1029340D01*
X-238039Y1024240D01*
X-235660Y1019400D01*
X-232659Y1014920D01*
X-229100Y1010879D01*
X-224920Y1007200D01*
X-223960Y1005920D01*
X-223560Y1004380D01*
X-223820Y1002800D01*
X-224680Y1001440D01*
X-226000Y1000520D01*
X-227560Y1000200D01*
X-255700Y1000200D01*
X-257200Y1000480D01*
X-258480Y1001300D01*
X-259360Y1002540D01*
X-259700Y1004020D01*
X-259480Y1005520D01*
X-259060Y1006740D01*
X-258780Y1009220D01*
X-258780Y1022000D01*
X-281980Y1022000D01*
X-281980Y1004200D01*
X-282280Y1002660D01*
X-283160Y1001380D01*
X-284440Y1000500D01*
X-285980Y1000200D01*
G37*

%LPC*%
G36*
X-281980Y1058000D02*
G01*
X-258780Y1058000D01*
X-258780Y1070780D01*
X-259060Y1073260D01*
X-259820Y1075420D01*
X-261020Y1077340D01*
X-262640Y1078960D01*
X-264560Y1080160D01*
X-266720Y1080920D01*
X-269200Y1081200D01*
X-281980Y1081200D01*
G37*
G36*
X-341180Y1058000D02*
G01*
X-317980Y1058000D01*
X-317980Y1081200D01*
X-330760Y1081200D01*
X-333240Y1080920D01*
X-335400Y1080160D01*
X-337320Y1078960D01*
X-338940Y1077340D01*
X-340140Y1075420D01*
X-340900Y1073260D01*
X-341180Y1070780D01*
G37*

%LPD*%
G36*
X408660Y937099D02*
G01*
X407080Y937500D01*
X405780Y938480D01*
X405000Y939900D01*
X404820Y941520D01*
X405220Y945200D01*
X405220Y947320D01*
X405520Y948840D01*
X406400Y950140D01*
X406980Y950740D01*
X409200Y953900D01*
X410840Y957420D01*
X411840Y961140D01*
X412180Y965000D01*
X411840Y968860D01*
X410840Y972580D01*
X409200Y976100D01*
X406980Y979260D01*
X404260Y982000D01*
X401079Y984220D01*
X397580Y985840D01*
X393840Y986840D01*
X390000Y987180D01*
X386140Y986840D01*
X382400Y985840D01*
X378900Y984220D01*
X374020Y980720D01*
X372500Y980420D01*
X370959Y980720D01*
X366079Y984220D01*
X362580Y985840D01*
X358840Y986840D01*
X355000Y987180D01*
X351140Y986840D01*
X347400Y985840D01*
X343900Y984220D01*
X340720Y982000D01*
X337819Y979080D01*
X336520Y978220D01*
X335000Y977920D01*
X333459Y978220D01*
X332160Y979080D01*
X329260Y982000D01*
X326079Y984220D01*
X322580Y985840D01*
X318840Y986840D01*
X315000Y987180D01*
X311140Y986840D01*
X307400Y985840D01*
X303900Y984220D01*
X299020Y980720D01*
X297500Y980420D01*
X295960Y980720D01*
X291080Y984220D01*
X287580Y985840D01*
X283840Y986840D01*
X280000Y987180D01*
X276140Y986840D01*
X275180Y986580D01*
X273640Y986480D01*
X272180Y986960D01*
X271020Y987960D01*
X270300Y989320D01*
X270200Y991160D01*
X270200Y1082280D01*
X270500Y1083820D01*
X271360Y1085120D01*
X271980Y1085740D01*
X274200Y1088900D01*
X275840Y1092420D01*
X276840Y1096140D01*
X277180Y1100000D01*
X276840Y1103860D01*
X275840Y1107580D01*
X274200Y1111100D01*
X271980Y1114260D01*
X269260Y1117000D01*
X266080Y1119220D01*
X262580Y1120840D01*
X258840Y1121840D01*
X255000Y1122180D01*
X251140Y1121840D01*
X247399Y1120840D01*
X243900Y1119220D01*
X240720Y1117000D01*
X238000Y1114260D01*
X235780Y1111100D01*
X234140Y1107580D01*
X233140Y1103860D01*
X232800Y1100000D01*
X233140Y1096140D01*
X234140Y1092420D01*
X235780Y1088900D01*
X238000Y1085740D01*
X238619Y1085120D01*
X239480Y1083820D01*
X239800Y1082280D01*
X239800Y998920D01*
X239480Y997380D01*
X238619Y996080D01*
X213080Y970540D01*
X211600Y969599D01*
X209899Y969380D01*
X208240Y969900D01*
X206960Y971080D01*
X206300Y972680D01*
X206380Y974400D01*
X206840Y976140D01*
X207180Y980000D01*
X206840Y983860D01*
X205840Y987600D01*
X204200Y991100D01*
X202000Y994260D01*
X199259Y997000D01*
X196080Y999220D01*
X192580Y1000860D01*
X188840Y1001860D01*
X185000Y1002200D01*
X181140Y1001860D01*
X177399Y1000860D01*
X175620Y1000020D01*
X174080Y999659D01*
X172500Y999920D01*
X171160Y1000780D01*
X170260Y1002099D01*
X169940Y1003660D01*
X169940Y1146800D01*
X170240Y1148320D01*
X171100Y1149620D01*
X191820Y1170340D01*
X193039Y1171180D01*
X194480Y1171520D01*
X195940Y1171300D01*
X199160Y1170220D01*
X204440Y1169160D01*
X209820Y1168800D01*
X215200Y1169160D01*
X220479Y1170220D01*
X225580Y1171940D01*
X230420Y1174320D01*
X234899Y1177320D01*
X238939Y1180880D01*
X242500Y1184920D01*
X245500Y1189400D01*
X247880Y1194240D01*
X249600Y1199340D01*
X250660Y1204620D01*
X251020Y1210000D01*
X250660Y1215380D01*
X249600Y1220660D01*
X247880Y1225760D01*
X245500Y1230600D01*
X243500Y1233580D01*
X242880Y1235180D01*
X242979Y1236880D01*
X243780Y1238400D01*
X245159Y1239440D01*
X246820Y1239800D01*
X272820Y1239800D01*
X274480Y1239440D01*
X275860Y1238400D01*
X276660Y1236880D01*
X276760Y1235180D01*
X276140Y1233580D01*
X274140Y1230600D01*
X271760Y1225760D01*
X270040Y1220660D01*
X268980Y1215380D01*
X268620Y1210000D01*
X268980Y1204620D01*
X270040Y1199340D01*
X271760Y1194240D01*
X274140Y1189400D01*
X277140Y1184920D01*
X280700Y1180880D01*
X284740Y1177320D01*
X289220Y1174320D01*
X294060Y1171940D01*
X299160Y1170220D01*
X304440Y1169160D01*
X309820Y1168800D01*
X315200Y1169160D01*
X320480Y1170220D01*
X325580Y1171940D01*
X330420Y1174320D01*
X334900Y1177320D01*
X338940Y1180880D01*
X342500Y1184920D01*
X345500Y1189400D01*
X347879Y1194240D01*
X349600Y1199340D01*
X350660Y1204620D01*
X351019Y1210000D01*
X350660Y1215380D01*
X349600Y1220660D01*
X347879Y1225760D01*
X345500Y1230600D01*
X343500Y1233580D01*
X342879Y1235180D01*
X342980Y1236880D01*
X343780Y1238400D01*
X345160Y1239440D01*
X346820Y1239800D01*
X372819Y1239800D01*
X374480Y1239440D01*
X375860Y1238400D01*
X376659Y1236880D01*
X376760Y1235180D01*
X376140Y1233580D01*
X374140Y1230600D01*
X372860Y1228000D01*
X391820Y1228000D01*
X391820Y1235800D01*
X392120Y1237340D01*
X393000Y1238620D01*
X394280Y1239500D01*
X395820Y1239800D01*
X423820Y1239800D01*
X425360Y1239500D01*
X426640Y1238620D01*
X427520Y1237340D01*
X427819Y1235800D01*
X427819Y1228000D01*
X446780Y1228000D01*
X445500Y1230600D01*
X443500Y1233580D01*
X442879Y1235180D01*
X442980Y1236880D01*
X443780Y1238400D01*
X445160Y1239440D01*
X446820Y1239800D01*
X450820Y1239800D01*
X452360Y1239500D01*
X453640Y1238620D01*
X454520Y1237340D01*
X454820Y1235800D01*
X454820Y1228840D01*
X454420Y1227100D01*
X453900Y1226440D01*
X454520Y1225540D01*
X454820Y1224000D01*
X454820Y1196000D01*
X454520Y1194460D01*
X453900Y1193560D01*
X454420Y1192900D01*
X454820Y1191160D01*
X454820Y1177580D01*
X454900Y1175740D01*
X455140Y1174000D01*
X455520Y1172280D01*
X456040Y1170600D01*
X456719Y1168960D01*
X457520Y1167400D01*
X458480Y1165920D01*
X459540Y1164520D01*
X460800Y1163160D01*
X498180Y1125780D01*
X499540Y1124520D01*
X500940Y1123460D01*
X502420Y1122500D01*
X503980Y1121700D01*
X505620Y1121020D01*
X507299Y1120500D01*
X509020Y1120120D01*
X510760Y1119880D01*
X512600Y1119800D01*
X542820Y1119800D01*
X544480Y1119440D01*
X545860Y1118400D01*
X546660Y1116880D01*
X546760Y1115180D01*
X546140Y1113580D01*
X544140Y1110600D01*
X541760Y1105760D01*
X540040Y1100660D01*
X538980Y1095380D01*
X538620Y1090000D01*
X538980Y1084620D01*
X540040Y1079340D01*
X541760Y1074240D01*
X542420Y1072900D01*
X542840Y1071300D01*
X542560Y1069680D01*
X541660Y1068300D01*
X411640Y938280D01*
X410280Y937380D01*
G37*

%LPC*%
G36*
X391820Y1173040D02*
G01*
X391820Y1192000D01*
X372860Y1192000D01*
X374140Y1189400D01*
X377140Y1184920D01*
X380700Y1180880D01*
X384739Y1177320D01*
X389219Y1174320D01*
G37*
G36*
X427819Y1173040D02*
G01*
X430420Y1174320D01*
X434900Y1177320D01*
X438940Y1180880D01*
X442500Y1184920D01*
X445500Y1189400D01*
X446780Y1192000D01*
X427819Y1192000D01*
G37*

%LPD*%
G36*
X154340Y735320D02*
G01*
X152800Y735620D01*
X151500Y736480D01*
X150640Y737780D01*
X150340Y739320D01*
X150340Y769800D01*
X150180Y771600D01*
X150180Y785780D01*
X149900Y788259D01*
X149140Y790420D01*
X147940Y792340D01*
X146320Y793960D01*
X144400Y795160D01*
X142240Y795920D01*
X139760Y796200D01*
X130200Y796200D01*
X127720Y795920D01*
X126460Y795480D01*
X125140Y795260D01*
X123820Y795480D01*
X122560Y795920D01*
X120879Y796100D01*
X119480Y796540D01*
X118340Y797420D01*
X117579Y798660D01*
X117320Y800080D01*
X117320Y822500D01*
X94900Y822500D01*
X93480Y822760D01*
X92240Y823520D01*
X91359Y824659D01*
X90920Y826060D01*
X90740Y827740D01*
X90300Y829000D01*
X90079Y830320D01*
X90300Y831640D01*
X90740Y832900D01*
X91020Y835380D01*
X91020Y844940D01*
X90740Y847420D01*
X90300Y848680D01*
X90079Y850000D01*
X90300Y851320D01*
X90740Y852580D01*
X91020Y855060D01*
X91020Y864620D01*
X90740Y867099D01*
X90300Y868360D01*
X90079Y869680D01*
X90300Y871000D01*
X90740Y872260D01*
X90920Y873940D01*
X91359Y875340D01*
X92240Y876480D01*
X93480Y877240D01*
X94900Y877500D01*
X117320Y877500D01*
X117320Y899920D01*
X117579Y901340D01*
X118340Y902580D01*
X119480Y903460D01*
X120879Y903900D01*
X122560Y904080D01*
X123820Y904520D01*
X125140Y904740D01*
X126460Y904520D01*
X127720Y904080D01*
X130200Y903800D01*
X139760Y903800D01*
X142240Y904080D01*
X143500Y904520D01*
X144820Y904740D01*
X146140Y904520D01*
X147400Y904080D01*
X149880Y903800D01*
X159440Y903800D01*
X161920Y904080D01*
X163180Y904520D01*
X164500Y904740D01*
X165820Y904520D01*
X167079Y904080D01*
X168760Y903900D01*
X170159Y903460D01*
X171300Y902580D01*
X172060Y901340D01*
X172320Y899920D01*
X172320Y877500D01*
X194740Y877500D01*
X196160Y877240D01*
X197399Y876480D01*
X198280Y875340D01*
X198720Y873940D01*
X198900Y872260D01*
X199340Y871000D01*
X199560Y869680D01*
X199340Y868360D01*
X198900Y867099D01*
X198619Y864620D01*
X198619Y855060D01*
X198900Y852580D01*
X199340Y851320D01*
X199560Y850000D01*
X199340Y848680D01*
X198900Y847420D01*
X198619Y844940D01*
X198619Y835380D01*
X198900Y832900D01*
X199340Y831640D01*
X199560Y830320D01*
X199340Y829000D01*
X198900Y827740D01*
X198720Y826060D01*
X198280Y824659D01*
X197399Y823520D01*
X196160Y822760D01*
X194740Y822500D01*
X172320Y822500D01*
X172320Y800080D01*
X172060Y798660D01*
X171300Y797420D01*
X170159Y796540D01*
X168760Y796100D01*
X167079Y795920D01*
X164940Y795160D01*
X163000Y793960D01*
X161400Y792340D01*
X160180Y790420D01*
X159440Y788280D01*
X159160Y785580D01*
X159160Y771500D01*
X159000Y769800D01*
X159000Y740200D01*
X158860Y738060D01*
X158040Y736640D01*
X156700Y735660D01*
X155060Y735320D01*
G37*

%LPD*%
G36*
X916540Y458800D02*
G01*
X914960Y459080D01*
X913620Y459960D01*
X900380Y473200D01*
X899520Y474500D01*
X899200Y476040D01*
X899200Y521320D01*
X898920Y523800D01*
X898180Y525960D01*
X896960Y527880D01*
X895360Y529500D01*
X893420Y530700D01*
X891280Y531460D01*
X888780Y531740D01*
X843500Y531740D01*
X841979Y532040D01*
X840680Y532900D01*
X783100Y590500D01*
X782220Y591800D01*
X781919Y593320D01*
X781919Y965800D01*
X782220Y967340D01*
X783100Y968620D01*
X784380Y969500D01*
X785920Y969800D01*
X791480Y969800D01*
X793980Y970080D01*
X796120Y970840D01*
X798060Y972039D01*
X799659Y973660D01*
X800879Y975580D01*
X801620Y977740D01*
X801919Y980220D01*
X801919Y982580D01*
X802240Y984180D01*
X803199Y985520D01*
X804599Y986360D01*
X806220Y986560D01*
X807800Y986100D01*
X809040Y985060D01*
X810639Y983040D01*
X814500Y979300D01*
X818820Y976120D01*
X823540Y973540D01*
X828540Y971620D01*
X833760Y970360D01*
X839100Y969840D01*
X844479Y970020D01*
X849760Y970900D01*
X854900Y972500D01*
X859760Y974760D01*
X864300Y977640D01*
X868400Y981100D01*
X872000Y985100D01*
X875040Y989520D01*
X876200Y991820D01*
X877260Y993139D01*
X878780Y993900D01*
X880480Y993960D01*
X882060Y993300D01*
X883199Y992060D01*
X886060Y987260D01*
X889380Y983040D01*
X893240Y979300D01*
X897560Y976120D01*
X902280Y973540D01*
X907280Y971620D01*
X912500Y970360D01*
X917840Y969840D01*
X923220Y970020D01*
X928500Y970900D01*
X933640Y972500D01*
X938500Y974760D01*
X943040Y977640D01*
X947140Y981100D01*
X950740Y985100D01*
X953780Y989520D01*
X954940Y991820D01*
X956000Y993139D01*
X957520Y993900D01*
X958199Y993920D01*
X957540Y994840D01*
X957200Y996320D01*
X957400Y997820D01*
X957960Y999380D01*
X959020Y1004640D01*
X959380Y1010000D01*
X959020Y1015360D01*
X957960Y1020620D01*
X957400Y1022180D01*
X957200Y1023680D01*
X957540Y1025160D01*
X958199Y1026080D01*
X957520Y1026100D01*
X956000Y1026860D01*
X954940Y1028180D01*
X953780Y1030480D01*
X950740Y1034900D01*
X947140Y1038900D01*
X943040Y1042360D01*
X938500Y1045240D01*
X937000Y1045939D01*
X935780Y1046820D01*
X934960Y1048100D01*
X934680Y1049580D01*
X934680Y1085340D01*
X934960Y1086820D01*
X935780Y1088100D01*
X937000Y1088980D01*
X938680Y1089760D01*
X943199Y1092640D01*
X947300Y1096100D01*
X950900Y1100100D01*
X953940Y1104520D01*
X955100Y1106820D01*
X956180Y1108140D01*
X957700Y1108900D01*
X958379Y1108920D01*
X957720Y1109840D01*
X957360Y1111320D01*
X957580Y1112820D01*
X958120Y1114380D01*
X959200Y1119640D01*
X959560Y1125000D01*
X959200Y1130360D01*
X958120Y1135620D01*
X957580Y1137180D01*
X957360Y1138680D01*
X957720Y1140160D01*
X958379Y1141080D01*
X957700Y1141100D01*
X956180Y1141860D01*
X955100Y1143180D01*
X953940Y1145480D01*
X950900Y1149900D01*
X947300Y1153900D01*
X943199Y1157360D01*
X938680Y1160240D01*
X937000Y1161020D01*
X935780Y1161900D01*
X934960Y1163180D01*
X934680Y1164660D01*
X934680Y1195420D01*
X934960Y1196900D01*
X935780Y1198160D01*
X937000Y1199040D01*
X938520Y1199760D01*
X943040Y1202640D01*
X947140Y1206100D01*
X950740Y1210100D01*
X953780Y1214520D01*
X954940Y1216820D01*
X956020Y1218140D01*
X957540Y1218900D01*
X958220Y1218920D01*
X957560Y1219840D01*
X957200Y1221320D01*
X957420Y1222820D01*
X957960Y1224380D01*
X959040Y1229640D01*
X959400Y1235000D01*
X959040Y1240360D01*
X957960Y1245620D01*
X957420Y1247180D01*
X957200Y1248680D01*
X957560Y1250160D01*
X958220Y1251080D01*
X957540Y1251100D01*
X956020Y1251860D01*
X954940Y1253180D01*
X953780Y1255480D01*
X950740Y1259900D01*
X947140Y1263900D01*
X943040Y1267360D01*
X938520Y1270240D01*
X933640Y1272500D01*
X928520Y1274100D01*
X923220Y1274980D01*
X917860Y1275160D01*
X912520Y1274640D01*
X907300Y1273380D01*
X902280Y1271460D01*
X897580Y1268880D01*
X893259Y1265700D01*
X889400Y1261960D01*
X886060Y1257740D01*
X883220Y1252940D01*
X882060Y1251700D01*
X880500Y1251040D01*
X878800Y1251100D01*
X877280Y1251860D01*
X876200Y1253180D01*
X875040Y1255480D01*
X872000Y1259900D01*
X868400Y1263900D01*
X864300Y1267360D01*
X859780Y1270240D01*
X854900Y1272500D01*
X849780Y1274100D01*
X844479Y1274980D01*
X839120Y1275160D01*
X833780Y1274640D01*
X828560Y1273380D01*
X823540Y1271460D01*
X818840Y1268880D01*
X814520Y1265700D01*
X810660Y1261960D01*
X809060Y1259940D01*
X807800Y1258900D01*
X806240Y1258440D01*
X804599Y1258640D01*
X803199Y1259480D01*
X802260Y1260820D01*
X801919Y1262420D01*
X801919Y1264780D01*
X801640Y1267260D01*
X800879Y1269420D01*
X799680Y1271340D01*
X798060Y1272960D01*
X796140Y1274160D01*
X793980Y1274920D01*
X791500Y1275200D01*
X731940Y1275200D01*
X729460Y1274920D01*
X727300Y1274160D01*
X725380Y1272960D01*
X723760Y1271340D01*
X722560Y1269420D01*
X721800Y1267260D01*
X721520Y1264780D01*
X721520Y1249620D01*
X721220Y1248100D01*
X720340Y1246800D01*
X719060Y1245920D01*
X717520Y1245620D01*
X715980Y1245920D01*
X714700Y1246800D01*
X620880Y1340600D01*
X618420Y1342620D01*
X615800Y1344019D01*
X612960Y1344880D01*
X609800Y1345200D01*
X600100Y1345200D01*
X598360Y1345600D01*
X596980Y1346699D01*
X596200Y1348300D01*
X596200Y1350060D01*
X596940Y1351660D01*
X598320Y1352780D01*
X600540Y1353880D01*
X605020Y1356879D01*
X609060Y1360420D01*
X612620Y1364480D01*
X615620Y1368959D01*
X618000Y1373779D01*
X619720Y1378880D01*
X620780Y1384180D01*
X621140Y1389540D01*
X620780Y1394920D01*
X619720Y1400220D01*
X618000Y1405320D01*
X615620Y1410140D01*
X613320Y1413580D01*
X612700Y1415180D01*
X612800Y1416879D01*
X613600Y1418400D01*
X614980Y1419440D01*
X616640Y1419800D01*
X643240Y1419800D01*
X644920Y1419440D01*
X646280Y1418400D01*
X647080Y1416879D01*
X647180Y1415180D01*
X646560Y1413580D01*
X644260Y1410140D01*
X641880Y1405320D01*
X640160Y1400220D01*
X639100Y1394920D01*
X638740Y1389540D01*
X639100Y1384180D01*
X640160Y1378880D01*
X641880Y1373779D01*
X644260Y1368959D01*
X647260Y1364480D01*
X650819Y1360420D01*
X654860Y1356879D01*
X659340Y1353880D01*
X664180Y1351500D01*
X669280Y1349760D01*
X674560Y1348720D01*
X679940Y1348360D01*
X685320Y1348720D01*
X690600Y1349760D01*
X695699Y1351500D01*
X700540Y1353880D01*
X705020Y1356879D01*
X709060Y1360420D01*
X712620Y1364480D01*
X715620Y1368959D01*
X718000Y1373779D01*
X719720Y1378880D01*
X720780Y1384180D01*
X721140Y1389540D01*
X720780Y1394920D01*
X719720Y1400220D01*
X718000Y1405320D01*
X715620Y1410140D01*
X713319Y1413580D01*
X712700Y1415180D01*
X712800Y1416879D01*
X713600Y1418400D01*
X714980Y1419440D01*
X716640Y1419800D01*
X743240Y1419800D01*
X744920Y1419440D01*
X746280Y1418400D01*
X747080Y1416879D01*
X747180Y1415180D01*
X746560Y1413580D01*
X744260Y1410140D01*
X742980Y1407540D01*
X761940Y1407540D01*
X761940Y1415800D01*
X762240Y1417340D01*
X763120Y1418620D01*
X764419Y1419500D01*
X765939Y1419800D01*
X793940Y1419800D01*
X795480Y1419500D01*
X796760Y1418620D01*
X797640Y1417340D01*
X797940Y1415800D01*
X797940Y1407540D01*
X810800Y1407540D01*
X812320Y1407240D01*
X813620Y1406380D01*
X814479Y1405080D01*
X814800Y1403540D01*
X814800Y1375540D01*
X814479Y1374019D01*
X813620Y1372720D01*
X812320Y1371860D01*
X810800Y1371540D01*
X797940Y1371540D01*
X797940Y1352600D01*
X800540Y1353880D01*
X805020Y1356879D01*
X808160Y1359620D01*
X809460Y1360380D01*
X810960Y1360620D01*
X812440Y1360260D01*
X813680Y1359379D01*
X814500Y1358100D01*
X814800Y1356620D01*
X814800Y1335200D01*
X815100Y1332040D01*
X815960Y1329199D01*
X817360Y1326560D01*
X819380Y1324120D01*
X843800Y1299700D01*
X846240Y1297680D01*
X849220Y1296100D01*
X850380Y1295160D01*
X851080Y1294340D01*
X852900Y1292520D01*
X854820Y1291320D01*
X856979Y1290560D01*
X859460Y1290280D01*
X890520Y1290280D01*
X893000Y1290560D01*
X895160Y1291320D01*
X897080Y1292520D01*
X898700Y1294139D01*
X899900Y1296060D01*
X900660Y1298220D01*
X900939Y1300700D01*
X900939Y1319940D01*
X900660Y1322420D01*
X899900Y1324580D01*
X898700Y1326500D01*
X898020Y1327180D01*
X897159Y1328480D01*
X896860Y1330000D01*
X897159Y1331540D01*
X898020Y1332840D01*
X898700Y1333500D01*
X899900Y1335440D01*
X900660Y1337580D01*
X900939Y1340080D01*
X900939Y1359300D01*
X900660Y1361800D01*
X899900Y1363940D01*
X898700Y1365880D01*
X897080Y1367480D01*
X895160Y1368700D01*
X893000Y1369460D01*
X890520Y1369740D01*
X879200Y1369740D01*
X877660Y1370040D01*
X876360Y1370900D01*
X875500Y1372200D01*
X875200Y1373740D01*
X875200Y1412280D01*
X875500Y1413820D01*
X876360Y1415120D01*
X876979Y1415740D01*
X879200Y1418899D01*
X880840Y1422420D01*
X881840Y1426140D01*
X882180Y1430000D01*
X881840Y1433860D01*
X880840Y1437580D01*
X879200Y1441100D01*
X876979Y1444259D01*
X874260Y1447000D01*
X871080Y1449220D01*
X867580Y1450840D01*
X863840Y1451840D01*
X860000Y1452180D01*
X856140Y1451840D01*
X852400Y1450840D01*
X848900Y1449220D01*
X845720Y1447000D01*
X842940Y1444199D01*
X841640Y1443340D01*
X840120Y1443040D01*
X838580Y1443340D01*
X837280Y1444199D01*
X835879Y1445600D01*
X833420Y1447620D01*
X830800Y1449019D01*
X827960Y1449880D01*
X824800Y1450200D01*
X808040Y1450200D01*
X806460Y1450520D01*
X805140Y1451440D01*
X804300Y1452800D01*
X804040Y1454379D01*
X804440Y1455920D01*
X805400Y1457200D01*
X809060Y1460420D01*
X812620Y1464480D01*
X815620Y1468959D01*
X818000Y1473779D01*
X819720Y1478880D01*
X820780Y1484180D01*
X821140Y1489540D01*
X820780Y1494920D01*
X819720Y1500220D01*
X818000Y1505320D01*
X815620Y1510140D01*
X812620Y1514620D01*
X809520Y1518160D01*
X808760Y1519480D01*
X808520Y1520980D01*
X808880Y1522460D01*
X809760Y1523680D01*
X811040Y1524520D01*
X812520Y1524800D01*
X948740Y1524800D01*
X950300Y1524480D01*
X951620Y1523560D01*
X952480Y1522200D01*
X952740Y1520620D01*
X952340Y1519060D01*
X951360Y1517780D01*
X949980Y1517000D01*
X943500Y1514900D01*
X936500Y1511840D01*
X929820Y1508120D01*
X923520Y1503779D01*
X917680Y1498860D01*
X912340Y1493380D01*
X907560Y1487420D01*
X903379Y1481040D01*
X899820Y1474259D01*
X896940Y1467200D01*
X894760Y1459860D01*
X893280Y1452360D01*
X892540Y1444760D01*
X892540Y1437120D01*
X893280Y1429520D01*
X894760Y1422020D01*
X896940Y1414680D01*
X899820Y1407600D01*
X903379Y1400840D01*
X907560Y1394460D01*
X912340Y1388500D01*
X917680Y1383020D01*
X923520Y1378100D01*
X929820Y1373760D01*
X936500Y1370040D01*
X943500Y1366980D01*
X950780Y1364620D01*
X958240Y1362980D01*
X965819Y1362060D01*
X973460Y1361860D01*
X979920Y1362340D01*
X981420Y1362160D01*
X982760Y1361440D01*
X983720Y1360260D01*
X984180Y1358820D01*
X984060Y1357320D01*
X983139Y1353860D01*
X982800Y1350000D01*
X983139Y1346140D01*
X984140Y1342420D01*
X985780Y1338899D01*
X988000Y1335740D01*
X990720Y1333000D01*
X993900Y1330780D01*
X997400Y1329160D01*
X1001140Y1328160D01*
X1005000Y1327820D01*
X1008840Y1328160D01*
X1012580Y1329160D01*
X1016080Y1330780D01*
X1019260Y1333000D01*
X1019880Y1333620D01*
X1021180Y1334500D01*
X1022700Y1334800D01*
X1047280Y1334800D01*
X1048800Y1334500D01*
X1050100Y1333620D01*
X1050720Y1333000D01*
X1053900Y1330780D01*
X1057400Y1329160D01*
X1061140Y1328160D01*
X1065000Y1327820D01*
X1068840Y1328160D01*
X1072580Y1329160D01*
X1074120Y1329880D01*
X1075680Y1330240D01*
X1077260Y1329980D01*
X1078600Y1329120D01*
X1079500Y1327820D01*
X1079820Y1326260D01*
X1079820Y933259D01*
X1079520Y931720D01*
X1078640Y930420D01*
X996440Y848199D01*
X995060Y847300D01*
X993439Y847039D01*
X991840Y847440D01*
X990540Y848460D01*
X988880Y850420D01*
X984900Y854020D01*
X980480Y857060D01*
X978160Y858220D01*
X976840Y859300D01*
X976100Y860819D01*
X976060Y861500D01*
X975160Y860840D01*
X973680Y860480D01*
X972180Y860699D01*
X970600Y861240D01*
X965340Y862320D01*
X960000Y862680D01*
X954640Y862320D01*
X949380Y861240D01*
X947800Y860699D01*
X946300Y860480D01*
X944840Y860840D01*
X943920Y861500D01*
X943900Y860819D01*
X943139Y859300D01*
X941820Y858220D01*
X939500Y857060D01*
X935080Y854020D01*
X931100Y850420D01*
X927640Y846320D01*
X924740Y841800D01*
X922480Y836919D01*
X920900Y831800D01*
X920000Y826500D01*
X919820Y821140D01*
X920360Y815800D01*
X921600Y810580D01*
X923540Y805560D01*
X926120Y800860D01*
X929300Y796540D01*
X933040Y792680D01*
X937240Y789340D01*
X942060Y786500D01*
X943300Y785340D01*
X943940Y783780D01*
X943900Y782080D01*
X943139Y780560D01*
X941820Y779479D01*
X939500Y778319D01*
X935080Y775280D01*
X931100Y771680D01*
X927640Y767580D01*
X924740Y763060D01*
X922480Y758180D01*
X920900Y753060D01*
X920000Y747760D01*
X919820Y742400D01*
X920360Y737060D01*
X921600Y731840D01*
X923540Y726820D01*
X926120Y722120D01*
X929300Y717800D01*
X933040Y713940D01*
X937240Y710600D01*
X942060Y707760D01*
X943300Y706600D01*
X943940Y705040D01*
X943900Y703340D01*
X943139Y701820D01*
X941820Y700740D01*
X939500Y699580D01*
X935080Y696540D01*
X931100Y692940D01*
X927640Y688840D01*
X924740Y684320D01*
X922480Y679440D01*
X920900Y674320D01*
X920000Y669020D01*
X919820Y663660D01*
X920360Y658319D01*
X921600Y653100D01*
X923540Y648080D01*
X926120Y643379D01*
X929300Y639060D01*
X933040Y635200D01*
X937240Y631860D01*
X942060Y629020D01*
X943300Y627860D01*
X943940Y626300D01*
X943900Y624600D01*
X943139Y623080D01*
X941820Y622000D01*
X939500Y620840D01*
X935080Y617800D01*
X931100Y614200D01*
X927640Y610100D01*
X924740Y605580D01*
X922480Y600700D01*
X920900Y595580D01*
X920000Y590280D01*
X919820Y584920D01*
X920360Y579580D01*
X921600Y574360D01*
X923540Y569340D01*
X926120Y564640D01*
X929300Y560320D01*
X933040Y556460D01*
X937240Y553120D01*
X942060Y550280D01*
X943300Y549120D01*
X943940Y547560D01*
X943900Y545860D01*
X943139Y544340D01*
X941820Y543260D01*
X939500Y542100D01*
X935080Y539060D01*
X931100Y535460D01*
X927640Y531360D01*
X924740Y526840D01*
X922480Y521960D01*
X920900Y516840D01*
X920000Y511540D01*
X919820Y506180D01*
X920360Y500840D01*
X921600Y495620D01*
X923540Y490600D01*
X926120Y485900D01*
X929300Y481580D01*
X933040Y477720D01*
X935040Y476120D01*
X936100Y474860D01*
X936560Y473300D01*
X936340Y471659D01*
X935500Y470260D01*
X934180Y469320D01*
X932560Y468980D01*
X930220Y468980D01*
X927720Y468700D01*
X925580Y467939D01*
X923640Y466740D01*
X922039Y465120D01*
X920819Y463200D01*
X920220Y461480D01*
X919400Y460100D01*
X918100Y459159D01*
G37*

%LPC*%
G36*
X1015440Y1027500D02*
G01*
X1034020Y1027500D01*
X1032520Y1030480D01*
X1029479Y1034900D01*
X1025879Y1038900D01*
X1021780Y1042360D01*
X1017240Y1045240D01*
X1015440Y1046080D01*
G37*
G36*
X874500Y578260D02*
G01*
X888780Y578260D01*
X891280Y578540D01*
X893420Y579300D01*
X895360Y580500D01*
X896960Y582120D01*
X898180Y584040D01*
X898920Y586200D01*
X899200Y588680D01*
X899200Y600580D01*
X874500Y600580D01*
G37*
G36*
X810780Y634820D02*
G01*
X835480Y634820D01*
X835480Y657120D01*
X821200Y657120D01*
X818720Y656840D01*
X816560Y656100D01*
X814640Y654880D01*
X813020Y653280D01*
X811800Y651340D01*
X811060Y649200D01*
X810780Y646700D01*
G37*
G36*
X874500Y634820D02*
G01*
X899200Y634820D01*
X899200Y646700D01*
X898920Y649200D01*
X898180Y651340D01*
X896960Y653280D01*
X895360Y654880D01*
X893420Y656100D01*
X891280Y656840D01*
X888780Y657120D01*
X874500Y657120D01*
G37*
G36*
X980440Y1198860D02*
G01*
X980440Y1217500D01*
X961540Y1217500D01*
X961960Y1217060D01*
X964800Y1212260D01*
X968139Y1208040D01*
X972000Y1204300D01*
X976320Y1201120D01*
G37*
G36*
X977500Y864840D02*
G01*
X977940Y865240D01*
X982740Y868080D01*
X986960Y871420D01*
X990680Y875280D01*
X993860Y879599D01*
X996120Y883720D01*
X977500Y883720D01*
G37*
G36*
X942500Y864840D02*
G01*
X942500Y883720D01*
X923860Y883720D01*
X926120Y879599D01*
X929300Y875280D01*
X933040Y871420D01*
X937240Y868080D01*
X942060Y865240D01*
G37*
G36*
X977500Y918720D02*
G01*
X996080Y918720D01*
X995240Y920540D01*
X992340Y925060D01*
X988880Y929160D01*
X984900Y932760D01*
X980480Y935800D01*
X977500Y937300D01*
G37*
G36*
X923900Y918720D02*
G01*
X942500Y918720D01*
X942500Y937300D01*
X939500Y935800D01*
X935080Y932760D01*
X931100Y929160D01*
X927640Y925060D01*
X924740Y920540D01*
G37*
G36*
X1015440Y1252500D02*
G01*
X1034020Y1252500D01*
X1032520Y1255480D01*
X1029479Y1259900D01*
X1025879Y1263900D01*
X1021780Y1267360D01*
X1017260Y1270240D01*
X1015440Y1271080D01*
G37*
G36*
X980440Y973860D02*
G01*
X980440Y992500D01*
X961540Y992500D01*
X961940Y992060D01*
X964800Y987260D01*
X968120Y983040D01*
X971979Y979300D01*
X976300Y976120D01*
G37*
G36*
X1015440Y973920D02*
G01*
X1017240Y974760D01*
X1021780Y977640D01*
X1025879Y981100D01*
X1029479Y985100D01*
X1032520Y989520D01*
X1034020Y992500D01*
X1015440Y992500D01*
G37*
G36*
X821200Y578260D02*
G01*
X835480Y578260D01*
X835480Y600580D01*
X810780Y600580D01*
X810780Y588680D01*
X811060Y586200D01*
X811800Y584040D01*
X813020Y582120D01*
X814640Y580500D01*
X816560Y579300D01*
X818720Y578540D01*
G37*
G36*
X961540Y1027500D02*
G01*
X980440Y1027500D01*
X980440Y1046140D01*
X976300Y1043880D01*
X971979Y1040699D01*
X968120Y1036960D01*
X964800Y1032740D01*
X961940Y1027940D01*
G37*
G36*
X761940Y1352600D02*
G01*
X761940Y1371540D01*
X742980Y1371540D01*
X744260Y1368959D01*
X747260Y1364480D01*
X750819Y1360420D01*
X754860Y1356879D01*
X759340Y1353880D01*
G37*
G36*
X961540Y1252500D02*
G01*
X980440Y1252500D01*
X980440Y1271140D01*
X976320Y1268880D01*
X972000Y1265700D01*
X968139Y1261960D01*
X964800Y1257740D01*
X961960Y1252940D01*
G37*
G36*
X980600Y1088860D02*
G01*
X980600Y1107500D01*
X961720Y1107500D01*
X962120Y1107060D01*
X964960Y1102260D01*
X968300Y1098040D01*
X972159Y1094300D01*
X976480Y1091120D01*
G37*
G36*
X1015600Y1088920D02*
G01*
X1017420Y1089760D01*
X1021940Y1092640D01*
X1026040Y1096100D01*
X1029640Y1100100D01*
X1032680Y1104520D01*
X1034180Y1107500D01*
X1015600Y1107500D01*
G37*
G36*
X1015600Y1142500D02*
G01*
X1034180Y1142500D01*
X1032680Y1145480D01*
X1029640Y1149900D01*
X1026040Y1153900D01*
X1021940Y1157360D01*
X1017420Y1160240D01*
X1015600Y1161080D01*
G37*
G36*
X961720Y1142500D02*
G01*
X980600Y1142500D01*
X980600Y1161140D01*
X976480Y1158880D01*
X972159Y1155700D01*
X968300Y1151960D01*
X964960Y1147740D01*
X962120Y1142940D01*
G37*
G36*
X1015440Y1198920D02*
G01*
X1017260Y1199760D01*
X1021780Y1202640D01*
X1025879Y1206100D01*
X1029479Y1210100D01*
X1032520Y1214520D01*
X1034020Y1217500D01*
X1015440Y1217500D01*
G37*

%LPD*%
G36*
X481200Y435200D02*
G01*
X479660Y435500D01*
X478380Y436380D01*
X477500Y437660D01*
X477200Y439200D01*
X477200Y500640D01*
X476920Y503140D01*
X476160Y505280D01*
X474960Y507200D01*
X473340Y508820D01*
X471420Y510040D01*
X469260Y510780D01*
X466780Y511060D01*
X429300Y511060D01*
X427780Y511380D01*
X426480Y512239D01*
X425620Y513540D01*
X425300Y515060D01*
X425300Y554360D01*
X425620Y555900D01*
X426480Y557200D01*
X475520Y606220D01*
X477540Y608700D01*
X478960Y611340D01*
X479820Y614220D01*
X480140Y617400D01*
X480140Y671100D01*
X480439Y672620D01*
X481300Y673920D01*
X482520Y675120D01*
X484540Y677600D01*
X485959Y680240D01*
X486820Y683120D01*
X487299Y685200D01*
X488180Y686360D01*
X489440Y687140D01*
X490880Y687400D01*
X495220Y687400D01*
X497720Y687680D01*
X499860Y688439D01*
X501800Y689640D01*
X503400Y691260D01*
X504620Y693180D01*
X505360Y695340D01*
X505640Y697820D01*
X505640Y772180D01*
X505360Y774659D01*
X504620Y776820D01*
X503400Y778740D01*
X501800Y780360D01*
X499860Y781560D01*
X497720Y782320D01*
X495220Y782600D01*
X491140Y782600D01*
X489600Y782900D01*
X488300Y783780D01*
X487440Y785080D01*
X487140Y786600D01*
X487140Y793400D01*
X487440Y794920D01*
X488300Y796220D01*
X489600Y797099D01*
X491140Y797400D01*
X495220Y797400D01*
X497720Y797680D01*
X499860Y798439D01*
X501800Y799640D01*
X503400Y801260D01*
X504620Y803180D01*
X505360Y805340D01*
X505640Y807820D01*
X505640Y882180D01*
X505360Y884659D01*
X504620Y886820D01*
X503880Y888000D01*
X503360Y889240D01*
X503280Y890560D01*
X503660Y891860D01*
X504440Y892960D01*
X561820Y950340D01*
X563040Y951180D01*
X564480Y951520D01*
X565940Y951300D01*
X569160Y950220D01*
X574440Y949160D01*
X579820Y948800D01*
X585200Y949160D01*
X590480Y950220D01*
X595580Y951940D01*
X600420Y954320D01*
X604900Y957320D01*
X608940Y960879D01*
X612500Y964920D01*
X615500Y969400D01*
X617880Y974240D01*
X619600Y979340D01*
X620660Y984620D01*
X621020Y990000D01*
X620660Y995380D01*
X619600Y1000660D01*
X617880Y1005759D01*
X615500Y1010600D01*
X612500Y1015080D01*
X608940Y1019120D01*
X604900Y1022680D01*
X600420Y1025680D01*
X595580Y1028060D01*
X590480Y1029780D01*
X585200Y1030840D01*
X579820Y1031200D01*
X574440Y1030840D01*
X569160Y1029780D01*
X564060Y1028060D01*
X559220Y1025680D01*
X554740Y1022680D01*
X550700Y1019120D01*
X547140Y1015080D01*
X544140Y1010600D01*
X541760Y1005759D01*
X540040Y1000660D01*
X538980Y995380D01*
X538620Y990000D01*
X538980Y984620D01*
X540040Y979340D01*
X541120Y976120D01*
X541340Y974659D01*
X541000Y973220D01*
X540160Y972000D01*
X478540Y910380D01*
X477239Y909520D01*
X475720Y909220D01*
X472020Y909220D01*
X468840Y908900D01*
X465959Y908040D01*
X463320Y906620D01*
X461000Y904720D01*
X459099Y902400D01*
X457680Y899760D01*
X456820Y896880D01*
X456340Y894800D01*
X455460Y893640D01*
X454200Y892860D01*
X452760Y892600D01*
X448420Y892600D01*
X445959Y892320D01*
X443200Y891320D01*
X441960Y891080D01*
X440680Y891240D01*
X439540Y891800D01*
X436079Y894220D01*
X432580Y895840D01*
X428840Y896840D01*
X425000Y897180D01*
X423740Y897080D01*
X422140Y897260D01*
X420740Y898080D01*
X419780Y899380D01*
X419400Y900939D01*
X419680Y902540D01*
X420580Y903880D01*
X565760Y1049080D01*
X566820Y1049840D01*
X568060Y1050220D01*
X569360Y1050180D01*
X574440Y1049160D01*
X579820Y1048800D01*
X585200Y1049160D01*
X590480Y1050220D01*
X595580Y1051940D01*
X600420Y1054320D01*
X604900Y1057320D01*
X608940Y1060880D01*
X612500Y1064920D01*
X615500Y1069400D01*
X617880Y1074240D01*
X619600Y1079340D01*
X620660Y1084620D01*
X621020Y1090000D01*
X620660Y1095380D01*
X619600Y1100660D01*
X617880Y1105760D01*
X615500Y1110600D01*
X613500Y1113580D01*
X612880Y1115180D01*
X612980Y1116880D01*
X613780Y1118400D01*
X615160Y1119440D01*
X616820Y1119800D01*
X717680Y1119800D01*
X719220Y1119500D01*
X720500Y1118620D01*
X721380Y1117340D01*
X721680Y1115800D01*
X721680Y1095220D01*
X721960Y1092740D01*
X722720Y1090580D01*
X723920Y1088660D01*
X725540Y1087040D01*
X727460Y1085840D01*
X729620Y1085080D01*
X732099Y1084800D01*
X737680Y1084800D01*
X739220Y1084500D01*
X740500Y1083620D01*
X741380Y1082340D01*
X741680Y1080800D01*
X741680Y1054200D01*
X741380Y1052660D01*
X740500Y1051380D01*
X739220Y1050500D01*
X737680Y1050200D01*
X731940Y1050200D01*
X729440Y1049920D01*
X727300Y1049160D01*
X725360Y1047960D01*
X723760Y1046340D01*
X722540Y1044419D01*
X721800Y1042260D01*
X721520Y1039780D01*
X721520Y980220D01*
X721800Y977740D01*
X722540Y975580D01*
X723760Y973660D01*
X725360Y972039D01*
X727300Y970840D01*
X729440Y970080D01*
X731940Y969800D01*
X737520Y969800D01*
X739060Y969500D01*
X740340Y968620D01*
X741220Y967340D01*
X741520Y965800D01*
X741520Y583380D01*
X741600Y581540D01*
X741840Y579800D01*
X742220Y578080D01*
X742740Y576400D01*
X743420Y574760D01*
X744220Y573200D01*
X745180Y571720D01*
X746240Y570320D01*
X747500Y568960D01*
X797820Y518640D01*
X798680Y517340D01*
X798980Y515820D01*
X798680Y514280D01*
X797820Y512980D01*
X796520Y512120D01*
X794980Y511820D01*
X781200Y511820D01*
X781200Y492299D01*
X806780Y492299D01*
X808300Y492000D01*
X809599Y491140D01*
X810480Y489840D01*
X810780Y488300D01*
X810780Y467680D01*
X810480Y466160D01*
X809599Y464860D01*
X808300Y463980D01*
X806780Y463680D01*
X781200Y463680D01*
X781200Y444200D01*
X780879Y442660D01*
X780020Y441380D01*
X778720Y440500D01*
X777200Y440200D01*
X742800Y440200D01*
X741260Y440500D01*
X739960Y441380D01*
X739100Y442660D01*
X738800Y444200D01*
X738800Y463680D01*
X712380Y463680D01*
X712380Y454600D01*
X712580Y452879D01*
X712440Y451340D01*
X711740Y449940D01*
X710540Y448940D01*
X709040Y448459D01*
X707480Y448600D01*
X706100Y449320D01*
X704640Y450500D01*
X701960Y452180D01*
X700699Y452780D01*
X699780Y453400D01*
X699060Y454260D01*
X698180Y455640D01*
X696580Y457239D01*
X694640Y458459D01*
X692500Y459219D01*
X690000Y459500D01*
X593200Y459500D01*
X590720Y459219D01*
X588560Y458459D01*
X586640Y457239D01*
X585020Y455640D01*
X583820Y453700D01*
X583060Y451560D01*
X582780Y449060D01*
X582780Y439200D01*
X582480Y437660D01*
X581620Y436380D01*
X580320Y435500D01*
X578780Y435200D01*
G37*

%LPC*%
G36*
X564000Y756200D02*
G01*
X583500Y756200D01*
X583500Y782600D01*
X574420Y782600D01*
X571920Y782320D01*
X569780Y781560D01*
X567840Y780360D01*
X566240Y778740D01*
X565020Y776820D01*
X564280Y774659D01*
X564000Y772180D01*
G37*
G36*
X612120Y797400D02*
G01*
X621200Y797400D01*
X623700Y797680D01*
X625840Y798439D01*
X627780Y799640D01*
X629380Y801260D01*
X630600Y803180D01*
X631360Y805340D01*
X631640Y807820D01*
X631640Y823800D01*
X612120Y823800D01*
G37*
G36*
X612120Y687400D02*
G01*
X621200Y687400D01*
X623700Y687680D01*
X625840Y688439D01*
X627780Y689640D01*
X629380Y691260D01*
X630600Y693180D01*
X631360Y695340D01*
X631640Y697820D01*
X631640Y713800D01*
X612120Y713800D01*
G37*
G36*
X593200Y491060D02*
G01*
X614800Y491060D01*
X614800Y508400D01*
X582780Y508400D01*
X582780Y501480D01*
X583060Y499000D01*
X583820Y496840D01*
X585020Y494920D01*
X586640Y493300D01*
X588560Y492100D01*
X590720Y491340D01*
G37*
G36*
X668420Y491060D02*
G01*
X690000Y491060D01*
X692500Y491340D01*
X694640Y492100D01*
X696580Y493300D01*
X698180Y494920D01*
X699400Y496840D01*
X700140Y499000D01*
X700420Y501480D01*
X700420Y508400D01*
X668420Y508400D01*
G37*
G36*
X612120Y756200D02*
G01*
X631640Y756200D01*
X631640Y772180D01*
X631360Y774659D01*
X630600Y776820D01*
X629380Y778740D01*
X627780Y780360D01*
X625840Y781560D01*
X623700Y782320D01*
X621200Y782600D01*
X612120Y782600D01*
G37*
G36*
X574420Y687400D02*
G01*
X583500Y687400D01*
X583500Y713800D01*
X564000Y713800D01*
X564000Y697820D01*
X564280Y695340D01*
X565020Y693180D01*
X566240Y691260D01*
X567840Y689640D01*
X569780Y688439D01*
X571920Y687680D01*
G37*
G36*
X564000Y866200D02*
G01*
X583500Y866200D01*
X583500Y892600D01*
X574420Y892600D01*
X571920Y892320D01*
X569780Y891560D01*
X567840Y890360D01*
X566240Y888740D01*
X565020Y886820D01*
X564280Y884659D01*
X564000Y882180D01*
G37*
G36*
X612120Y866200D02*
G01*
X631640Y866200D01*
X631640Y882180D01*
X631360Y884659D01*
X630600Y886820D01*
X629380Y888740D01*
X627780Y890360D01*
X625840Y891560D01*
X623700Y892320D01*
X621200Y892600D01*
X612120Y892600D01*
G37*
G36*
X574420Y797400D02*
G01*
X583500Y797400D01*
X583500Y823800D01*
X564000Y823800D01*
X564000Y807820D01*
X564280Y805340D01*
X565020Y803180D01*
X566240Y801260D01*
X567840Y799640D01*
X569780Y798439D01*
X571920Y797680D01*
G37*
G36*
X582780Y532700D02*
G01*
X614800Y532700D01*
X614800Y550040D01*
X593200Y550040D01*
X590720Y549760D01*
X588560Y549000D01*
X586640Y547800D01*
X585020Y546180D01*
X583820Y544260D01*
X583060Y542100D01*
X582780Y539620D01*
G37*
G36*
X668420Y532700D02*
G01*
X700420Y532700D01*
X700420Y539620D01*
X700140Y542100D01*
X699400Y544260D01*
X698180Y546180D01*
X696580Y547800D01*
X694640Y549000D01*
X692500Y549760D01*
X690000Y550040D01*
X668420Y550040D01*
G37*
G36*
X712380Y492299D02*
G01*
X738800Y492299D01*
X738800Y511820D01*
X722820Y511820D01*
X720320Y511540D01*
X718180Y510780D01*
X716240Y509560D01*
X714640Y507960D01*
X713420Y506019D01*
X712660Y503880D01*
X712380Y501380D01*
G37*

%LPD*%
G36*
X352939Y300200D02*
G01*
X351420Y300500D01*
X350120Y301380D01*
X253039Y398440D01*
X252180Y399720D01*
X251860Y401200D01*
X252140Y402700D01*
X252940Y404000D01*
X254180Y404900D01*
X256080Y405780D01*
X259259Y408000D01*
X261980Y410740D01*
X264200Y413900D01*
X265840Y417420D01*
X266840Y421140D01*
X267180Y425000D01*
X266840Y428860D01*
X265840Y432580D01*
X264200Y436100D01*
X261980Y439260D01*
X261360Y439880D01*
X260500Y441180D01*
X260200Y442720D01*
X260200Y469200D01*
X260560Y470900D01*
X261620Y472260D01*
X263160Y473060D01*
X264880Y473140D01*
X266480Y472480D01*
X268900Y470780D01*
X272400Y469159D01*
X276140Y468160D01*
X280000Y467819D01*
X283840Y468160D01*
X287580Y469159D01*
X291080Y470780D01*
X294260Y473000D01*
X296980Y475740D01*
X299200Y478900D01*
X300840Y482420D01*
X301840Y486140D01*
X302180Y490000D01*
X301840Y493860D01*
X300840Y497580D01*
X299200Y501100D01*
X296980Y504260D01*
X296360Y504880D01*
X295500Y506180D01*
X295200Y507720D01*
X295200Y537040D01*
X295500Y538580D01*
X296360Y539880D01*
X388200Y631720D01*
X389340Y632520D01*
X390680Y632880D01*
X393840Y633160D01*
X397580Y634160D01*
X401079Y635780D01*
X404260Y638000D01*
X406980Y640740D01*
X409200Y643900D01*
X410840Y647420D01*
X411840Y651140D01*
X412180Y655000D01*
X411840Y658860D01*
X410840Y662580D01*
X409200Y666100D01*
X406980Y669260D01*
X404260Y672000D01*
X401079Y674220D01*
X397580Y675840D01*
X393840Y676840D01*
X390000Y677180D01*
X386140Y676840D01*
X382400Y675840D01*
X378900Y674220D01*
X375720Y672000D01*
X373760Y670040D01*
X372520Y669180D01*
X371060Y668860D01*
X369580Y669100D01*
X368280Y669880D01*
X367360Y671060D01*
X366960Y672520D01*
X366840Y673860D01*
X365840Y677580D01*
X364200Y681100D01*
X361980Y684260D01*
X359260Y687000D01*
X356079Y689220D01*
X352580Y690840D01*
X348840Y691840D01*
X345000Y692180D01*
X341140Y691840D01*
X337400Y690840D01*
X333900Y689220D01*
X330720Y687000D01*
X328000Y684260D01*
X325780Y681100D01*
X324140Y677580D01*
X323140Y673860D01*
X322800Y670000D01*
X323140Y666140D01*
X323920Y663259D01*
X324040Y661860D01*
X323680Y660520D01*
X322879Y659380D01*
X234380Y570880D01*
X232360Y568440D01*
X230960Y565800D01*
X230100Y562960D01*
X229800Y559800D01*
X229800Y442720D01*
X229480Y441180D01*
X228619Y439880D01*
X228000Y439260D01*
X225780Y436100D01*
X224880Y434180D01*
X224000Y432960D01*
X222700Y432140D01*
X221200Y431880D01*
X219700Y432200D01*
X218440Y433060D01*
X141360Y510120D01*
X140500Y511420D01*
X140200Y512960D01*
X140200Y607280D01*
X140500Y608820D01*
X141360Y610120D01*
X141980Y610740D01*
X144200Y613900D01*
X145840Y617420D01*
X146840Y621140D01*
X147180Y625000D01*
X146840Y628860D01*
X145840Y632580D01*
X144200Y636100D01*
X141980Y639260D01*
X139260Y642000D01*
X136080Y644220D01*
X132580Y645840D01*
X128840Y646840D01*
X125000Y647180D01*
X121140Y646840D01*
X117400Y645840D01*
X116519Y645440D01*
X114960Y645060D01*
X113379Y645320D01*
X112040Y646180D01*
X111140Y647500D01*
X110820Y649060D01*
X110820Y658760D01*
X111199Y660440D01*
X112240Y661820D01*
X113780Y662620D01*
X115520Y662700D01*
X117120Y662039D01*
X118900Y660780D01*
X122400Y659160D01*
X126140Y658160D01*
X130000Y657820D01*
X133840Y658160D01*
X137580Y659160D01*
X141080Y660780D01*
X144260Y663000D01*
X146980Y665740D01*
X149200Y668900D01*
X150840Y672420D01*
X151840Y676140D01*
X152180Y680000D01*
X151840Y683860D01*
X150840Y687580D01*
X149200Y691100D01*
X146980Y694260D01*
X144260Y697000D01*
X143660Y697400D01*
X142520Y698640D01*
X141980Y700220D01*
X142140Y701880D01*
X142960Y703340D01*
X144320Y704340D01*
X145960Y704680D01*
X434000Y704680D01*
X435540Y704380D01*
X436840Y703520D01*
X437700Y702220D01*
X438000Y700680D01*
X438000Y697820D01*
X438280Y695340D01*
X439040Y693180D01*
X440240Y691260D01*
X441860Y689640D01*
X443780Y688439D01*
X447340Y687260D01*
X448480Y686360D01*
X449240Y685120D01*
X449500Y683700D01*
X449500Y625200D01*
X449200Y623680D01*
X448340Y622380D01*
X399300Y573340D01*
X397260Y570860D01*
X395860Y568220D01*
X394980Y565360D01*
X394680Y562180D01*
X394680Y561140D01*
X394340Y559520D01*
X393380Y558200D01*
X391960Y557360D01*
X386140Y556840D01*
X382400Y555840D01*
X378900Y554220D01*
X375720Y552000D01*
X373000Y549260D01*
X370780Y546100D01*
X369140Y542580D01*
X368140Y538860D01*
X367800Y535000D01*
X368140Y531140D01*
X369140Y527420D01*
X370780Y523900D01*
X373000Y520740D01*
X375840Y517900D01*
X376700Y516599D01*
X377020Y515060D01*
X376700Y513540D01*
X375840Y512239D01*
X374540Y511380D01*
X373020Y511060D01*
X369980Y511060D01*
X367500Y510780D01*
X365340Y510040D01*
X363420Y508820D01*
X361800Y507200D01*
X360580Y505280D01*
X359840Y503140D01*
X359560Y500640D01*
X359560Y359360D01*
X359840Y356860D01*
X360580Y354720D01*
X361800Y352800D01*
X363420Y351180D01*
X365340Y349960D01*
X367500Y349219D01*
X369980Y348940D01*
X466780Y348940D01*
X469260Y349219D01*
X471420Y349960D01*
X473340Y351180D01*
X474960Y352800D01*
X476160Y354720D01*
X476920Y356860D01*
X477200Y359360D01*
X477200Y400800D01*
X477500Y402340D01*
X478380Y403620D01*
X479660Y404500D01*
X481200Y404799D01*
X582940Y404799D01*
X584460Y404500D01*
X585760Y403620D01*
X586640Y402760D01*
X588560Y401540D01*
X590720Y400780D01*
X593200Y400500D01*
X682180Y400500D01*
X683720Y400200D01*
X685020Y399340D01*
X687080Y397260D01*
X689580Y395060D01*
X690280Y394540D01*
X693080Y392800D01*
X693860Y392400D01*
X696880Y391140D01*
X697720Y390880D01*
X701800Y390000D01*
X705120Y389799D01*
X712800Y389799D01*
X714340Y389500D01*
X715639Y388620D01*
X716500Y387340D01*
X716800Y385800D01*
X716500Y384260D01*
X715639Y382980D01*
X714640Y381980D01*
X713420Y380040D01*
X712660Y377900D01*
X712380Y375400D01*
X712380Y368640D01*
X712080Y367120D01*
X711220Y365820D01*
X709920Y364960D01*
X708379Y364640D01*
X700280Y364640D01*
X698740Y364960D01*
X697440Y365820D01*
X696580Y366700D01*
X694640Y367900D01*
X692500Y368660D01*
X690000Y368940D01*
X593200Y368940D01*
X590720Y368660D01*
X588560Y367900D01*
X586640Y366700D01*
X585020Y365080D01*
X583820Y363160D01*
X583060Y361000D01*
X582780Y358519D01*
X582780Y354200D01*
X582480Y352660D01*
X581620Y351380D01*
X580320Y350500D01*
X578780Y350200D01*
X525480Y350200D01*
X521180Y349840D01*
X517140Y348820D01*
X513340Y347160D01*
X509860Y344880D01*
X506780Y342060D01*
X504240Y338780D01*
X502260Y335120D01*
X500900Y331180D01*
X500220Y327080D01*
X500220Y322920D01*
X500900Y318820D01*
X502260Y314880D01*
X504240Y311220D01*
X506780Y307940D01*
X507660Y307140D01*
X508579Y305860D01*
X508940Y304320D01*
X508680Y302740D01*
X507819Y301420D01*
X506500Y300520D01*
X504940Y300200D01*
G37*

%LPD*%
G36*
X213760Y75200D02*
G01*
X212180Y75520D01*
X210880Y76420D01*
X210020Y77760D01*
X209760Y79340D01*
X210120Y80900D01*
X210840Y82420D01*
X211840Y86140D01*
X212180Y90000D01*
X211840Y93859D01*
X210840Y97579D01*
X209200Y101100D01*
X206980Y104260D01*
X206360Y104880D01*
X205500Y106180D01*
X205200Y107720D01*
X205200Y124480D01*
X204880Y127640D01*
X204020Y130480D01*
X202620Y133120D01*
X200600Y135560D01*
X195900Y140280D01*
X195020Y141560D01*
X194720Y143100D01*
X194720Y155520D01*
X194440Y158020D01*
X193700Y160159D01*
X192480Y162100D01*
X190859Y163700D01*
X189480Y164740D01*
X188880Y165600D01*
X187240Y168740D01*
X185240Y171180D01*
X111980Y244520D01*
X111120Y245820D01*
X110820Y247340D01*
X110820Y488020D01*
X111120Y489540D01*
X112000Y490840D01*
X113280Y491719D01*
X114820Y492020D01*
X116359Y491719D01*
X117640Y490840D01*
X334099Y274400D01*
X336560Y272380D01*
X339180Y270980D01*
X342020Y270120D01*
X345180Y269800D01*
X570040Y269800D01*
X571580Y269500D01*
X572880Y268620D01*
X573740Y267340D01*
X574040Y265800D01*
X574040Y265060D01*
X574320Y262580D01*
X575080Y260420D01*
X576280Y258500D01*
X576960Y257820D01*
X577820Y256520D01*
X578120Y255000D01*
X577820Y253460D01*
X576960Y252160D01*
X576280Y251500D01*
X575080Y249560D01*
X574320Y247420D01*
X574040Y244920D01*
X574040Y225700D01*
X574320Y223200D01*
X575080Y221060D01*
X576280Y219120D01*
X577900Y217520D01*
X579820Y216300D01*
X581980Y215539D01*
X584460Y215260D01*
X615520Y215260D01*
X618000Y215539D01*
X620160Y216300D01*
X622080Y217520D01*
X623520Y218939D01*
X624800Y219800D01*
X626340Y220120D01*
X627480Y220120D01*
X629120Y219760D01*
X630460Y218780D01*
X631280Y217320D01*
X631440Y215640D01*
X630980Y211360D01*
X634260Y211360D01*
X635360Y211200D01*
X637100Y210300D01*
X638300Y209120D01*
X638920Y207560D01*
X638820Y205859D01*
X638040Y204360D01*
X636720Y203320D01*
X635080Y202920D01*
X539760Y200200D01*
X536860Y199680D01*
X534580Y198640D01*
X473180Y162100D01*
X471680Y161580D01*
X470080Y161700D01*
X468640Y162420D01*
X467620Y163660D01*
X467160Y165200D01*
X466840Y168860D01*
X465840Y172580D01*
X464200Y176100D01*
X461980Y179259D01*
X459260Y182000D01*
X456079Y184220D01*
X452580Y185840D01*
X448840Y186840D01*
X445000Y187180D01*
X441140Y186840D01*
X437400Y185840D01*
X433900Y184220D01*
X430720Y182000D01*
X428000Y179259D01*
X425780Y176100D01*
X424140Y172580D01*
X423380Y170260D01*
X422760Y169440D01*
X410220Y156700D01*
X408920Y155820D01*
X407380Y155500D01*
X341340Y155500D01*
X339820Y155800D01*
X338519Y156680D01*
X338020Y157160D01*
X337160Y158460D01*
X336860Y160000D01*
X337160Y161520D01*
X338020Y162820D01*
X338700Y163500D01*
X339900Y165420D01*
X340660Y167580D01*
X340940Y170060D01*
X340940Y172260D01*
X325360Y172260D01*
X325360Y164360D01*
X325060Y162820D01*
X324200Y161520D01*
X322900Y160660D01*
X321360Y160360D01*
X308620Y160360D01*
X307080Y160660D01*
X305780Y161520D01*
X304920Y162820D01*
X304620Y164360D01*
X304620Y172260D01*
X289040Y172260D01*
X289040Y170060D01*
X289320Y167580D01*
X290080Y165420D01*
X291280Y163500D01*
X291960Y162820D01*
X292820Y161520D01*
X293120Y160000D01*
X292820Y158460D01*
X291960Y157160D01*
X291160Y156380D01*
X289860Y155500D01*
X288340Y155200D01*
X277700Y155200D01*
X276180Y155500D01*
X274880Y156380D01*
X274260Y157000D01*
X271080Y159220D01*
X267580Y160840D01*
X263840Y161840D01*
X260000Y162180D01*
X256140Y161840D01*
X252399Y160840D01*
X248900Y159220D01*
X245720Y157000D01*
X243000Y154260D01*
X240780Y151100D01*
X239140Y147580D01*
X238140Y143860D01*
X237800Y140000D01*
X238140Y136140D01*
X239140Y132420D01*
X240780Y128900D01*
X243000Y125740D01*
X245720Y123000D01*
X248900Y120780D01*
X252399Y119160D01*
X256140Y118160D01*
X260000Y117820D01*
X263840Y118160D01*
X267580Y119160D01*
X271080Y120780D01*
X274260Y123000D01*
X274880Y123620D01*
X276180Y124500D01*
X277700Y124800D01*
X288960Y124800D01*
X290480Y124500D01*
X291780Y123620D01*
X292900Y122520D01*
X294820Y121300D01*
X296980Y120540D01*
X299460Y120260D01*
X330520Y120260D01*
X333000Y120540D01*
X335160Y121300D01*
X337080Y122520D01*
X338500Y123920D01*
X339799Y124800D01*
X341320Y125100D01*
X396480Y125100D01*
X398160Y124720D01*
X399520Y123680D01*
X400340Y122160D01*
X400420Y120440D01*
X399780Y118840D01*
X398519Y117660D01*
X328140Y75760D01*
X327140Y75340D01*
X326079Y75200D01*
G37*

%LPC*%
G36*
X289040Y187100D02*
G01*
X304620Y187100D01*
X304620Y199720D01*
X299460Y199720D01*
X296980Y199440D01*
X294820Y198680D01*
X292900Y197480D01*
X291280Y195859D01*
X290080Y193939D01*
X289320Y191780D01*
X289040Y189300D01*
G37*
G36*
X325360Y187100D02*
G01*
X340940Y187100D01*
X340940Y189300D01*
X340660Y191780D01*
X339900Y193939D01*
X338700Y195859D01*
X337080Y197480D01*
X335160Y198680D01*
X333000Y199440D01*
X330520Y199720D01*
X325360Y199720D01*
G37*

%LPD*%
G36*
X-135840Y35000D02*
G01*
X-137400Y35260D01*
X-138760Y36120D01*
X-139660Y37440D01*
X-139980Y39000D01*
X-139980Y66200D01*
X-140180Y71720D01*
X-140340Y73340D01*
X-141100Y78760D01*
X-141400Y80360D01*
X-142720Y85700D01*
X-143180Y87260D01*
X-145020Y92420D01*
X-145640Y93920D01*
X-148000Y98880D01*
X-148760Y100320D01*
X-151600Y105000D01*
X-152520Y106340D01*
X-155820Y110740D01*
X-156860Y111980D01*
X-160620Y116020D01*
X-236439Y191840D01*
X-241800Y196680D01*
X-247520Y200900D01*
X-253640Y204500D01*
X-260120Y207460D01*
X-262040Y208120D01*
X-263440Y208939D01*
X-264380Y210240D01*
X-264740Y211820D01*
X-264460Y213400D01*
X-263580Y214740D01*
X36100Y514400D01*
X37440Y515300D01*
X39040Y515580D01*
X40620Y515200D01*
X41900Y514240D01*
X42720Y512840D01*
X42900Y511240D01*
X42800Y510000D01*
X43140Y506140D01*
X44140Y502400D01*
X45780Y498900D01*
X47980Y495740D01*
X50720Y493000D01*
X53900Y490780D01*
X57400Y489140D01*
X61140Y488140D01*
X65000Y487800D01*
X68840Y488140D01*
X72580Y489140D01*
X74720Y490140D01*
X76280Y490520D01*
X77860Y490260D01*
X79200Y489400D01*
X80100Y488080D01*
X80420Y486520D01*
X80420Y239600D01*
X80719Y236439D01*
X81600Y233600D01*
X83000Y230980D01*
X85000Y228520D01*
X141560Y171880D01*
X142420Y170600D01*
X142740Y169060D01*
X142740Y150380D01*
X150640Y150380D01*
X152160Y150060D01*
X153460Y149200D01*
X154340Y147900D01*
X154640Y146380D01*
X154640Y133620D01*
X154340Y132100D01*
X153460Y130800D01*
X152160Y129940D01*
X150640Y129620D01*
X142740Y129620D01*
X142740Y114060D01*
X144920Y114060D01*
X147420Y114340D01*
X149560Y115079D01*
X151500Y116300D01*
X152160Y116960D01*
X153460Y117840D01*
X155000Y118140D01*
X156520Y117840D01*
X157820Y116960D01*
X158500Y116300D01*
X160420Y115079D01*
X162580Y114340D01*
X165060Y114060D01*
X170799Y114060D01*
X172320Y113740D01*
X173619Y112880D01*
X174480Y111580D01*
X174800Y110060D01*
X174800Y107720D01*
X174480Y106180D01*
X173619Y104880D01*
X173000Y104260D01*
X170780Y101100D01*
X169140Y97579D01*
X168140Y93859D01*
X167800Y90000D01*
X168140Y86140D01*
X169140Y82420D01*
X169860Y80900D01*
X170219Y79340D01*
X169960Y77760D01*
X169100Y76420D01*
X167800Y75520D01*
X166220Y75200D01*
X35080Y75200D01*
X26900Y74840D01*
X18880Y73740D01*
X11000Y71940D01*
X6220Y70400D01*
X4980Y70200D01*
X-94900Y70200D01*
X-97280Y69940D01*
X-99440Y69180D01*
X-101359Y67960D01*
X-102300Y67140D01*
X-132140Y37300D01*
X-133000Y36340D01*
X-134280Y35380D01*
G37*

%LPC*%
G36*
X115260Y150380D02*
G01*
X127880Y150380D01*
X127880Y165940D01*
X125700Y165940D01*
X123200Y165660D01*
X121060Y164920D01*
X119120Y163700D01*
X117520Y162100D01*
X116300Y160159D01*
X115540Y158020D01*
X115260Y155520D01*
G37*
G36*
X125700Y114060D02*
G01*
X127880Y114060D01*
X127880Y129620D01*
X115260Y129620D01*
X115260Y124480D01*
X115540Y121980D01*
X116300Y119840D01*
X117520Y117899D01*
X119120Y116300D01*
X121060Y115079D01*
X123200Y114340D01*
G37*

%LPD*%
G36*
X751940Y-100000D02*
G01*
X750759Y-99820D01*
X749659Y-99280D01*
X748780Y-98460D01*
X715840Y-56080D01*
X715200Y-54920D01*
X715000Y-53620D01*
X715000Y110180D01*
X715220Y111500D01*
X715860Y112660D01*
X717400Y113900D01*
X719000Y115500D01*
X720220Y117440D01*
X720980Y119580D01*
X721260Y122080D01*
X721260Y171000D01*
X721560Y172540D01*
X722420Y173820D01*
X723720Y174700D01*
X725260Y175000D01*
X813060Y175000D01*
X814800Y174600D01*
X816200Y173500D01*
X934120Y26100D01*
X934760Y24920D01*
X935000Y23600D01*
X935000Y-96000D01*
X934680Y-97540D01*
X933820Y-98820D01*
X932520Y-99700D01*
X931000Y-100000D01*
G37*

%LPD*%
G36*
X249000Y-209800D02*
G01*
X247460Y-209500D01*
X246160Y-208619D01*
X245300Y-207340D01*
X245000Y-205799D01*
X245000Y-73240D01*
X245219Y-71900D01*
X245880Y-70720D01*
X246900Y-69820D01*
X248160Y-69320D01*
X333720Y-51180D01*
X330200Y-40620D01*
X330000Y-39360D01*
X330000Y62720D01*
X330220Y64080D01*
X330900Y65260D01*
X331940Y66160D01*
X539100Y189460D01*
X540020Y189880D01*
X541020Y190020D01*
X568020Y190799D01*
X569280Y190700D01*
X636440Y190700D01*
X637760Y190479D01*
X638900Y190080D01*
X641400Y189800D01*
X674419Y189800D01*
X676900Y190080D01*
X679060Y190840D01*
X680980Y192040D01*
X681900Y192960D01*
X683139Y193800D01*
X684599Y194140D01*
X710879Y194880D01*
X712440Y194620D01*
X713780Y193760D01*
X714680Y192440D01*
X715000Y190880D01*
X715000Y188540D01*
X714659Y186960D01*
X713720Y185620D01*
X712320Y184780D01*
X710580Y184160D01*
X708640Y182960D01*
X707039Y181340D01*
X705819Y179420D01*
X705080Y177260D01*
X704800Y174780D01*
X704800Y72080D01*
X704539Y70660D01*
X703780Y69440D01*
X702640Y68540D01*
X410000Y-84540D01*
X410000Y-118859D01*
X409760Y-120180D01*
X409120Y-121359D01*
X408120Y-122240D01*
X406840Y-123040D01*
X405220Y-124660D01*
X404020Y-126580D01*
X403260Y-128740D01*
X402980Y-131220D01*
X402980Y-193780D01*
X403260Y-196260D01*
X404020Y-198420D01*
X405220Y-200340D01*
X406840Y-201960D01*
X407580Y-202420D01*
X408800Y-203600D01*
X409400Y-205200D01*
X409280Y-206900D01*
X408480Y-208400D01*
X407120Y-209440D01*
X405439Y-209800D01*
G37*

%LPD*%
G36*
X203400Y-211820D02*
G01*
X201800Y-211740D01*
X200360Y-211060D01*
X199300Y-209840D01*
X198800Y-208320D01*
X198700Y-207320D01*
X197940Y-205180D01*
X196720Y-203240D01*
X195120Y-201640D01*
X193180Y-200420D01*
X191040Y-199680D01*
X188540Y-199400D01*
X163340Y-199400D01*
X161800Y-199080D01*
X160500Y-198220D01*
X139720Y-177440D01*
X138860Y-176140D01*
X138540Y-174600D01*
X138860Y-173080D01*
X139720Y-171780D01*
X141020Y-170920D01*
X142540Y-170600D01*
X151140Y-170600D01*
X153640Y-170320D01*
X155780Y-169579D01*
X157720Y-168359D01*
X159320Y-166759D01*
X160539Y-164820D01*
X161300Y-162680D01*
X161580Y-160180D01*
X161580Y-151180D01*
X161960Y-149460D01*
X163039Y-148080D01*
X165080Y-146420D01*
X173200Y-138280D01*
X174340Y-137480D01*
X175680Y-137120D01*
X178840Y-136840D01*
X182580Y-135840D01*
X186080Y-134220D01*
X189259Y-132000D01*
X191980Y-129260D01*
X194200Y-126100D01*
X195500Y-123300D01*
X196380Y-122080D01*
X197659Y-121280D01*
X199120Y-121000D01*
X203000Y-121000D01*
X203000Y-109200D01*
X203299Y-107660D01*
X204180Y-106380D01*
X205479Y-105500D01*
X207000Y-105200D01*
X217780Y-105200D01*
X219320Y-105500D01*
X220600Y-106380D01*
X221480Y-107660D01*
X221780Y-109200D01*
X221780Y-121000D01*
X230799Y-121000D01*
X232320Y-121300D01*
X233619Y-122160D01*
X234480Y-123460D01*
X234800Y-125000D01*
X234800Y-146600D01*
X234480Y-148140D01*
X233619Y-149440D01*
X232320Y-150300D01*
X230799Y-150600D01*
X221780Y-150600D01*
X221780Y-170600D01*
X225940Y-170600D01*
X228440Y-170320D01*
X229460Y-169960D01*
X230980Y-169740D01*
X232440Y-170100D01*
X233680Y-170980D01*
X234500Y-172260D01*
X234800Y-173740D01*
X234800Y-205799D01*
X234480Y-207340D01*
X233619Y-208619D01*
X232320Y-209500D01*
X230799Y-209800D01*
X210219Y-209800D01*
X207719Y-210080D01*
X205580Y-210840D01*
X204899Y-211260D01*
G37*

%LPC*%
G36*
X198840Y-170600D02*
G01*
X203000Y-170600D01*
X203000Y-150600D01*
X188420Y-150600D01*
X188420Y-160180D01*
X188700Y-162680D01*
X189440Y-164820D01*
X190660Y-166759D01*
X192260Y-168359D01*
X194200Y-169579D01*
X196340Y-170320D01*
G37*

%LPD*%
G36*
X-109080Y-220000D02*
G01*
X-110600Y-219700D01*
X-111900Y-218820D01*
X-123840Y-206900D01*
X-124700Y-205600D01*
X-125000Y-204060D01*
X-125000Y28340D01*
X-124700Y29880D01*
X-123840Y31180D01*
X-96180Y58820D01*
X-94880Y59700D01*
X-93360Y60000D01*
X166000Y60000D01*
X167520Y59700D01*
X168820Y58820D01*
X169680Y57539D01*
X170000Y56000D01*
X170000Y-78340D01*
X169680Y-79880D01*
X168820Y-81180D01*
X151160Y-98820D01*
X149860Y-99700D01*
X148340Y-100000D01*
X80380Y-100000D01*
X79720Y-100280D01*
X40279Y-139720D01*
X39180Y-140500D01*
X37900Y-140860D01*
X35920Y-141080D01*
X33760Y-141840D01*
X31840Y-143040D01*
X30219Y-144660D01*
X29020Y-146580D01*
X28260Y-148740D01*
X27980Y-151220D01*
X27980Y-213780D01*
X28180Y-215560D01*
X28020Y-217220D01*
X27180Y-218660D01*
X25840Y-219660D01*
X24200Y-220000D01*
G37*

%LPD*%
G36*
X-208359Y-580000D02*
G01*
X-209880Y-579700D01*
X-211180Y-578820D01*
X-253840Y-536180D01*
X-254700Y-534880D01*
X-255000Y-533340D01*
X-255000Y-474960D01*
X-252580Y-363020D01*
X-252420Y-362000D01*
X-252020Y-361060D01*
X-250280Y-358120D01*
X-248180Y-353180D01*
X-246759Y-348000D01*
X-246040Y-342680D01*
X-246040Y-337320D01*
X-246759Y-332000D01*
X-248180Y-326820D01*
X-250280Y-321880D01*
X-251040Y-320580D01*
X-251480Y-319560D01*
X-251600Y-318460D01*
X-250100Y-248920D01*
X-249760Y-247399D01*
X-248900Y-246140D01*
X-247600Y-245300D01*
X-246100Y-245000D01*
X66860Y-245000D01*
X68400Y-245300D01*
X69700Y-246180D01*
X73820Y-250300D01*
X74680Y-251600D01*
X75000Y-253120D01*
X75000Y-428080D01*
X74600Y-429820D01*
X73480Y-431200D01*
X26080Y-469120D01*
X24920Y-469780D01*
X23580Y-470000D01*
X-54440Y-470000D01*
X-55240Y-470319D01*
X-56940Y-472700D01*
X-57640Y-473459D01*
X-58540Y-474020D01*
X-63220Y-476120D01*
X-68340Y-479219D01*
X-73040Y-482900D01*
X-77280Y-487140D01*
X-80960Y-491840D01*
X-84060Y-496960D01*
X-86519Y-502420D01*
X-88300Y-508140D01*
X-89380Y-514020D01*
X-89740Y-520000D01*
X-89380Y-525980D01*
X-88300Y-531860D01*
X-86519Y-537580D01*
X-84060Y-543040D01*
X-80220Y-549460D01*
X-80000Y-550760D01*
X-80000Y-576000D01*
X-80320Y-577540D01*
X-81180Y-578820D01*
X-82480Y-579700D01*
X-84000Y-580000D01*
G37*

%LPD*%
G36*
X224000Y-585000D02*
G01*
X222460Y-584700D01*
X221160Y-583820D01*
X220300Y-582540D01*
X220000Y-581000D01*
X220000Y-550300D01*
X220140Y-549220D01*
X220560Y-548220D01*
X223700Y-543040D01*
X226160Y-537580D01*
X227940Y-531860D01*
X229020Y-525980D01*
X229380Y-520000D01*
X229020Y-514020D01*
X227940Y-508140D01*
X226160Y-502420D01*
X223700Y-496960D01*
X220560Y-491780D01*
X220140Y-490780D01*
X220000Y-489700D01*
X220000Y-465400D01*
X219720Y-464720D01*
X211160Y-456180D01*
X210300Y-454880D01*
X210000Y-453340D01*
X210000Y-224000D01*
X210300Y-222460D01*
X211160Y-221180D01*
X212460Y-220300D01*
X214000Y-220000D01*
X392960Y-220000D01*
X395180Y-220200D01*
X437040Y-220200D01*
X438560Y-220500D01*
X439860Y-221380D01*
X458820Y-240320D01*
X459680Y-241620D01*
X460000Y-243160D01*
X460000Y-413340D01*
X459680Y-414880D01*
X458820Y-416180D01*
X360260Y-514720D01*
X360000Y-515400D01*
X360000Y-578340D01*
X359680Y-579880D01*
X358820Y-581180D01*
X356160Y-583820D01*
X354860Y-584700D01*
X353340Y-585000D01*
G37*

%LPD*%
G36*
X-1440980Y-643800D02*
G01*
X-1442520Y-643500D01*
X-1443800Y-642620D01*
X-1444680Y-641340D01*
X-1444980Y-639800D01*
X-1444980Y-624100D01*
X-1444640Y-622480D01*
X-1443660Y-621140D01*
X-1442240Y-620300D01*
X-1440580Y-620120D01*
X-1439780Y-620200D01*
X-1030180Y-620200D01*
X-1027020Y-619880D01*
X-1024180Y-619020D01*
X-1021540Y-617620D01*
X-1019100Y-615620D01*
X-1003840Y-600280D01*
X-1002840Y-599560D01*
X-996160Y-597500D01*
X-991280Y-595240D01*
X-986760Y-592360D01*
X-982660Y-588900D01*
X-979060Y-584900D01*
X-976020Y-580480D01*
X-974860Y-578180D01*
X-973780Y-576860D01*
X-972260Y-576100D01*
X-971580Y-576080D01*
X-972240Y-575160D01*
X-972600Y-573680D01*
X-972380Y-572180D01*
X-971840Y-570620D01*
X-970759Y-565360D01*
X-970400Y-560000D01*
X-970759Y-554640D01*
X-971840Y-549380D01*
X-972380Y-547820D01*
X-972600Y-546320D01*
X-972240Y-544840D01*
X-971580Y-543920D01*
X-972260Y-543900D01*
X-973780Y-543140D01*
X-974860Y-541820D01*
X-976020Y-539520D01*
X-979060Y-535100D01*
X-982660Y-531100D01*
X-986760Y-527640D01*
X-991280Y-524760D01*
X-996160Y-522500D01*
X-1001280Y-520900D01*
X-1006580Y-520020D01*
X-1011940Y-519840D01*
X-1017280Y-520360D01*
X-1022500Y-521620D01*
X-1027520Y-523540D01*
X-1032220Y-526120D01*
X-1036540Y-529300D01*
X-1040400Y-533040D01*
X-1043740Y-537260D01*
X-1046580Y-542060D01*
X-1047740Y-543300D01*
X-1049300Y-543960D01*
X-1051000Y-543900D01*
X-1052520Y-543140D01*
X-1053600Y-541820D01*
X-1054760Y-539520D01*
X-1057800Y-535100D01*
X-1061400Y-531100D01*
X-1065500Y-527640D01*
X-1070020Y-524760D01*
X-1071860Y-523900D01*
X-1073080Y-523020D01*
X-1073900Y-521760D01*
X-1074180Y-520280D01*
X-1074180Y-505200D01*
X-1074500Y-502040D01*
X-1075360Y-499200D01*
X-1076760Y-496560D01*
X-1078640Y-494260D01*
X-1080940Y-492380D01*
X-1083580Y-490980D01*
X-1086420Y-490120D01*
X-1089580Y-489799D01*
X-1162020Y-489799D01*
X-1163560Y-489500D01*
X-1164860Y-488620D01*
X-1264100Y-389400D01*
X-1266540Y-387380D01*
X-1269180Y-385980D01*
X-1272020Y-385120D01*
X-1275180Y-384799D01*
X-1341920Y-384799D01*
X-1343620Y-384420D01*
X-1344640Y-383640D01*
X-1345920Y-384500D01*
X-1347460Y-384799D01*
X-1374460Y-384799D01*
X-1375980Y-384500D01*
X-1377140Y-383720D01*
X-1378320Y-384500D01*
X-1379840Y-384799D01*
X-1385780Y-384799D01*
X-1387320Y-384500D01*
X-1388600Y-383620D01*
X-1389480Y-382340D01*
X-1389780Y-380800D01*
X-1389780Y-377420D01*
X-1389420Y-375760D01*
X-1388400Y-374400D01*
X-1386920Y-373579D01*
X-1385220Y-373459D01*
X-1383620Y-374040D01*
X-1380260Y-376200D01*
X-1378460Y-377040D01*
X-1378460Y-358440D01*
X-1385780Y-358440D01*
X-1387320Y-358140D01*
X-1388600Y-357280D01*
X-1389480Y-355980D01*
X-1389780Y-354440D01*
X-1389780Y-327440D01*
X-1389480Y-325920D01*
X-1388600Y-324620D01*
X-1387320Y-323740D01*
X-1385780Y-323440D01*
X-1378460Y-323440D01*
X-1378460Y-304860D01*
X-1380260Y-305700D01*
X-1383620Y-307840D01*
X-1385220Y-308440D01*
X-1386920Y-308300D01*
X-1388400Y-307500D01*
X-1389420Y-306140D01*
X-1389780Y-304480D01*
X-1389780Y-112960D01*
X-1389480Y-111420D01*
X-1388600Y-110120D01*
X-1373899Y-95399D01*
X-1372540Y-94520D01*
X-1370940Y-94240D01*
X-1369379Y-94620D01*
X-1368080Y-95580D01*
X-1367260Y-96980D01*
X-1367080Y-98580D01*
X-1367200Y-100000D01*
X-1366860Y-103859D01*
X-1365860Y-107600D01*
X-1364220Y-111100D01*
X-1362020Y-114260D01*
X-1359280Y-117000D01*
X-1356100Y-119220D01*
X-1352600Y-120860D01*
X-1348860Y-121860D01*
X-1345000Y-122200D01*
X-1341160Y-121860D01*
X-1337420Y-120860D01*
X-1333920Y-119220D01*
X-1330740Y-117000D01*
X-1328000Y-114260D01*
X-1325800Y-111100D01*
X-1324160Y-107600D01*
X-1323160Y-103859D01*
X-1322880Y-100680D01*
X-1322520Y-99340D01*
X-1321720Y-98200D01*
X-1259380Y-35860D01*
X-1257360Y-33400D01*
X-1255960Y-30780D01*
X-1255100Y-27940D01*
X-1254780Y-24780D01*
X-1254780Y664800D01*
X-1255100Y667960D01*
X-1255960Y670800D01*
X-1257360Y673439D01*
X-1259240Y675740D01*
X-1261540Y677620D01*
X-1264180Y679020D01*
X-1267020Y679880D01*
X-1270180Y680200D01*
X-1429780Y680200D01*
X-1432940Y679880D01*
X-1435780Y679020D01*
X-1439760Y676880D01*
X-1441240Y676700D01*
X-1442700Y677080D01*
X-1443899Y677960D01*
X-1444700Y679220D01*
X-1444980Y680699D01*
X-1444980Y915800D01*
X-1444680Y917340D01*
X-1443800Y918620D01*
X-1442520Y919500D01*
X-1440980Y919800D01*
X-1096920Y919800D01*
X-1095380Y919500D01*
X-1094060Y918620D01*
X-1093200Y917300D01*
X-1092920Y915740D01*
X-1093240Y914220D01*
X-1094140Y912920D01*
X-1097300Y909860D01*
X-1100080Y906240D01*
X-1102260Y902220D01*
X-1103820Y897900D01*
X-1104680Y893420D01*
X-1104860Y888840D01*
X-1104340Y884300D01*
X-1103120Y879900D01*
X-1101240Y875720D01*
X-1098760Y871880D01*
X-1095720Y868460D01*
X-1092200Y865560D01*
X-1088260Y863220D01*
X-1084020Y861520D01*
X-1079560Y860460D01*
X-1075000Y860120D01*
X-1070440Y860460D01*
X-1066000Y861520D01*
X-1061760Y863220D01*
X-1057820Y865560D01*
X-1054300Y868460D01*
X-1051240Y871880D01*
X-1050620Y872860D01*
X-1049720Y873840D01*
X-1048560Y874460D01*
X-1047260Y874680D01*
X-809400Y874680D01*
X-806220Y875000D01*
X-803360Y875860D01*
X-800699Y877280D01*
X-798240Y879300D01*
X-702700Y974840D01*
X-701400Y975720D01*
X-699860Y976020D01*
X-674820Y976020D01*
X-672340Y976300D01*
X-670180Y977060D01*
X-668259Y978259D01*
X-666640Y979880D01*
X-665440Y981800D01*
X-664680Y983960D01*
X-664400Y986440D01*
X-664400Y1013560D01*
X-664680Y1016040D01*
X-665440Y1018199D01*
X-666640Y1020120D01*
X-668259Y1021740D01*
X-670180Y1022940D01*
X-672340Y1023700D01*
X-674820Y1023980D01*
X-723600Y1023980D01*
X-726080Y1023700D01*
X-728240Y1022940D01*
X-730160Y1021740D01*
X-731780Y1020120D01*
X-732980Y1018199D01*
X-733740Y1016040D01*
X-734020Y1013560D01*
X-734020Y988520D01*
X-734320Y986979D01*
X-735180Y985680D01*
X-814380Y906480D01*
X-815680Y905620D01*
X-817200Y905320D01*
X-1047260Y905320D01*
X-1048460Y905500D01*
X-1049560Y906040D01*
X-1050440Y906900D01*
X-1052700Y909860D01*
X-1055880Y912920D01*
X-1056760Y914220D01*
X-1057100Y915740D01*
X-1056800Y917300D01*
X-1055940Y918620D01*
X-1054640Y919500D01*
X-1053100Y919800D01*
X-865220Y919800D01*
X-862660Y920120D01*
X-860480Y920939D01*
X-858460Y922340D01*
X-857260Y923520D01*
X-856220Y924940D01*
X-855240Y927120D01*
X-854780Y930060D01*
X-854780Y1264760D01*
X-855100Y1267320D01*
X-855920Y1269500D01*
X-857320Y1271520D01*
X-858500Y1272720D01*
X-859920Y1273760D01*
X-862099Y1274740D01*
X-865040Y1275200D01*
X-1440980Y1275200D01*
X-1442520Y1275500D01*
X-1443800Y1276380D01*
X-1444680Y1277660D01*
X-1444980Y1279200D01*
X-1444980Y1565800D01*
X-1444680Y1567340D01*
X-1443800Y1568620D01*
X-1442520Y1569500D01*
X-1440980Y1569800D01*
X29040Y1569800D01*
X30560Y1569500D01*
X31860Y1568620D01*
X32740Y1567340D01*
X33040Y1565800D01*
X32740Y1564259D01*
X31860Y1562980D01*
X-1940Y1529160D01*
X-3160Y1528340D01*
X-4600Y1528000D01*
X-6060Y1528200D01*
X-9400Y1529340D01*
X-14680Y1530380D01*
X-20059Y1530740D01*
X-25440Y1530380D01*
X-30720Y1529340D01*
X-35820Y1527600D01*
X-40660Y1525220D01*
X-45140Y1522220D01*
X-49180Y1518680D01*
X-52740Y1514620D01*
X-55740Y1510140D01*
X-58120Y1505320D01*
X-59840Y1500220D01*
X-60900Y1494920D01*
X-61260Y1489540D01*
X-60900Y1484180D01*
X-59840Y1478880D01*
X-58120Y1473779D01*
X-55740Y1468959D01*
X-52740Y1464480D01*
X-49180Y1460420D01*
X-45519Y1457200D01*
X-44540Y1455920D01*
X-44160Y1454379D01*
X-44420Y1452800D01*
X-45260Y1451440D01*
X-46580Y1450520D01*
X-48160Y1450200D01*
X-91960Y1450200D01*
X-93539Y1450520D01*
X-94860Y1451440D01*
X-95700Y1452800D01*
X-95960Y1454379D01*
X-95559Y1455920D01*
X-94600Y1457200D01*
X-90940Y1460420D01*
X-87380Y1464480D01*
X-84380Y1468959D01*
X-82000Y1473779D01*
X-80280Y1478880D01*
X-79220Y1484180D01*
X-78860Y1489540D01*
X-79220Y1494920D01*
X-80280Y1500220D01*
X-82000Y1505320D01*
X-84380Y1510140D01*
X-87380Y1514620D01*
X-90940Y1518680D01*
X-94980Y1522220D01*
X-99460Y1525220D01*
X-104300Y1527600D01*
X-109400Y1529340D01*
X-114680Y1530380D01*
X-120060Y1530740D01*
X-125440Y1530380D01*
X-130719Y1529340D01*
X-135820Y1527600D01*
X-140660Y1525220D01*
X-145140Y1522220D01*
X-149180Y1518680D01*
X-152740Y1514620D01*
X-155740Y1510140D01*
X-158120Y1505320D01*
X-159840Y1500220D01*
X-160900Y1494920D01*
X-161260Y1489540D01*
X-160900Y1484180D01*
X-159840Y1478880D01*
X-158120Y1473779D01*
X-155740Y1468959D01*
X-152740Y1464480D01*
X-149180Y1460420D01*
X-145520Y1457200D01*
X-144540Y1455920D01*
X-144160Y1454379D01*
X-144420Y1452800D01*
X-145260Y1451440D01*
X-146580Y1450520D01*
X-148160Y1450200D01*
X-191960Y1450200D01*
X-193540Y1450520D01*
X-194860Y1451440D01*
X-195700Y1452800D01*
X-195960Y1454379D01*
X-195560Y1455920D01*
X-194600Y1457200D01*
X-190940Y1460420D01*
X-187380Y1464480D01*
X-184380Y1468959D01*
X-183100Y1471540D01*
X-202060Y1471540D01*
X-202060Y1454199D01*
X-202360Y1452660D01*
X-203240Y1451380D01*
X-204520Y1450500D01*
X-206060Y1450200D01*
X-234060Y1450200D01*
X-235580Y1450500D01*
X-236880Y1451380D01*
X-237760Y1452660D01*
X-238060Y1454199D01*
X-238060Y1471540D01*
X-257020Y1471540D01*
X-255740Y1468959D01*
X-252740Y1464480D01*
X-249180Y1460420D01*
X-245520Y1457200D01*
X-244540Y1455920D01*
X-244160Y1454379D01*
X-244420Y1452800D01*
X-245260Y1451440D01*
X-246580Y1450520D01*
X-248160Y1450200D01*
X-279820Y1450200D01*
X-282980Y1449880D01*
X-285820Y1449019D01*
X-288440Y1447620D01*
X-290900Y1445600D01*
X-306020Y1430480D01*
X-307080Y1429720D01*
X-308340Y1429340D01*
X-309640Y1429379D01*
X-314680Y1430380D01*
X-320060Y1430740D01*
X-325439Y1430380D01*
X-330720Y1429340D01*
X-335820Y1427600D01*
X-340660Y1425220D01*
X-345140Y1422220D01*
X-349360Y1418520D01*
X-350740Y1417740D01*
X-352299Y1417540D01*
X-353840Y1417980D01*
X-355060Y1418980D01*
X-357360Y1423440D01*
X-359380Y1425880D01*
X-379099Y1445600D01*
X-381540Y1447620D01*
X-384180Y1449019D01*
X-387020Y1449880D01*
X-390180Y1450200D01*
X-391960Y1450200D01*
X-393540Y1450520D01*
X-394860Y1451440D01*
X-395700Y1452800D01*
X-395959Y1454379D01*
X-395560Y1455920D01*
X-394600Y1457200D01*
X-390940Y1460420D01*
X-387380Y1464480D01*
X-384380Y1468959D01*
X-382000Y1473779D01*
X-380280Y1478880D01*
X-379219Y1484180D01*
X-378860Y1489540D01*
X-379219Y1494920D01*
X-380280Y1500220D01*
X-382000Y1505320D01*
X-384380Y1510140D01*
X-387380Y1514620D01*
X-390940Y1518680D01*
X-394980Y1522220D01*
X-399460Y1525220D01*
X-404300Y1527600D01*
X-409400Y1529340D01*
X-414680Y1530380D01*
X-420060Y1530740D01*
X-425439Y1530380D01*
X-430720Y1529340D01*
X-435820Y1527600D01*
X-440660Y1525220D01*
X-445140Y1522220D01*
X-449180Y1518680D01*
X-452520Y1514880D01*
X-453900Y1513860D01*
X-455600Y1513520D01*
X-457260Y1513899D01*
X-458620Y1514980D01*
X-459380Y1515880D01*
X-494099Y1550600D01*
X-496540Y1552620D01*
X-499180Y1554019D01*
X-502020Y1554880D01*
X-505180Y1555200D01*
X-669380Y1555200D01*
X-672520Y1554900D01*
X-675380Y1554040D01*
X-678000Y1552640D01*
X-680460Y1550620D01*
X-701960Y1529160D01*
X-703180Y1528340D01*
X-704599Y1528000D01*
X-706060Y1528200D01*
X-709400Y1529340D01*
X-714680Y1530380D01*
X-720060Y1530740D01*
X-725440Y1530380D01*
X-730720Y1529340D01*
X-735819Y1527600D01*
X-740660Y1525220D01*
X-745140Y1522220D01*
X-749180Y1518680D01*
X-752740Y1514620D01*
X-755740Y1510140D01*
X-758120Y1505320D01*
X-759840Y1500220D01*
X-760900Y1494920D01*
X-761260Y1489540D01*
X-760900Y1484180D01*
X-759840Y1478880D01*
X-758120Y1473779D01*
X-755740Y1468959D01*
X-752740Y1464480D01*
X-749180Y1460420D01*
X-745520Y1457200D01*
X-744539Y1455920D01*
X-744160Y1454379D01*
X-744419Y1452800D01*
X-745260Y1451440D01*
X-746580Y1450520D01*
X-748160Y1450200D01*
X-757560Y1450200D01*
X-759080Y1450500D01*
X-760380Y1451380D01*
X-780440Y1471440D01*
X-781280Y1472640D01*
X-781620Y1474079D01*
X-781400Y1475540D01*
X-780280Y1478880D01*
X-779220Y1484180D01*
X-778860Y1489540D01*
X-779220Y1494920D01*
X-780280Y1500220D01*
X-782000Y1505320D01*
X-784380Y1510140D01*
X-787380Y1514620D01*
X-790939Y1518680D01*
X-794980Y1522220D01*
X-799460Y1525220D01*
X-804300Y1527600D01*
X-809400Y1529340D01*
X-814680Y1530380D01*
X-820060Y1530740D01*
X-825440Y1530380D01*
X-830720Y1529340D01*
X-835819Y1527600D01*
X-840660Y1525220D01*
X-845140Y1522220D01*
X-849180Y1518680D01*
X-852740Y1514620D01*
X-855740Y1510140D01*
X-858120Y1505320D01*
X-859840Y1500220D01*
X-860900Y1494920D01*
X-861260Y1489540D01*
X-860900Y1484180D01*
X-859840Y1478880D01*
X-858120Y1473779D01*
X-855740Y1468959D01*
X-852740Y1464480D01*
X-849180Y1460420D01*
X-845140Y1456879D01*
X-840660Y1453880D01*
X-835819Y1451500D01*
X-830720Y1449760D01*
X-825440Y1448720D01*
X-820060Y1448360D01*
X-814680Y1448720D01*
X-809400Y1449760D01*
X-806060Y1450900D01*
X-804599Y1451100D01*
X-803160Y1450760D01*
X-801940Y1449940D01*
X-776400Y1424400D01*
X-773940Y1422380D01*
X-771320Y1420980D01*
X-768480Y1420120D01*
X-765320Y1419800D01*
X-756760Y1419800D01*
X-755080Y1419440D01*
X-753720Y1418400D01*
X-752920Y1416879D01*
X-752820Y1415180D01*
X-753439Y1413580D01*
X-755740Y1410140D01*
X-757020Y1407540D01*
X-738060Y1407540D01*
X-738060Y1415800D01*
X-737760Y1417340D01*
X-736880Y1418620D01*
X-735580Y1419500D01*
X-734060Y1419800D01*
X-706060Y1419800D01*
X-704520Y1419500D01*
X-703240Y1418620D01*
X-702360Y1417340D01*
X-702060Y1415800D01*
X-702060Y1407540D01*
X-683100Y1407540D01*
X-684380Y1410140D01*
X-686680Y1413580D01*
X-687300Y1415180D01*
X-687200Y1416879D01*
X-686400Y1418400D01*
X-685020Y1419440D01*
X-683360Y1419800D01*
X-656760Y1419800D01*
X-655080Y1419440D01*
X-653720Y1418400D01*
X-652920Y1416879D01*
X-652820Y1415180D01*
X-653439Y1413580D01*
X-655740Y1410140D01*
X-658120Y1405320D01*
X-659840Y1400220D01*
X-660900Y1394920D01*
X-661260Y1389540D01*
X-660900Y1384180D01*
X-659840Y1378880D01*
X-658720Y1375540D01*
X-658500Y1374079D01*
X-658840Y1372660D01*
X-659680Y1371440D01*
X-683620Y1347480D01*
X-685620Y1345040D01*
X-687039Y1342420D01*
X-687900Y1339560D01*
X-688199Y1336399D01*
X-688199Y1222440D01*
X-688439Y1221120D01*
X-689080Y1219940D01*
X-690080Y1219060D01*
X-691820Y1217960D01*
X-693439Y1216340D01*
X-694640Y1214420D01*
X-695400Y1212260D01*
X-695680Y1209780D01*
X-695680Y1204200D01*
X-695980Y1202660D01*
X-696860Y1201380D01*
X-698139Y1200500D01*
X-699680Y1200200D01*
X-739820Y1200200D01*
X-742980Y1199880D01*
X-745819Y1199020D01*
X-748439Y1197620D01*
X-750900Y1195600D01*
X-753220Y1193280D01*
X-754360Y1192480D01*
X-755699Y1192120D01*
X-758860Y1191840D01*
X-762600Y1190840D01*
X-766100Y1189220D01*
X-769280Y1187000D01*
X-772000Y1184260D01*
X-774220Y1181100D01*
X-775860Y1177580D01*
X-776860Y1173860D01*
X-777200Y1170000D01*
X-776860Y1166140D01*
X-775860Y1162420D01*
X-774220Y1158900D01*
X-772000Y1155740D01*
X-769280Y1153000D01*
X-766100Y1150780D01*
X-762600Y1149160D01*
X-758860Y1148160D01*
X-755000Y1147820D01*
X-751160Y1148160D01*
X-745759Y1149620D01*
X-744260Y1149420D01*
X-742960Y1148680D01*
X-742000Y1147520D01*
X-741560Y1146080D01*
X-741660Y1144580D01*
X-741860Y1143860D01*
X-742200Y1140000D01*
X-741860Y1136140D01*
X-740860Y1132420D01*
X-739220Y1128900D01*
X-737540Y1126500D01*
X-736880Y1124900D01*
X-736940Y1123160D01*
X-737740Y1121620D01*
X-739120Y1120580D01*
X-740800Y1120200D01*
X-742300Y1120200D01*
X-743820Y1120500D01*
X-745120Y1121380D01*
X-745740Y1122000D01*
X-748920Y1124220D01*
X-752420Y1125840D01*
X-756160Y1126840D01*
X-760000Y1127180D01*
X-763860Y1126840D01*
X-767600Y1125840D01*
X-771100Y1124220D01*
X-774280Y1122000D01*
X-777000Y1119260D01*
X-779220Y1116100D01*
X-780860Y1112580D01*
X-781860Y1108860D01*
X-782200Y1105000D01*
X-781860Y1101140D01*
X-780860Y1097420D01*
X-779220Y1093900D01*
X-778280Y1092560D01*
X-777660Y1091160D01*
X-777600Y1089640D01*
X-778120Y1088200D01*
X-779140Y1087080D01*
X-780520Y1086400D01*
X-782600Y1085840D01*
X-786100Y1084220D01*
X-789280Y1082000D01*
X-792000Y1079260D01*
X-794220Y1076100D01*
X-795860Y1072580D01*
X-796860Y1068860D01*
X-797200Y1065000D01*
X-796860Y1061140D01*
X-795860Y1057420D01*
X-794220Y1053900D01*
X-792000Y1050740D01*
X-789280Y1048000D01*
X-786100Y1045780D01*
X-782600Y1044160D01*
X-778860Y1043160D01*
X-775000Y1042820D01*
X-771160Y1043160D01*
X-767420Y1044160D01*
X-763920Y1045780D01*
X-760740Y1048000D01*
X-758020Y1050740D01*
X-756360Y1053100D01*
X-755480Y1054000D01*
X-754340Y1054600D01*
X-753100Y1054800D01*
X-639620Y1054800D01*
X-638080Y1054500D01*
X-636780Y1053620D01*
X-635920Y1052340D01*
X-635620Y1050800D01*
X-635620Y1023840D01*
X-635340Y1021360D01*
X-634580Y1019200D01*
X-633380Y1017280D01*
X-631760Y1015660D01*
X-629840Y1014460D01*
X-627680Y1013700D01*
X-625200Y1013420D01*
X-576420Y1013420D01*
X-573940Y1013700D01*
X-571780Y1014460D01*
X-569860Y1015660D01*
X-568240Y1017280D01*
X-566120Y1020800D01*
X-564800Y1021740D01*
X-563200Y1022080D01*
X-559760Y1022080D01*
X-558340Y1021820D01*
X-557100Y1021060D01*
X-556200Y1019920D01*
X-555780Y1018520D01*
X-555680Y1017580D01*
X-554920Y1015440D01*
X-553720Y1013500D01*
X-553040Y1012840D01*
X-552180Y1011540D01*
X-551880Y1010000D01*
X-552180Y1008480D01*
X-553040Y1007180D01*
X-553720Y1006500D01*
X-554920Y1004580D01*
X-555680Y1002420D01*
X-555960Y999940D01*
X-555960Y997740D01*
X-540380Y997740D01*
X-540380Y1005639D01*
X-540080Y1007180D01*
X-539220Y1008480D01*
X-537920Y1009340D01*
X-536380Y1009640D01*
X-523640Y1009640D01*
X-522100Y1009340D01*
X-520800Y1008480D01*
X-519940Y1007180D01*
X-519640Y1005639D01*
X-519640Y997740D01*
X-504060Y997740D01*
X-504060Y999940D01*
X-504340Y1002420D01*
X-505100Y1004580D01*
X-506300Y1006500D01*
X-506980Y1007180D01*
X-507840Y1008480D01*
X-508140Y1010000D01*
X-507840Y1011540D01*
X-506980Y1012840D01*
X-506300Y1013500D01*
X-505100Y1015440D01*
X-504340Y1017580D01*
X-504240Y1018520D01*
X-503820Y1019920D01*
X-502920Y1021060D01*
X-501680Y1021820D01*
X-500260Y1022080D01*
X-475379Y1022080D01*
X-473860Y1021780D01*
X-472560Y1020920D01*
X-449520Y997880D01*
X-448620Y996480D01*
X-448360Y994840D01*
X-448780Y993240D01*
X-449840Y991940D01*
X-451320Y991180D01*
X-452600Y990840D01*
X-456100Y989220D01*
X-459280Y987000D01*
X-462000Y984260D01*
X-464219Y981100D01*
X-465860Y977580D01*
X-466860Y973860D01*
X-467200Y970000D01*
X-466860Y966140D01*
X-465860Y962420D01*
X-464219Y958900D01*
X-462000Y955740D01*
X-459280Y953000D01*
X-456100Y950780D01*
X-452600Y949160D01*
X-448860Y948160D01*
X-445000Y947820D01*
X-441599Y948120D01*
X-439900Y947880D01*
X-438440Y946960D01*
X-400860Y909400D01*
X-398420Y907380D01*
X-395780Y905980D01*
X-392939Y905120D01*
X-389780Y904800D01*
X-292940Y904800D01*
X-291400Y904500D01*
X-290100Y903620D01*
X-283960Y897500D01*
X-283080Y896120D01*
X-282800Y894520D01*
X-283200Y892920D01*
X-284180Y891640D01*
X-285620Y890840D01*
X-287240Y890680D01*
X-288500Y890819D01*
X-305460Y890819D01*
X-305460Y863439D01*
X-278080Y863439D01*
X-278080Y874860D01*
X-277780Y876360D01*
X-276940Y877640D01*
X-275680Y878520D01*
X-274180Y878860D01*
X-272660Y878600D01*
X-271360Y877780D01*
X-270460Y876540D01*
X-269220Y873900D01*
X-267000Y870740D01*
X-264280Y868000D01*
X-261100Y865780D01*
X-257600Y864160D01*
X-253860Y863160D01*
X-250000Y862820D01*
X-246160Y863160D01*
X-242420Y864160D01*
X-238920Y865780D01*
X-235740Y868000D01*
X-233020Y870740D01*
X-230799Y873900D01*
X-229160Y877420D01*
X-228160Y881140D01*
X-228080Y882140D01*
X-227659Y883580D01*
X-226740Y884780D01*
X-225460Y885540D01*
X-223980Y885780D01*
X-222500Y885460D01*
X-221260Y884620D01*
X-170520Y833880D01*
X-169640Y832540D01*
X-169360Y830939D01*
X-169720Y829360D01*
X-170700Y828060D01*
X-172100Y827260D01*
X-173700Y827080D01*
X-175000Y827180D01*
X-178860Y826840D01*
X-182600Y825840D01*
X-186100Y824220D01*
X-189280Y822000D01*
X-192000Y819260D01*
X-194220Y816100D01*
X-195859Y812580D01*
X-196860Y808860D01*
X-197200Y805000D01*
X-196860Y801140D01*
X-195859Y797420D01*
X-194220Y793900D01*
X-190840Y789140D01*
X-190520Y787600D01*
X-190840Y786080D01*
X-191700Y784780D01*
X-271240Y705220D01*
X-272540Y704360D01*
X-274080Y704060D01*
X-275600Y704360D01*
X-276900Y705220D01*
X-277780Y706520D01*
X-278080Y708060D01*
X-278080Y719080D01*
X-305460Y719080D01*
X-305460Y691680D01*
X-294440Y691680D01*
X-292920Y691380D01*
X-291620Y690520D01*
X-290740Y689220D01*
X-290440Y687680D01*
X-290740Y686160D01*
X-291620Y684860D01*
X-360100Y616380D01*
X-361400Y615500D01*
X-362939Y615200D01*
X-388480Y615200D01*
X-390020Y615500D01*
X-391320Y616380D01*
X-392180Y617660D01*
X-392480Y619200D01*
X-392180Y620740D01*
X-391320Y622020D01*
X-384280Y629060D01*
X-382260Y631520D01*
X-380840Y634180D01*
X-379980Y637040D01*
X-379660Y640220D01*
X-379660Y642420D01*
X-379360Y643960D01*
X-378500Y645260D01*
X-378000Y645740D01*
X-375800Y648900D01*
X-374159Y652400D01*
X-373160Y656140D01*
X-372819Y660000D01*
X-373160Y663860D01*
X-374159Y667600D01*
X-375800Y671100D01*
X-378000Y674260D01*
X-380740Y677000D01*
X-383920Y679220D01*
X-387420Y680860D01*
X-391160Y681860D01*
X-395000Y682200D01*
X-398860Y681860D01*
X-402600Y680860D01*
X-406100Y679220D01*
X-409280Y677000D01*
X-412020Y674260D01*
X-414219Y671100D01*
X-415860Y667600D01*
X-416860Y663860D01*
X-417200Y660000D01*
X-416860Y656140D01*
X-415860Y652400D01*
X-414219Y648900D01*
X-413500Y647860D01*
X-412900Y646600D01*
X-412780Y645200D01*
X-413140Y643860D01*
X-413940Y642740D01*
X-1000699Y55980D01*
X-1002720Y53500D01*
X-1004140Y50860D01*
X-1005020Y47980D01*
X-1005320Y44800D01*
X-1005320Y-57400D01*
X-1005639Y-58920D01*
X-1006500Y-60220D01*
X-1007020Y-60740D01*
X-1009220Y-63900D01*
X-1010860Y-67400D01*
X-1011860Y-71140D01*
X-1012200Y-75000D01*
X-1011860Y-78860D01*
X-1010860Y-82600D01*
X-1009220Y-86100D01*
X-1007020Y-89260D01*
X-1004280Y-92000D01*
X-1001100Y-94220D01*
X-997600Y-95860D01*
X-993860Y-96860D01*
X-990000Y-97200D01*
X-988520Y-97060D01*
X-986919Y-97260D01*
X-985520Y-98059D01*
X-984560Y-99360D01*
X-984180Y-100940D01*
X-984460Y-102520D01*
X-985360Y-103880D01*
X-1105100Y-223619D01*
X-1106400Y-224500D01*
X-1107940Y-224800D01*
X-1117300Y-224800D01*
X-1118820Y-224500D01*
X-1120120Y-223619D01*
X-1120740Y-223000D01*
X-1123920Y-220780D01*
X-1127420Y-219160D01*
X-1131160Y-218160D01*
X-1135000Y-217820D01*
X-1138860Y-218160D01*
X-1142600Y-219160D01*
X-1146100Y-220780D01*
X-1149280Y-223000D01*
X-1152000Y-225740D01*
X-1154220Y-228900D01*
X-1155860Y-232420D01*
X-1156860Y-236140D01*
X-1157200Y-240000D01*
X-1156860Y-243860D01*
X-1155860Y-247580D01*
X-1154220Y-251100D01*
X-1152000Y-254259D01*
X-1149280Y-257000D01*
X-1146100Y-259220D01*
X-1142600Y-260840D01*
X-1138860Y-261840D01*
X-1135000Y-262180D01*
X-1131160Y-261840D01*
X-1127420Y-260840D01*
X-1123920Y-259220D01*
X-1120740Y-257000D01*
X-1120120Y-256380D01*
X-1118820Y-255500D01*
X-1117300Y-255200D01*
X-1100180Y-255200D01*
X-1097020Y-254880D01*
X-1094180Y-254020D01*
X-1091540Y-252620D01*
X-1089100Y-250600D01*
X-949380Y-110879D01*
X-947360Y-108440D01*
X-945960Y-105800D01*
X-945100Y-102960D01*
X-944780Y-99800D01*
X-944780Y27040D01*
X-944479Y28580D01*
X-943600Y29880D01*
X-389860Y583620D01*
X-388560Y584500D01*
X-387020Y584800D01*
X-366360Y584800D01*
X-364840Y584500D01*
X-363540Y583620D01*
X-362660Y582340D01*
X-362360Y580800D01*
X-362660Y579260D01*
X-363540Y577980D01*
X-530620Y410880D01*
X-532640Y408440D01*
X-534040Y405800D01*
X-534900Y402960D01*
X-535200Y399799D01*
X-535200Y267720D01*
X-535520Y266180D01*
X-536380Y264880D01*
X-537000Y264260D01*
X-539220Y261100D01*
X-540860Y257580D01*
X-541860Y253860D01*
X-542200Y250000D01*
X-541860Y246140D01*
X-540860Y242420D01*
X-539220Y238900D01*
X-537000Y235740D01*
X-534280Y233000D01*
X-531100Y230780D01*
X-527600Y229160D01*
X-523860Y228160D01*
X-520000Y227820D01*
X-516160Y228160D01*
X-512420Y229160D01*
X-508920Y230780D01*
X-505740Y233000D01*
X-503020Y235740D01*
X-500800Y238900D01*
X-499159Y242420D01*
X-498160Y246140D01*
X-497819Y250000D01*
X-498160Y253860D01*
X-499159Y257580D01*
X-500800Y261100D01*
X-503020Y264260D01*
X-503640Y264880D01*
X-504500Y266180D01*
X-504799Y267720D01*
X-504799Y392040D01*
X-504500Y393579D01*
X-503640Y394880D01*
X-188760Y709740D01*
X-187520Y710580D01*
X-186060Y710920D01*
X-184579Y710680D01*
X-183280Y709900D01*
X-182360Y708720D01*
X-181960Y707260D01*
X-181860Y706140D01*
X-180859Y702420D01*
X-179220Y698900D01*
X-177000Y695740D01*
X-174280Y693000D01*
X-171100Y690780D01*
X-167600Y689160D01*
X-163860Y688160D01*
X-160000Y687820D01*
X-156160Y688160D01*
X-152420Y689160D01*
X-148920Y690780D01*
X-145740Y693000D01*
X-145120Y693620D01*
X-143820Y694500D01*
X-142300Y694800D01*
X-85200Y694800D01*
X-82040Y695120D01*
X-79200Y695980D01*
X-76580Y697380D01*
X-74120Y699400D01*
X-36800Y736720D01*
X-35660Y737520D01*
X-34320Y737880D01*
X-31160Y738160D01*
X-27420Y739160D01*
X-23920Y740780D01*
X-20740Y743000D01*
X-18020Y745740D01*
X-15800Y748900D01*
X-14160Y752420D01*
X-13160Y756140D01*
X-12820Y760000D01*
X-13160Y763860D01*
X-14160Y767580D01*
X-15800Y771100D01*
X-18020Y774260D01*
X-20740Y777000D01*
X-23940Y779220D01*
X-25000Y780320D01*
X-25560Y781740D01*
X-25560Y783259D01*
X-25000Y784680D01*
X-23940Y785780D01*
X-20740Y788000D01*
X-18020Y790740D01*
X-15800Y793900D01*
X-14160Y797420D01*
X-13160Y801140D01*
X-12820Y805000D01*
X-13160Y808860D01*
X-14160Y812580D01*
X-15800Y816100D01*
X-17540Y818580D01*
X-18200Y820180D01*
X-18140Y821919D01*
X-17340Y823460D01*
X-15960Y824500D01*
X-14260Y824880D01*
X18040Y824880D01*
X19660Y824539D01*
X21000Y823560D01*
X21840Y822140D01*
X22000Y820300D01*
X22000Y545300D01*
X21700Y543780D01*
X20840Y542480D01*
X-271240Y250400D01*
X-272540Y249520D01*
X-274080Y249220D01*
X-275600Y249520D01*
X-276900Y250400D01*
X-277780Y251700D01*
X-278080Y253220D01*
X-278080Y329219D01*
X-278360Y331719D01*
X-279100Y333860D01*
X-280320Y335800D01*
X-281780Y337260D01*
X-282640Y338540D01*
X-282960Y340080D01*
X-282640Y341599D01*
X-281780Y342900D01*
X-280320Y344360D01*
X-279100Y346300D01*
X-278360Y348440D01*
X-278080Y350940D01*
X-278080Y429219D01*
X-278360Y431719D01*
X-279100Y433860D01*
X-280320Y435800D01*
X-281940Y437400D01*
X-283860Y438620D01*
X-286020Y439360D01*
X-288500Y439640D01*
X-366800Y439640D01*
X-369280Y439360D01*
X-371440Y438620D01*
X-373360Y437400D01*
X-374980Y435800D01*
X-376180Y433860D01*
X-376940Y431719D01*
X-377220Y429219D01*
X-377220Y350940D01*
X-376940Y348440D01*
X-376180Y346300D01*
X-374980Y344360D01*
X-373519Y342900D01*
X-372640Y341599D01*
X-372340Y340080D01*
X-372640Y338540D01*
X-373519Y337260D01*
X-374980Y335800D01*
X-376180Y333860D01*
X-376940Y331719D01*
X-377220Y329219D01*
X-377220Y263660D01*
X-377520Y262140D01*
X-378380Y260840D01*
X-455580Y183640D01*
X-457600Y181180D01*
X-459000Y178560D01*
X-459860Y175720D01*
X-460180Y172560D01*
X-460180Y-87040D01*
X-460480Y-88580D01*
X-461360Y-89880D01*
X-695100Y-323620D01*
X-696400Y-324500D01*
X-697940Y-324799D01*
X-918660Y-324799D01*
X-920180Y-324500D01*
X-921480Y-323620D01*
X-922360Y-322340D01*
X-922660Y-320800D01*
X-922360Y-319260D01*
X-921480Y-317980D01*
X-911800Y-308280D01*
X-910660Y-307480D01*
X-909320Y-307120D01*
X-906160Y-306840D01*
X-902420Y-305840D01*
X-898920Y-304220D01*
X-895740Y-302000D01*
X-893020Y-299260D01*
X-890800Y-296100D01*
X-889160Y-292580D01*
X-888160Y-288860D01*
X-887820Y-285000D01*
X-888160Y-281140D01*
X-889160Y-277420D01*
X-890879Y-273720D01*
X-891260Y-272060D01*
X-890920Y-270400D01*
X-890639Y-269740D01*
X-892159Y-270000D01*
X-893660Y-269700D01*
X-894920Y-268840D01*
X-895740Y-268000D01*
X-898920Y-265780D01*
X-902420Y-264160D01*
X-906160Y-263160D01*
X-910000Y-262820D01*
X-913860Y-263160D01*
X-917600Y-264160D01*
X-921100Y-265780D01*
X-924280Y-268000D01*
X-927000Y-270740D01*
X-929220Y-273900D01*
X-930860Y-277420D01*
X-931860Y-281140D01*
X-932140Y-284300D01*
X-932500Y-285640D01*
X-933300Y-286780D01*
X-945140Y-298620D01*
X-946440Y-299500D01*
X-947960Y-299800D01*
X-1117300Y-299800D01*
X-1118820Y-299500D01*
X-1120120Y-298620D01*
X-1120740Y-298000D01*
X-1123920Y-295780D01*
X-1127420Y-294160D01*
X-1131160Y-293160D01*
X-1135000Y-292820D01*
X-1138860Y-293160D01*
X-1142600Y-294160D01*
X-1146100Y-295780D01*
X-1149280Y-298000D01*
X-1152000Y-300740D01*
X-1154220Y-303900D01*
X-1155860Y-307420D01*
X-1156860Y-311140D01*
X-1157200Y-315000D01*
X-1157060Y-316460D01*
X-1157260Y-318060D01*
X-1158060Y-319460D01*
X-1159360Y-320420D01*
X-1160940Y-320800D01*
X-1162520Y-320520D01*
X-1163880Y-319640D01*
X-1242700Y-240820D01*
X-1243340Y-239980D01*
X-1243740Y-239020D01*
X-1244160Y-237420D01*
X-1245800Y-233900D01*
X-1248020Y-230740D01*
X-1250740Y-228000D01*
X-1253920Y-225780D01*
X-1257420Y-224160D01*
X-1261160Y-223160D01*
X-1265000Y-222820D01*
X-1268860Y-223160D01*
X-1272600Y-224160D01*
X-1276100Y-225780D01*
X-1279280Y-228000D01*
X-1282000Y-230740D01*
X-1284220Y-233900D01*
X-1285860Y-237420D01*
X-1286860Y-241140D01*
X-1287200Y-245000D01*
X-1286860Y-248860D01*
X-1285860Y-252580D01*
X-1284220Y-256100D01*
X-1282000Y-259259D01*
X-1279280Y-262000D01*
X-1276100Y-264220D01*
X-1272600Y-265840D01*
X-1268860Y-266840D01*
X-1265000Y-267180D01*
X-1261640Y-266880D01*
X-1259920Y-267120D01*
X-1258460Y-268040D01*
X-1175900Y-350600D01*
X-1173440Y-352620D01*
X-1170820Y-354020D01*
X-1167980Y-354880D01*
X-1164820Y-355200D01*
X-690180Y-355200D01*
X-687020Y-354880D01*
X-684180Y-354020D01*
X-681540Y-352620D01*
X-679100Y-350600D01*
X-657920Y-329440D01*
X-656520Y-328519D01*
X-654880Y-328260D01*
X-653259Y-328700D01*
X-651979Y-329739D01*
X-651220Y-331220D01*
X-650860Y-332580D01*
X-649220Y-336100D01*
X-647000Y-339260D01*
X-644280Y-342000D01*
X-641100Y-344219D01*
X-637600Y-345840D01*
X-633860Y-346840D01*
X-630000Y-347180D01*
X-626160Y-346840D01*
X-622420Y-345840D01*
X-618920Y-344219D01*
X-615740Y-342000D01*
X-615120Y-341380D01*
X-613820Y-340500D01*
X-612300Y-340200D01*
X-395180Y-340200D01*
X-392020Y-339880D01*
X-389180Y-339020D01*
X-386540Y-337620D01*
X-384099Y-335600D01*
X-284640Y-236160D01*
X-283240Y-235240D01*
X-281600Y-234980D01*
X-280000Y-235420D01*
X-278700Y-236460D01*
X-277940Y-237940D01*
X-277160Y-240820D01*
X-275340Y-245940D01*
X-274720Y-247440D01*
X-272360Y-252399D01*
X-271600Y-253840D01*
X-268760Y-258520D01*
X-267840Y-259860D01*
X-264540Y-264240D01*
X-263500Y-265500D01*
X-261860Y-267220D01*
X-261020Y-268540D01*
X-260760Y-270060D01*
X-261439Y-301160D01*
X-261800Y-302740D01*
X-262760Y-304040D01*
X-264180Y-304860D01*
X-265800Y-305040D01*
X-267360Y-304580D01*
X-268660Y-303860D01*
X-268660Y-322500D01*
X-265980Y-322500D01*
X-264440Y-322819D01*
X-263120Y-323700D01*
X-262260Y-325020D01*
X-261980Y-326580D01*
X-262580Y-353579D01*
X-262900Y-355100D01*
X-263780Y-356360D01*
X-265060Y-357200D01*
X-266580Y-357500D01*
X-268660Y-357500D01*
X-268660Y-376240D01*
X-267480Y-375880D01*
X-265820Y-376100D01*
X-264400Y-376960D01*
X-263460Y-378320D01*
X-263140Y-379960D01*
X-265200Y-474760D01*
X-265200Y-534880D01*
X-264940Y-537260D01*
X-264200Y-539420D01*
X-262980Y-541360D01*
X-262140Y-542300D01*
X-217300Y-587140D01*
X-215440Y-588640D01*
X-213380Y-589620D01*
X-211160Y-590120D01*
X-209899Y-590200D01*
X-80239Y-590200D01*
X-77740Y-589920D01*
X-75600Y-589160D01*
X-73660Y-587960D01*
X-72060Y-586340D01*
X-70840Y-584420D01*
X-70080Y-582260D01*
X-69800Y-579780D01*
X-69800Y-567000D01*
X-69460Y-565340D01*
X-68460Y-564000D01*
X-67000Y-563180D01*
X-65320Y-563020D01*
X-63740Y-563560D01*
X-62360Y-564260D01*
X-62360Y-542180D01*
X-65800Y-542180D01*
X-67340Y-541880D01*
X-68640Y-541020D01*
X-69500Y-539720D01*
X-69800Y-538180D01*
X-69800Y-509560D01*
X-69620Y-508320D01*
X-69060Y-507220D01*
X-63540Y-499500D01*
X-62280Y-498360D01*
X-61620Y-496800D01*
X-50960Y-481880D01*
X-50060Y-480980D01*
X-48940Y-480400D01*
X-47699Y-480200D01*
X-22000Y-480200D01*
X-20460Y-480500D01*
X-19160Y-481380D01*
X-18300Y-482660D01*
X-18000Y-484200D01*
X-18000Y-497819D01*
X4079Y-497819D01*
X3700Y-496960D01*
X600Y-491840D01*
X-3180Y-487020D01*
X-4060Y-485740D01*
X-4360Y-484200D01*
X-4060Y-482660D01*
X-3180Y-481380D01*
X-1880Y-480500D01*
X-360Y-480200D01*
X24760Y-480200D01*
X27260Y-479920D01*
X29400Y-479159D01*
X31520Y-477840D01*
X81180Y-438100D01*
X82940Y-436340D01*
X84160Y-434420D01*
X84920Y-432260D01*
X85200Y-429780D01*
X85200Y-271320D01*
X85500Y-269800D01*
X86359Y-268500D01*
X87660Y-267620D01*
X89200Y-267320D01*
X90719Y-267620D01*
X92020Y-268500D01*
X100060Y-276520D01*
X100879Y-277760D01*
X101220Y-279200D01*
X101000Y-280680D01*
X100540Y-281980D01*
X100260Y-284480D01*
X100260Y-315520D01*
X100540Y-318020D01*
X101300Y-320160D01*
X102500Y-322100D01*
X104120Y-323700D01*
X106039Y-324920D01*
X108200Y-325660D01*
X110680Y-325940D01*
X129920Y-325940D01*
X132400Y-325660D01*
X134560Y-324920D01*
X136480Y-323700D01*
X137160Y-323040D01*
X138460Y-322160D01*
X139980Y-321860D01*
X141520Y-322160D01*
X142820Y-323040D01*
X143480Y-323700D01*
X145420Y-324920D01*
X147560Y-325660D01*
X150060Y-325940D01*
X169280Y-325940D01*
X171780Y-325660D01*
X173920Y-324920D01*
X175859Y-323700D01*
X177460Y-322100D01*
X178680Y-320160D01*
X179440Y-318020D01*
X179720Y-315520D01*
X179720Y-284480D01*
X179440Y-281980D01*
X178680Y-279840D01*
X177460Y-277900D01*
X176060Y-276500D01*
X175180Y-275200D01*
X174880Y-273660D01*
X174880Y-273000D01*
X175180Y-271480D01*
X176060Y-270180D01*
X177360Y-269320D01*
X178880Y-269000D01*
X188540Y-269000D01*
X191040Y-268720D01*
X193180Y-267980D01*
X193660Y-267680D01*
X195260Y-267100D01*
X196940Y-267220D01*
X198420Y-268040D01*
X199440Y-269400D01*
X199800Y-271060D01*
X199800Y-454880D01*
X200060Y-457260D01*
X200799Y-459420D01*
X202020Y-461360D01*
X202860Y-462299D01*
X208619Y-468060D01*
X209480Y-469360D01*
X209800Y-470880D01*
X209800Y-473220D01*
X209440Y-474860D01*
X208440Y-476220D01*
X206980Y-477040D01*
X205300Y-477180D01*
X203720Y-476640D01*
X202000Y-475740D01*
X202000Y-497819D01*
X205799Y-497819D01*
X207320Y-498120D01*
X208619Y-498980D01*
X209480Y-500280D01*
X209800Y-501820D01*
X209800Y-538180D01*
X209480Y-539720D01*
X208619Y-541020D01*
X207320Y-541880D01*
X205799Y-542180D01*
X202000Y-542180D01*
X202000Y-564260D01*
X203720Y-563360D01*
X205300Y-562820D01*
X206980Y-562960D01*
X208440Y-563780D01*
X209440Y-565140D01*
X209800Y-566780D01*
X209800Y-584780D01*
X210080Y-587260D01*
X210820Y-589420D01*
X212040Y-591340D01*
X213640Y-592960D01*
X215580Y-594160D01*
X217719Y-594920D01*
X220219Y-595200D01*
X354880Y-595200D01*
X357260Y-594940D01*
X359420Y-594180D01*
X361340Y-592960D01*
X362280Y-592140D01*
X367120Y-587300D01*
X368620Y-585420D01*
X369620Y-583360D01*
X370120Y-581140D01*
X370200Y-579880D01*
X370200Y-520880D01*
X370500Y-519360D01*
X371360Y-518060D01*
X390420Y-498980D01*
X391719Y-498120D01*
X393260Y-497819D01*
X417840Y-497819D01*
X417840Y-473240D01*
X418140Y-471700D01*
X419000Y-470400D01*
X467120Y-422299D01*
X468620Y-420420D01*
X469620Y-418360D01*
X470120Y-416140D01*
X470200Y-414880D01*
X470200Y-303480D01*
X470480Y-301980D01*
X471300Y-300700D01*
X472560Y-299820D01*
X474040Y-299480D01*
X475540Y-299720D01*
X478220Y-300660D01*
X480680Y-300940D01*
X499920Y-300940D01*
X502400Y-300660D01*
X504560Y-299920D01*
X506480Y-298700D01*
X507160Y-298040D01*
X508459Y-297160D01*
X509980Y-296860D01*
X511520Y-297160D01*
X512819Y-298040D01*
X513480Y-298700D01*
X515420Y-299920D01*
X517560Y-300660D01*
X520060Y-300940D01*
X539280Y-300940D01*
X541780Y-300660D01*
X543920Y-299920D01*
X545860Y-298700D01*
X547460Y-297100D01*
X548680Y-295160D01*
X549440Y-293020D01*
X549720Y-290520D01*
X549720Y-278120D01*
X550020Y-276580D01*
X550880Y-275300D01*
X555600Y-270580D01*
X557620Y-268120D01*
X559020Y-265500D01*
X559880Y-262660D01*
X560200Y-259500D01*
X560200Y-231860D01*
X560520Y-230260D01*
X561480Y-228920D01*
X563180Y-227979D01*
X565120Y-226759D01*
X566720Y-225159D01*
X567940Y-223220D01*
X568700Y-221080D01*
X568980Y-218580D01*
X568980Y-169820D01*
X568700Y-167320D01*
X567940Y-165180D01*
X566720Y-163240D01*
X565120Y-161640D01*
X563180Y-160420D01*
X561040Y-159680D01*
X558540Y-159400D01*
X531440Y-159400D01*
X528940Y-159680D01*
X526800Y-160420D01*
X524860Y-161640D01*
X523260Y-163240D01*
X522040Y-165180D01*
X521300Y-167320D01*
X521019Y-169820D01*
X521019Y-175000D01*
X520700Y-176540D01*
X519840Y-177820D01*
X518540Y-178700D01*
X517020Y-179000D01*
X477180Y-179000D01*
X475640Y-178700D01*
X474340Y-177820D01*
X448400Y-151880D01*
X447360Y-150520D01*
X447000Y-148840D01*
X447000Y-131220D01*
X446719Y-128740D01*
X445959Y-126580D01*
X444760Y-124660D01*
X443140Y-123040D01*
X441220Y-121840D01*
X439060Y-121080D01*
X436580Y-120800D01*
X424200Y-120800D01*
X422660Y-120500D01*
X421360Y-119640D01*
X420500Y-118340D01*
X420200Y-116800D01*
X420200Y-95280D01*
X420400Y-93980D01*
X421019Y-92840D01*
X421980Y-91940D01*
X428000Y-87980D01*
X432600Y-84300D01*
X433240Y-83880D01*
X437380Y-81720D01*
X439020Y-81280D01*
X440700Y-81540D01*
X442120Y-82500D01*
X443020Y-83960D01*
X443220Y-85640D01*
X442800Y-90020D01*
X443140Y-93859D01*
X444140Y-97579D01*
X445780Y-101100D01*
X448000Y-104260D01*
X450720Y-107000D01*
X453900Y-109220D01*
X457400Y-110840D01*
X461140Y-111840D01*
X465000Y-112180D01*
X468840Y-111840D01*
X471500Y-111140D01*
X472540Y-111000D01*
X479620Y-111000D01*
X481140Y-111300D01*
X482440Y-112180D01*
X483300Y-113460D01*
X483620Y-115000D01*
X483620Y-120180D01*
X483900Y-122680D01*
X484640Y-124820D01*
X485860Y-126760D01*
X487460Y-128360D01*
X489400Y-129580D01*
X491540Y-130320D01*
X494040Y-130600D01*
X521140Y-130600D01*
X523640Y-130320D01*
X525780Y-129580D01*
X527720Y-128360D01*
X529320Y-126760D01*
X530540Y-124820D01*
X531300Y-122680D01*
X531580Y-120180D01*
X531580Y-71420D01*
X531300Y-68920D01*
X530540Y-66780D01*
X529320Y-64840D01*
X527720Y-63240D01*
X525780Y-62020D01*
X523640Y-61280D01*
X521140Y-61000D01*
X494040Y-61000D01*
X492020Y-60900D01*
X490620Y-60180D01*
X489620Y-58960D01*
X489159Y-57460D01*
X489320Y-55900D01*
X490060Y-54520D01*
X491280Y-53520D01*
X698940Y55100D01*
X700500Y55540D01*
X702120Y55320D01*
X703520Y54480D01*
X704460Y53140D01*
X704800Y51540D01*
X704800Y-54780D01*
X705040Y-57140D01*
X705780Y-59300D01*
X707080Y-61440D01*
X741800Y-106080D01*
X743560Y-107880D01*
X745460Y-109120D01*
X747600Y-109880D01*
X750220Y-110200D01*
X934760Y-110200D01*
X937260Y-109920D01*
X939400Y-109160D01*
X941340Y-107960D01*
X942940Y-106340D01*
X944160Y-104420D01*
X944920Y-102260D01*
X945200Y-99780D01*
X945200Y24780D01*
X944920Y27260D01*
X944160Y29420D01*
X942820Y31540D01*
X832060Y170000D01*
X831360Y171300D01*
X831180Y172760D01*
X831560Y174180D01*
X832400Y175380D01*
X833640Y176180D01*
X833640Y192079D01*
X817080Y192079D01*
X817080Y189200D01*
X816780Y187659D01*
X815900Y186380D01*
X814599Y185500D01*
X813080Y185200D01*
X802620Y185200D01*
X800900Y185580D01*
X799520Y186660D01*
X798740Y188220D01*
X798680Y189980D01*
X799400Y191580D01*
X800720Y192719D01*
X801780Y193280D01*
X804220Y195300D01*
X820580Y211640D01*
X821880Y212520D01*
X823400Y212820D01*
X833640Y212820D01*
X833640Y223039D01*
X833940Y224579D01*
X834800Y225880D01*
X839360Y230440D01*
X840660Y231300D01*
X842180Y231600D01*
X852340Y231600D01*
X853880Y231300D01*
X855180Y230440D01*
X856040Y229140D01*
X856340Y227600D01*
X856340Y212820D01*
X872900Y212820D01*
X872900Y217960D01*
X872620Y220460D01*
X871880Y222600D01*
X870660Y224540D01*
X869060Y226140D01*
X868319Y226620D01*
X867159Y227719D01*
X866520Y229200D01*
X866520Y230799D01*
X867159Y232280D01*
X868319Y233380D01*
X869060Y233860D01*
X870660Y235460D01*
X871880Y237399D01*
X872620Y239540D01*
X872900Y242040D01*
X872900Y273080D01*
X872620Y275560D01*
X871880Y277720D01*
X870660Y279640D01*
X869060Y281260D01*
X867120Y282480D01*
X864980Y283220D01*
X862480Y283500D01*
X851200Y283500D01*
X849659Y283800D01*
X848360Y284680D01*
X847500Y285980D01*
X847200Y287500D01*
X847200Y313040D01*
X847520Y314640D01*
X848480Y315980D01*
X849880Y316820D01*
X851500Y317020D01*
X853080Y316560D01*
X854180Y315980D01*
X857020Y315120D01*
X860180Y314800D01*
X936400Y314800D01*
X937940Y314500D01*
X939240Y313620D01*
X958100Y294760D01*
X958920Y293600D01*
X959260Y292240D01*
X959140Y290840D01*
X958060Y287020D01*
X957360Y281920D01*
X957360Y276760D01*
X958060Y271660D01*
X959460Y266700D01*
X961500Y261980D01*
X964180Y257580D01*
X967440Y253580D01*
X971200Y250060D01*
X975400Y247079D01*
X977680Y245920D01*
X979020Y244780D01*
X979760Y243180D01*
X979720Y241420D01*
X978940Y239840D01*
X977560Y238740D01*
X975840Y238359D01*
X967680Y238359D01*
X965200Y238080D01*
X963040Y237320D01*
X961120Y236119D01*
X959500Y234500D01*
X958300Y232580D01*
X957540Y230420D01*
X957260Y227940D01*
X957260Y219340D01*
X956960Y217820D01*
X956100Y216520D01*
X954820Y215640D01*
X953300Y215340D01*
X941080Y215200D01*
X939520Y215479D01*
X938199Y216360D01*
X937080Y217480D01*
X935160Y218700D01*
X933000Y219460D01*
X930520Y219740D01*
X899460Y219740D01*
X896979Y219460D01*
X894820Y218700D01*
X892900Y217480D01*
X891280Y215880D01*
X890080Y213939D01*
X889320Y211800D01*
X889040Y209300D01*
X889040Y190080D01*
X889320Y187580D01*
X890080Y185440D01*
X891280Y183500D01*
X891960Y182840D01*
X892820Y181540D01*
X893120Y180000D01*
X892820Y178480D01*
X891960Y177180D01*
X891280Y176500D01*
X890080Y174579D01*
X889320Y172420D01*
X889040Y169940D01*
X889040Y167740D01*
X904620Y167740D01*
X904620Y175640D01*
X904920Y177180D01*
X905780Y178480D01*
X907080Y179340D01*
X908620Y179640D01*
X921360Y179640D01*
X922900Y179340D01*
X924200Y178480D01*
X925060Y177180D01*
X925360Y175640D01*
X925360Y167740D01*
X940939Y167740D01*
X940939Y169940D01*
X940660Y172420D01*
X939900Y174579D01*
X938700Y176500D01*
X938020Y177180D01*
X937159Y178480D01*
X936860Y180000D01*
X937159Y181540D01*
X938020Y182840D01*
X938820Y183619D01*
X940100Y184480D01*
X941600Y184800D01*
X953220Y184920D01*
X954760Y184640D01*
X956080Y183780D01*
X956960Y182480D01*
X957260Y180920D01*
X957260Y173260D01*
X957540Y170780D01*
X958300Y168619D01*
X959500Y166700D01*
X961120Y165080D01*
X963040Y163880D01*
X965200Y163120D01*
X967680Y162840D01*
X1022360Y162840D01*
X1024840Y163120D01*
X1027000Y163880D01*
X1028920Y165080D01*
X1030540Y166700D01*
X1031740Y168619D01*
X1032500Y170780D01*
X1032780Y173260D01*
X1032780Y227940D01*
X1032500Y230420D01*
X1031740Y232580D01*
X1030540Y234500D01*
X1028920Y236119D01*
X1027000Y237320D01*
X1024840Y238080D01*
X1022360Y238359D01*
X1014200Y238359D01*
X1012480Y238740D01*
X1011100Y239840D01*
X1010320Y241420D01*
X1010280Y243180D01*
X1011020Y244780D01*
X1012360Y245920D01*
X1014640Y247079D01*
X1018840Y250060D01*
X1022600Y253580D01*
X1025860Y257580D01*
X1028540Y261980D01*
X1030600Y266700D01*
X1031979Y271660D01*
X1032680Y276760D01*
X1032680Y281920D01*
X1031979Y287020D01*
X1030600Y291980D01*
X1028540Y296700D01*
X1025860Y301100D01*
X1022600Y305100D01*
X1018840Y308620D01*
X1014640Y311600D01*
X1010060Y313960D01*
X1005200Y315680D01*
X1000160Y316740D01*
X995020Y317080D01*
X989880Y316740D01*
X984840Y315680D01*
X983780Y315320D01*
X982300Y315080D01*
X980840Y315420D01*
X979599Y316260D01*
X955240Y340600D01*
X952800Y342620D01*
X950160Y344020D01*
X947320Y344880D01*
X944160Y345200D01*
X867940Y345200D01*
X866420Y345500D01*
X865120Y346380D01*
X858520Y352980D01*
X857640Y354260D01*
X857340Y355800D01*
X857640Y357340D01*
X858520Y358620D01*
X859820Y359500D01*
X861340Y359799D01*
X880260Y359799D01*
X882760Y360080D01*
X884900Y360840D01*
X886840Y362040D01*
X888439Y363660D01*
X889659Y365580D01*
X890420Y367740D01*
X890699Y370220D01*
X890699Y380400D01*
X891000Y381940D01*
X891860Y383240D01*
X911040Y402400D01*
X912340Y403280D01*
X913860Y403579D01*
X915800Y403579D01*
X917320Y403280D01*
X918620Y402400D01*
X919479Y401120D01*
X920080Y396520D01*
X920819Y394360D01*
X922039Y392440D01*
X923640Y390820D01*
X925580Y389620D01*
X927720Y388860D01*
X930220Y388579D01*
X989760Y388579D01*
X992260Y388860D01*
X994400Y389620D01*
X996340Y390820D01*
X997940Y392440D01*
X999160Y394360D01*
X999920Y396520D01*
X1000200Y399000D01*
X1000200Y458560D01*
X999920Y461040D01*
X999160Y463200D01*
X997940Y465120D01*
X996340Y466740D01*
X994400Y467939D01*
X992260Y468700D01*
X989760Y468980D01*
X987420Y468980D01*
X985800Y469320D01*
X984479Y470260D01*
X983640Y471659D01*
X983420Y473300D01*
X983880Y474860D01*
X984940Y476120D01*
X986960Y477720D01*
X990680Y481580D01*
X993860Y485900D01*
X996440Y490600D01*
X998379Y495620D01*
X999620Y500840D01*
X1000160Y506180D01*
X999980Y511540D01*
X999080Y516840D01*
X997500Y521960D01*
X995240Y526840D01*
X992340Y531360D01*
X988880Y535460D01*
X984900Y539060D01*
X980480Y542100D01*
X978160Y543260D01*
X976840Y544340D01*
X976100Y545860D01*
X976040Y547560D01*
X976680Y549120D01*
X977940Y550280D01*
X982740Y553120D01*
X986960Y556460D01*
X990680Y560320D01*
X993860Y564640D01*
X996440Y569340D01*
X998379Y574360D01*
X999620Y579580D01*
X1000160Y584920D01*
X999980Y590280D01*
X999080Y595580D01*
X997500Y600700D01*
X995240Y605580D01*
X992340Y610100D01*
X988880Y614200D01*
X984900Y617800D01*
X980480Y620840D01*
X978160Y622000D01*
X976840Y623080D01*
X976100Y624600D01*
X976040Y626300D01*
X976680Y627860D01*
X977940Y629020D01*
X982740Y631860D01*
X986960Y635200D01*
X990680Y639060D01*
X993860Y643379D01*
X996440Y648080D01*
X998379Y653100D01*
X999620Y658319D01*
X1000160Y663660D01*
X999980Y669020D01*
X999080Y674320D01*
X997500Y679440D01*
X995240Y684320D01*
X992340Y688840D01*
X988880Y692940D01*
X984900Y696540D01*
X980480Y699580D01*
X978160Y700740D01*
X976840Y701820D01*
X976100Y703340D01*
X976040Y705040D01*
X976680Y706600D01*
X977940Y707760D01*
X982740Y710600D01*
X986960Y713940D01*
X990680Y717800D01*
X993860Y722120D01*
X996440Y726820D01*
X998379Y731840D01*
X999620Y737060D01*
X1000160Y742400D01*
X999980Y747760D01*
X999080Y753060D01*
X997860Y757020D01*
X997680Y758460D01*
X998040Y759840D01*
X998840Y761040D01*
X1111800Y873980D01*
X1113080Y874840D01*
X1114620Y875140D01*
X1116160Y874840D01*
X1117440Y873980D01*
X1118320Y872680D01*
X1118620Y871140D01*
X1118620Y-639800D01*
X1118320Y-641340D01*
X1117440Y-642620D01*
X1116160Y-643500D01*
X1114620Y-643800D01*
G37*

%LPC*%
G36*
X856340Y176500D02*
G01*
X862480Y176500D01*
X864980Y176780D01*
X867120Y177520D01*
X869060Y178740D01*
X870660Y180360D01*
X871880Y182280D01*
X872620Y184440D01*
X872900Y186920D01*
X872900Y192079D01*
X856340Y192079D01*
G37*
G36*
X-914360Y-596080D02*
G01*
X-912540Y-595240D01*
X-908020Y-592360D01*
X-903920Y-588900D01*
X-900320Y-584900D01*
X-897280Y-580480D01*
X-895780Y-577500D01*
X-914360Y-577500D01*
G37*
G36*
X-202060Y1507540D02*
G01*
X-183100Y1507540D01*
X-184380Y1510140D01*
X-187380Y1514620D01*
X-190940Y1518680D01*
X-194980Y1522220D01*
X-199460Y1525220D01*
X-202060Y1526500D01*
G37*
G36*
X-902060Y1507540D02*
G01*
X-883100Y1507540D01*
X-884380Y1510140D01*
X-887380Y1514620D01*
X-890939Y1518680D01*
X-894980Y1522220D01*
X-899460Y1525220D01*
X-902060Y1526500D01*
G37*
G36*
X495460Y-585200D02*
G01*
X730000Y-580200D01*
X732260Y-579920D01*
X734419Y-579160D01*
X736360Y-577940D01*
X737960Y-576320D01*
X739160Y-574400D01*
X739920Y-572240D01*
X740200Y-569760D01*
X740160Y-554560D01*
X740500Y-552940D01*
X741440Y-551620D01*
X742840Y-550760D01*
X744479Y-550560D01*
X746060Y-551020D01*
X747300Y-552080D01*
X747920Y-552860D01*
X752159Y-557100D01*
X756860Y-560780D01*
X761979Y-563880D01*
X762840Y-564260D01*
X762840Y-542180D01*
X744120Y-542180D01*
X742600Y-541880D01*
X741300Y-541020D01*
X740440Y-539720D01*
X740120Y-538200D01*
X740040Y-501820D01*
X740340Y-500300D01*
X741220Y-498980D01*
X742520Y-498120D01*
X744040Y-497819D01*
X762840Y-497819D01*
X762840Y-483020D01*
X763060Y-481719D01*
X763680Y-480560D01*
X764659Y-479680D01*
X920460Y-378620D01*
X922320Y-377080D01*
X923720Y-375280D01*
X924659Y-373200D01*
X925140Y-370959D01*
X925200Y-369900D01*
X925200Y-240219D01*
X924920Y-237740D01*
X924200Y-235720D01*
X923980Y-234259D01*
X924320Y-232800D01*
X925160Y-231580D01*
X1005600Y-151120D01*
X1007620Y-148680D01*
X1009020Y-146040D01*
X1009880Y-143200D01*
X1010200Y-140040D01*
X1010200Y-83280D01*
X1010520Y-81679D01*
X1011460Y-80340D01*
X1012860Y-79500D01*
X1015160Y-78700D01*
X1017080Y-77480D01*
X1018700Y-75880D01*
X1019100Y-75220D01*
X1020220Y-74060D01*
X1021700Y-73420D01*
X1023300Y-73420D01*
X1024780Y-74060D01*
X1025879Y-75220D01*
X1026280Y-75860D01*
X1027900Y-77480D01*
X1029820Y-78680D01*
X1031979Y-79440D01*
X1034460Y-79720D01*
X1039620Y-79720D01*
X1039620Y-67100D01*
X1024940Y-67100D01*
X1023400Y-66800D01*
X1022120Y-65920D01*
X1021240Y-64640D01*
X1020939Y-63099D01*
X1020939Y-56260D01*
X1021240Y-54720D01*
X1022120Y-53440D01*
X1023400Y-52560D01*
X1024940Y-52260D01*
X1039620Y-52260D01*
X1039620Y-44360D01*
X1039920Y-42820D01*
X1040780Y-41520D01*
X1042080Y-40660D01*
X1043620Y-40359D01*
X1056360Y-40359D01*
X1057900Y-40660D01*
X1059200Y-41520D01*
X1060060Y-42820D01*
X1060360Y-44360D01*
X1060360Y-52260D01*
X1075940Y-52260D01*
X1075940Y-50060D01*
X1075660Y-47580D01*
X1074900Y-45420D01*
X1073700Y-43500D01*
X1073020Y-42820D01*
X1072160Y-41520D01*
X1071860Y-40000D01*
X1072160Y-38460D01*
X1073020Y-37160D01*
X1073700Y-36500D01*
X1074900Y-34560D01*
X1075660Y-32420D01*
X1075940Y-29920D01*
X1075940Y-10700D01*
X1075660Y-8200D01*
X1074900Y-6060D01*
X1073700Y-4120D01*
X1072080Y-2520D01*
X1070160Y-1300D01*
X1068000Y-540D01*
X1065520Y-260D01*
X1034460Y-260D01*
X1031979Y-540D01*
X1029820Y-1300D01*
X1027900Y-2520D01*
X1026480Y-3940D01*
X1025180Y-4800D01*
X1023640Y-5120D01*
X1021320Y-5120D01*
X1019800Y-4800D01*
X1018500Y-3940D01*
X1017080Y-2520D01*
X1015160Y-1320D01*
X1013000Y-560D01*
X1010520Y-280D01*
X1004200Y-280D01*
X1002660Y20D01*
X1001360Y900D01*
X1000500Y2200D01*
X1000200Y3720D01*
X1000200Y7280D01*
X1000500Y8820D01*
X1001360Y10120D01*
X1001979Y10740D01*
X1004200Y13899D01*
X1005840Y17420D01*
X1006840Y21140D01*
X1007180Y25000D01*
X1006840Y28860D01*
X1005840Y32580D01*
X1004200Y36100D01*
X1001979Y39260D01*
X999260Y42000D01*
X996080Y44220D01*
X992580Y45839D01*
X988840Y46840D01*
X985000Y47180D01*
X981140Y46840D01*
X977400Y45839D01*
X973900Y44220D01*
X970720Y42000D01*
X968000Y39260D01*
X965780Y36100D01*
X964140Y32580D01*
X963139Y28860D01*
X962800Y25000D01*
X963139Y21140D01*
X964140Y17420D01*
X965780Y13899D01*
X968000Y10740D01*
X968620Y10120D01*
X969479Y8820D01*
X969800Y7280D01*
X969800Y-6200D01*
X969320Y-8220D01*
X969040Y-10700D01*
X969040Y-29940D01*
X969320Y-32420D01*
X970080Y-34580D01*
X971280Y-36500D01*
X971960Y-37180D01*
X972820Y-38480D01*
X973120Y-40000D01*
X972820Y-41540D01*
X971960Y-42840D01*
X971280Y-43500D01*
X970080Y-45439D01*
X969320Y-47580D01*
X969040Y-50080D01*
X969040Y-69300D01*
X969320Y-71800D01*
X970080Y-73940D01*
X971280Y-75880D01*
X972900Y-77480D01*
X974820Y-78700D01*
X977120Y-79500D01*
X978520Y-80340D01*
X979460Y-81679D01*
X979800Y-83280D01*
X979800Y-132280D01*
X979479Y-133820D01*
X978620Y-135120D01*
X885100Y-228619D01*
X883800Y-229500D01*
X882280Y-229800D01*
X710160Y-229800D01*
X708360Y-229960D01*
X706120Y-230600D01*
X704120Y-231700D01*
X702240Y-233359D01*
X487260Y-473140D01*
X485640Y-475600D01*
X484900Y-477760D01*
X484620Y-480240D01*
X484620Y-485120D01*
X484300Y-486719D01*
X483340Y-488060D01*
X481940Y-488900D01*
X480300Y-489120D01*
X478740Y-488660D01*
X477120Y-487140D01*
X472879Y-482900D01*
X468180Y-479219D01*
X463060Y-476120D01*
X462200Y-475740D01*
X462200Y-497819D01*
X480660Y-497819D01*
X482180Y-498120D01*
X483480Y-498980D01*
X484360Y-500280D01*
X484660Y-501800D01*
X484720Y-538180D01*
X484420Y-539720D01*
X483560Y-541020D01*
X482260Y-541880D01*
X480720Y-542180D01*
X462200Y-542180D01*
X462200Y-564260D01*
X463060Y-563880D01*
X468180Y-560780D01*
X472879Y-557100D01*
X477120Y-552860D01*
X477600Y-552240D01*
X478860Y-551180D01*
X480439Y-550720D01*
X482060Y-550920D01*
X483459Y-551760D01*
X484420Y-553100D01*
X484760Y-554700D01*
X484799Y-574800D01*
X485080Y-577280D01*
X485840Y-579440D01*
X487040Y-581360D01*
X488660Y-582960D01*
X490600Y-584180D01*
X492720Y-584920D01*
G37*
G36*
X925360Y140280D02*
G01*
X930520Y140280D01*
X933000Y140560D01*
X935160Y141320D01*
X937080Y142520D01*
X938700Y144140D01*
X939900Y146060D01*
X940660Y148220D01*
X940939Y150700D01*
X940939Y152900D01*
X925360Y152900D01*
G37*
G36*
X899460Y140280D02*
G01*
X904620Y140280D01*
X904620Y152900D01*
X889040Y152900D01*
X889040Y150700D01*
X889320Y148220D01*
X890080Y146060D01*
X891280Y144140D01*
X892900Y142520D01*
X894820Y141320D01*
X896979Y140560D01*
G37*
G36*
X1060360Y-79720D02*
G01*
X1065520Y-79720D01*
X1068000Y-79440D01*
X1070160Y-78680D01*
X1072080Y-77480D01*
X1073700Y-75860D01*
X1074900Y-73940D01*
X1075660Y-71780D01*
X1075940Y-69300D01*
X1075940Y-67100D01*
X1060360Y-67100D01*
G37*
G36*
X-734160Y-574580D02*
G01*
X-655860Y-574580D01*
X-653379Y-574280D01*
X-651220Y-573540D01*
X-649300Y-572320D01*
X-647680Y-570720D01*
X-646480Y-568780D01*
X-645720Y-566640D01*
X-645440Y-564140D01*
X-645440Y-551560D01*
X-645060Y-549880D01*
X-644040Y-548500D01*
X-642520Y-547700D01*
X-640800Y-547600D01*
X-639200Y-548240D01*
X-638020Y-549480D01*
X-635800Y-553160D01*
X-632100Y-557860D01*
X-627880Y-562100D01*
X-623160Y-565780D01*
X-618040Y-568880D01*
X-617200Y-569260D01*
X-617200Y-547180D01*
X-641440Y-547180D01*
X-642960Y-546880D01*
X-644260Y-546020D01*
X-645140Y-544720D01*
X-645440Y-543180D01*
X-645440Y-506820D01*
X-645140Y-505280D01*
X-644260Y-503980D01*
X-642960Y-503120D01*
X-641440Y-502819D01*
X-617200Y-502819D01*
X-617200Y-480740D01*
X-618040Y-481120D01*
X-623160Y-484219D01*
X-627880Y-487900D01*
X-632100Y-492140D01*
X-635800Y-496840D01*
X-638020Y-500520D01*
X-639200Y-501760D01*
X-640800Y-502400D01*
X-642520Y-502299D01*
X-644040Y-501500D01*
X-645060Y-500120D01*
X-645440Y-498440D01*
X-645440Y-485860D01*
X-645720Y-483360D01*
X-646480Y-481220D01*
X-647680Y-479280D01*
X-649300Y-477680D01*
X-651220Y-476460D01*
X-653379Y-475720D01*
X-655860Y-475439D01*
X-734160Y-475439D01*
X-736640Y-475720D01*
X-738800Y-476460D01*
X-740720Y-477680D01*
X-742340Y-479280D01*
X-743540Y-481220D01*
X-744300Y-483360D01*
X-744580Y-485860D01*
X-744580Y-564140D01*
X-744300Y-566640D01*
X-743540Y-568780D01*
X-742340Y-570720D01*
X-740720Y-572320D01*
X-738800Y-573540D01*
X-736640Y-574280D01*
G37*
G36*
X-572820Y-569260D02*
G01*
X-571980Y-568880D01*
X-566860Y-565780D01*
X-562140Y-562100D01*
X-557920Y-557860D01*
X-554220Y-553160D01*
X-551120Y-548040D01*
X-550740Y-547180D01*
X-572820Y-547180D01*
G37*
G36*
X-257020Y1507540D02*
G01*
X-238060Y1507540D01*
X-238060Y1526500D01*
X-240660Y1525220D01*
X-245140Y1522220D01*
X-249180Y1518680D01*
X-252740Y1514620D01*
X-255740Y1510140D01*
G37*
G36*
X972760Y-566360D02*
G01*
X980380Y-565800D01*
X987900Y-564520D01*
X995280Y-562520D01*
X1002420Y-559800D01*
X1009280Y-556420D01*
X1015780Y-552380D01*
X1021840Y-547740D01*
X1027440Y-542540D01*
X1032500Y-536820D01*
X1037000Y-530640D01*
X1040879Y-524040D01*
X1044100Y-517120D01*
X1046640Y-509900D01*
X1048460Y-502480D01*
X1049560Y-494920D01*
X1049940Y-487299D01*
X1049560Y-479660D01*
X1048460Y-472100D01*
X1046640Y-464680D01*
X1044100Y-457460D01*
X1040879Y-450540D01*
X1037000Y-443940D01*
X1032500Y-437760D01*
X1027440Y-432040D01*
X1021840Y-426840D01*
X1015780Y-422200D01*
X1009280Y-418160D01*
X1002420Y-414780D01*
X995280Y-412060D01*
X987900Y-410060D01*
X980380Y-408780D01*
X972760Y-408220D01*
X965120Y-408400D01*
X957520Y-409320D01*
X950060Y-410980D01*
X942800Y-413340D01*
X935780Y-416380D01*
X929100Y-420100D01*
X922820Y-424440D01*
X916979Y-429380D01*
X911640Y-434840D01*
X906860Y-440800D01*
X902660Y-447200D01*
X899120Y-453960D01*
X896240Y-461040D01*
X894040Y-468360D01*
X892580Y-475860D01*
X891840Y-483459D01*
X891840Y-491120D01*
X892580Y-498720D01*
X894040Y-506220D01*
X896240Y-513540D01*
X899120Y-520620D01*
X902660Y-527380D01*
X906860Y-533780D01*
X911640Y-539740D01*
X916979Y-545200D01*
X922820Y-550140D01*
X929100Y-554480D01*
X935780Y-558200D01*
X942800Y-561240D01*
X950060Y-563600D01*
X957520Y-565260D01*
X965120Y-566180D01*
G37*
G36*
X-18000Y-564260D02*
G01*
X-17140Y-563880D01*
X-12020Y-560780D01*
X-7320Y-557100D01*
X-3080Y-552860D01*
X600Y-548160D01*
X3700Y-543040D01*
X4079Y-542180D01*
X-18000Y-542180D01*
G37*
G36*
X807200Y-564260D02*
G01*
X808060Y-563880D01*
X813180Y-560780D01*
X817880Y-557100D01*
X822120Y-552860D01*
X825800Y-548160D01*
X828900Y-543040D01*
X829280Y-542180D01*
X807200Y-542180D01*
G37*
G36*
X417840Y-564260D02*
G01*
X417840Y-542180D01*
X395760Y-542180D01*
X396140Y-543040D01*
X399240Y-548160D01*
X402920Y-552860D01*
X407160Y-557100D01*
X411860Y-560780D01*
X416980Y-563880D01*
G37*
G36*
X157640Y-564260D02*
G01*
X157640Y-542180D01*
X135560Y-542180D01*
X135940Y-543040D01*
X139040Y-548160D01*
X142720Y-552860D01*
X146960Y-557100D01*
X151660Y-560780D01*
X156780Y-563880D01*
G37*
G36*
X-957020Y1507540D02*
G01*
X-938060Y1507540D01*
X-938060Y1526500D01*
X-940660Y1525220D01*
X-945140Y1522220D01*
X-949180Y1518680D01*
X-952740Y1514620D01*
X-955740Y1510140D01*
G37*
G36*
X-902060Y1452600D02*
G01*
X-899460Y1453880D01*
X-894980Y1456879D01*
X-890939Y1460420D01*
X-887380Y1464480D01*
X-884380Y1468959D01*
X-883100Y1471540D01*
X-902060Y1471540D01*
G37*
G36*
X-938060Y1452600D02*
G01*
X-938060Y1471540D01*
X-957020Y1471540D01*
X-955740Y1468959D01*
X-952740Y1464480D01*
X-949180Y1460420D01*
X-945140Y1456879D01*
X-940660Y1453880D01*
G37*
G36*
X-320060Y1448360D02*
G01*
X-314680Y1448720D01*
X-309400Y1449760D01*
X-304300Y1451500D01*
X-299460Y1453880D01*
X-294980Y1456879D01*
X-290940Y1460420D01*
X-287380Y1464480D01*
X-284380Y1468959D01*
X-282000Y1473779D01*
X-280280Y1478880D01*
X-279220Y1484180D01*
X-278860Y1489540D01*
X-279220Y1494920D01*
X-280280Y1500220D01*
X-282000Y1505320D01*
X-284380Y1510140D01*
X-287380Y1514620D01*
X-290940Y1518680D01*
X-294980Y1522220D01*
X-299460Y1525220D01*
X-304300Y1527600D01*
X-309400Y1529340D01*
X-314680Y1530380D01*
X-320060Y1530740D01*
X-325439Y1530380D01*
X-330720Y1529340D01*
X-335820Y1527600D01*
X-340660Y1525220D01*
X-345140Y1522220D01*
X-349180Y1518680D01*
X-352740Y1514620D01*
X-355740Y1510140D01*
X-358120Y1505320D01*
X-359840Y1500220D01*
X-360900Y1494920D01*
X-361260Y1489540D01*
X-360900Y1484180D01*
X-359840Y1478880D01*
X-358120Y1473779D01*
X-355740Y1468959D01*
X-352740Y1464480D01*
X-349180Y1460420D01*
X-345140Y1456879D01*
X-340660Y1453880D01*
X-335820Y1451500D01*
X-330720Y1449760D01*
X-325439Y1448720D01*
G37*
G36*
X-1020060Y1448360D02*
G01*
X-1014680Y1448720D01*
X-1009400Y1449760D01*
X-1004300Y1451500D01*
X-999460Y1453880D01*
X-994980Y1456879D01*
X-990939Y1460420D01*
X-987380Y1464480D01*
X-984380Y1468959D01*
X-982000Y1473779D01*
X-980280Y1478880D01*
X-979220Y1484180D01*
X-978860Y1489540D01*
X-979220Y1494920D01*
X-980280Y1500220D01*
X-982000Y1505320D01*
X-984380Y1510140D01*
X-987380Y1514620D01*
X-990939Y1518680D01*
X-994980Y1522220D01*
X-999460Y1525220D01*
X-1004300Y1527600D01*
X-1009400Y1529340D01*
X-1014680Y1530380D01*
X-1020060Y1530740D01*
X-1025440Y1530380D01*
X-1030720Y1529340D01*
X-1035819Y1527600D01*
X-1040660Y1525220D01*
X-1045140Y1522220D01*
X-1049180Y1518680D01*
X-1052740Y1514620D01*
X-1055740Y1510140D01*
X-1058120Y1505320D01*
X-1059840Y1500220D01*
X-1060900Y1494920D01*
X-1061260Y1489540D01*
X-1060900Y1484180D01*
X-1059840Y1478880D01*
X-1058120Y1473779D01*
X-1055740Y1468959D01*
X-1052740Y1464480D01*
X-1049180Y1460420D01*
X-1045140Y1456879D01*
X-1040660Y1453880D01*
X-1035819Y1451500D01*
X-1030720Y1449760D01*
X-1025440Y1448720D01*
G37*
G36*
X-914360Y-542500D02*
G01*
X-895780Y-542500D01*
X-897280Y-539520D01*
X-900320Y-535100D01*
X-903920Y-531100D01*
X-908020Y-527640D01*
X-912540Y-524760D01*
X-914360Y-523920D01*
G37*
G36*
X-968259Y-542500D02*
G01*
X-949360Y-542500D01*
X-949360Y-523860D01*
X-953480Y-526120D01*
X-957800Y-529300D01*
X-961660Y-533040D01*
X-965000Y-537260D01*
X-967840Y-542060D01*
G37*
G36*
X-572820Y-502819D02*
G01*
X-550740Y-502819D01*
X-551120Y-501960D01*
X-554220Y-496840D01*
X-557920Y-492140D01*
X-562140Y-487900D01*
X-566860Y-484219D01*
X-571980Y-481120D01*
X-572820Y-480740D01*
G37*
G36*
X-1120060Y1448360D02*
G01*
X-1114680Y1448720D01*
X-1109400Y1449760D01*
X-1104300Y1451500D01*
X-1099460Y1453880D01*
X-1094980Y1456879D01*
X-1090940Y1460420D01*
X-1087380Y1464480D01*
X-1084380Y1468959D01*
X-1082000Y1473779D01*
X-1080280Y1478880D01*
X-1079220Y1484180D01*
X-1078860Y1489540D01*
X-1079220Y1494920D01*
X-1080280Y1500220D01*
X-1082000Y1505320D01*
X-1084380Y1510140D01*
X-1087380Y1514620D01*
X-1090940Y1518680D01*
X-1094980Y1522220D01*
X-1099460Y1525220D01*
X-1104300Y1527600D01*
X-1109400Y1529340D01*
X-1114680Y1530380D01*
X-1120060Y1530740D01*
X-1125440Y1530380D01*
X-1130720Y1529340D01*
X-1135820Y1527600D01*
X-1140660Y1525220D01*
X-1145140Y1522220D01*
X-1149180Y1518680D01*
X-1152740Y1514620D01*
X-1155740Y1510140D01*
X-1158120Y1505320D01*
X-1159840Y1500220D01*
X-1160900Y1494920D01*
X-1161260Y1489540D01*
X-1160900Y1484180D01*
X-1159840Y1478880D01*
X-1158120Y1473779D01*
X-1155740Y1468959D01*
X-1152740Y1464480D01*
X-1149180Y1460420D01*
X-1145140Y1456879D01*
X-1140660Y1453880D01*
X-1135820Y1451500D01*
X-1130720Y1449760D01*
X-1125440Y1448720D01*
G37*
G36*
X807200Y-497819D02*
G01*
X829280Y-497819D01*
X828900Y-496960D01*
X825800Y-491840D01*
X822120Y-487140D01*
X817880Y-482900D01*
X813180Y-479219D01*
X808060Y-476120D01*
X807200Y-475740D01*
G37*
G36*
X135560Y-497819D02*
G01*
X157640Y-497819D01*
X157640Y-475740D01*
X156780Y-476120D01*
X151660Y-479219D01*
X146960Y-482900D01*
X142720Y-487140D01*
X139040Y-491840D01*
X135940Y-496960D01*
G37*
G36*
X-1310000Y1361860D02*
G01*
X-1302380Y1362420D01*
X-1294840Y1363700D01*
X-1287460Y1365720D01*
X-1280320Y1368420D01*
X-1273480Y1371819D01*
X-1266980Y1375840D01*
X-1260900Y1380480D01*
X-1255320Y1385700D01*
X-1250240Y1391420D01*
X-1245760Y1397600D01*
X-1241880Y1404180D01*
X-1238660Y1411120D01*
X-1236120Y1418320D01*
X-1234300Y1425740D01*
X-1233180Y1433300D01*
X-1232820Y1440940D01*
X-1233180Y1448580D01*
X-1234300Y1456140D01*
X-1236120Y1463560D01*
X-1238660Y1470760D01*
X-1241880Y1477700D01*
X-1245760Y1484280D01*
X-1250240Y1490460D01*
X-1255320Y1496180D01*
X-1260900Y1501399D01*
X-1266980Y1506040D01*
X-1273480Y1510060D01*
X-1280320Y1513460D01*
X-1287460Y1516160D01*
X-1294840Y1518160D01*
X-1302380Y1519460D01*
X-1310000Y1520020D01*
X-1317640Y1519820D01*
X-1325220Y1518899D01*
X-1332680Y1517260D01*
X-1339960Y1514900D01*
X-1346960Y1511840D01*
X-1353640Y1508120D01*
X-1359940Y1503779D01*
X-1365780Y1498860D01*
X-1371120Y1493380D01*
X-1375900Y1487420D01*
X-1380080Y1481040D01*
X-1383640Y1474259D01*
X-1386519Y1467200D01*
X-1388700Y1459860D01*
X-1390180Y1452360D01*
X-1390920Y1444760D01*
X-1390920Y1437120D01*
X-1390180Y1429520D01*
X-1388700Y1422020D01*
X-1386519Y1414680D01*
X-1383640Y1407600D01*
X-1380080Y1400840D01*
X-1375900Y1394460D01*
X-1371120Y1388500D01*
X-1365780Y1383020D01*
X-1359940Y1378100D01*
X-1353640Y1373760D01*
X-1346960Y1370040D01*
X-1339960Y1366980D01*
X-1332680Y1364620D01*
X-1325220Y1362980D01*
X-1317640Y1362060D01*
G37*
G36*
X-702060Y1352600D02*
G01*
X-699460Y1353880D01*
X-694980Y1356879D01*
X-690939Y1360420D01*
X-687380Y1364480D01*
X-684380Y1368959D01*
X-683100Y1371540D01*
X-702060Y1371540D01*
G37*
G36*
X-738060Y1352600D02*
G01*
X-738060Y1371540D01*
X-757020Y1371540D01*
X-755740Y1368959D01*
X-752740Y1364480D01*
X-749180Y1360420D01*
X-745140Y1356879D01*
X-740660Y1353880D01*
G37*
G36*
X-1020060Y1348360D02*
G01*
X-1014680Y1348720D01*
X-1009400Y1349760D01*
X-1004300Y1351500D01*
X-999460Y1353880D01*
X-994980Y1356879D01*
X-990939Y1360420D01*
X-987380Y1364480D01*
X-984380Y1368959D01*
X-982000Y1373779D01*
X-980280Y1378880D01*
X-979220Y1384180D01*
X-978860Y1389540D01*
X-979220Y1394920D01*
X-980280Y1400220D01*
X-982000Y1405320D01*
X-984380Y1410140D01*
X-987380Y1414620D01*
X-990939Y1418680D01*
X-994980Y1422220D01*
X-999460Y1425220D01*
X-1004300Y1427600D01*
X-1009400Y1429340D01*
X-1014680Y1430380D01*
X-1020060Y1430740D01*
X-1025440Y1430380D01*
X-1030720Y1429340D01*
X-1035819Y1427600D01*
X-1040660Y1425220D01*
X-1045140Y1422220D01*
X-1049180Y1418680D01*
X-1052740Y1414620D01*
X-1055740Y1410140D01*
X-1058120Y1405320D01*
X-1059840Y1400220D01*
X-1060900Y1394920D01*
X-1061260Y1389540D01*
X-1060900Y1384180D01*
X-1059840Y1378880D01*
X-1058120Y1373779D01*
X-1055740Y1368959D01*
X-1052740Y1364480D01*
X-1049180Y1360420D01*
X-1045140Y1356879D01*
X-1040660Y1353880D01*
X-1035819Y1351500D01*
X-1030720Y1349760D01*
X-1025440Y1348720D01*
G37*
G36*
X-920060Y1348360D02*
G01*
X-914680Y1348720D01*
X-909400Y1349760D01*
X-904300Y1351500D01*
X-899460Y1353880D01*
X-894980Y1356879D01*
X-890939Y1360420D01*
X-887380Y1364480D01*
X-884380Y1368959D01*
X-882000Y1373779D01*
X-880280Y1378880D01*
X-879220Y1384180D01*
X-878860Y1389540D01*
X-879220Y1394920D01*
X-880280Y1400220D01*
X-882000Y1405320D01*
X-884380Y1410140D01*
X-887380Y1414620D01*
X-890939Y1418680D01*
X-894980Y1422220D01*
X-899460Y1425220D01*
X-904300Y1427600D01*
X-909400Y1429340D01*
X-914680Y1430380D01*
X-920060Y1430740D01*
X-925440Y1430380D01*
X-930720Y1429340D01*
X-935819Y1427600D01*
X-940660Y1425220D01*
X-945140Y1422220D01*
X-949180Y1418680D01*
X-952740Y1414620D01*
X-955740Y1410140D01*
X-958120Y1405320D01*
X-959840Y1400220D01*
X-960900Y1394920D01*
X-961260Y1389540D01*
X-960900Y1384180D01*
X-959840Y1378880D01*
X-958120Y1373779D01*
X-955740Y1368959D01*
X-952740Y1364480D01*
X-949180Y1360420D01*
X-945140Y1356879D01*
X-940660Y1353880D01*
X-935819Y1351500D01*
X-930720Y1349760D01*
X-925440Y1348720D01*
G37*
G36*
X-1343460Y-377080D02*
G01*
X-1339319Y-374820D01*
X-1335000Y-371640D01*
X-1331140Y-367900D01*
X-1327820Y-363700D01*
X-1325080Y-359080D01*
X-1324820Y-358440D01*
X-1343460Y-358440D01*
G37*
G36*
X-820060Y1348360D02*
G01*
X-814680Y1348720D01*
X-809400Y1349760D01*
X-804300Y1351500D01*
X-799460Y1353880D01*
X-794980Y1356879D01*
X-790939Y1360420D01*
X-787380Y1364480D01*
X-784380Y1368959D01*
X-782000Y1373779D01*
X-780280Y1378880D01*
X-779220Y1384180D01*
X-778860Y1389540D01*
X-779220Y1394920D01*
X-780280Y1400220D01*
X-782000Y1405320D01*
X-784380Y1410140D01*
X-787380Y1414620D01*
X-790939Y1418680D01*
X-794980Y1422220D01*
X-799460Y1425220D01*
X-804300Y1427600D01*
X-809400Y1429340D01*
X-814680Y1430380D01*
X-820060Y1430740D01*
X-825440Y1430380D01*
X-830720Y1429340D01*
X-835819Y1427600D01*
X-840660Y1425220D01*
X-845140Y1422220D01*
X-849180Y1418680D01*
X-852740Y1414620D01*
X-855740Y1410140D01*
X-858120Y1405320D01*
X-859840Y1400220D01*
X-860900Y1394920D01*
X-861260Y1389540D01*
X-860900Y1384180D01*
X-859840Y1378880D01*
X-858120Y1373779D01*
X-855740Y1368959D01*
X-852740Y1364480D01*
X-849180Y1360420D01*
X-845140Y1356879D01*
X-840660Y1353880D01*
X-835819Y1351500D01*
X-830720Y1349760D01*
X-825440Y1348720D01*
G37*
G36*
X-1150800Y1348340D02*
G01*
X-1089260Y1348340D01*
X-1086760Y1348640D01*
X-1084620Y1349379D01*
X-1082680Y1350600D01*
X-1081080Y1352200D01*
X-1079860Y1354139D01*
X-1079100Y1356279D01*
X-1078820Y1358779D01*
X-1078820Y1420320D01*
X-1079100Y1422820D01*
X-1079860Y1424960D01*
X-1081080Y1426900D01*
X-1082680Y1428500D01*
X-1084620Y1429720D01*
X-1086760Y1430460D01*
X-1089260Y1430740D01*
X-1150800Y1430740D01*
X-1153300Y1430460D01*
X-1155440Y1429720D01*
X-1157380Y1428500D01*
X-1158980Y1426900D01*
X-1160200Y1424960D01*
X-1160940Y1422820D01*
X-1161220Y1420320D01*
X-1161220Y1358779D01*
X-1160940Y1356279D01*
X-1160200Y1354139D01*
X-1158980Y1352200D01*
X-1157380Y1350600D01*
X-1155440Y1349379D01*
X-1153300Y1348640D01*
G37*
G36*
X-303660Y-376079D02*
G01*
X-303660Y-357500D01*
X-322239Y-357500D01*
X-320740Y-360480D01*
X-317700Y-364900D01*
X-314100Y-368900D01*
X-310000Y-372360D01*
X-305460Y-375240D01*
G37*
G36*
X-635620Y971979D02*
G01*
X-615620Y971979D01*
X-615620Y986580D01*
X-625200Y986580D01*
X-627680Y986300D01*
X-629840Y985540D01*
X-631760Y984340D01*
X-633380Y982720D01*
X-634580Y980800D01*
X-635340Y978640D01*
X-635620Y976160D01*
G37*
G36*
X-949360Y-596140D02*
G01*
X-949360Y-577500D01*
X-968259Y-577500D01*
X-967840Y-577940D01*
X-965000Y-582740D01*
X-961660Y-586960D01*
X-957800Y-590700D01*
X-953480Y-593880D01*
G37*
G36*
X-519640Y970280D02*
G01*
X-514480Y970280D01*
X-512000Y970560D01*
X-509840Y971320D01*
X-507920Y972520D01*
X-506300Y974140D01*
X-505100Y976060D01*
X-504340Y978220D01*
X-504060Y980699D01*
X-504060Y982900D01*
X-519640Y982900D01*
G37*
G36*
X-545540Y970280D02*
G01*
X-540380Y970280D01*
X-540380Y982900D01*
X-555960Y982900D01*
X-555960Y980699D01*
X-555680Y978220D01*
X-554920Y976060D01*
X-553720Y974140D01*
X-552100Y972520D01*
X-550180Y971320D01*
X-548020Y970560D01*
G37*
G36*
X-625200Y938620D02*
G01*
X-615620Y938620D01*
X-615620Y953220D01*
X-635620Y953220D01*
X-635620Y949040D01*
X-635340Y946560D01*
X-634580Y944400D01*
X-633380Y942480D01*
X-631760Y940860D01*
X-629840Y939659D01*
X-627680Y938900D01*
G37*
G36*
X-1343460Y-323440D02*
G01*
X-1324820Y-323440D01*
X-1325080Y-322819D01*
X-1327820Y-318200D01*
X-1331140Y-313980D01*
X-1335000Y-310260D01*
X-1339319Y-307060D01*
X-1343460Y-304800D01*
G37*
G36*
X-322239Y-322500D02*
G01*
X-303660Y-322500D01*
X-303660Y-303920D01*
X-305460Y-304760D01*
X-310000Y-307640D01*
X-314100Y-311100D01*
X-317700Y-315100D01*
X-320740Y-319520D01*
G37*
G36*
X-586000Y938620D02*
G01*
X-576420Y938620D01*
X-573940Y938900D01*
X-571780Y939659D01*
X-569860Y940860D01*
X-568240Y942480D01*
X-567040Y944400D01*
X-566280Y946560D01*
X-566000Y949040D01*
X-566000Y953220D01*
X-586000Y953220D01*
G37*
G36*
X-377220Y863439D02*
G01*
X-349840Y863439D01*
X-349840Y890819D01*
X-366800Y890819D01*
X-369280Y890540D01*
X-371440Y889800D01*
X-373360Y888580D01*
X-374980Y886979D01*
X-376180Y885040D01*
X-376940Y882900D01*
X-377220Y880400D01*
G37*
G36*
X-1400840Y863439D02*
G01*
X-1373460Y863439D01*
X-1373460Y890819D01*
X-1390420Y890819D01*
X-1392900Y890540D01*
X-1395060Y889800D01*
X-1396980Y888580D01*
X-1398600Y886979D01*
X-1399800Y885040D01*
X-1400560Y882900D01*
X-1400840Y880400D01*
G37*
G36*
X-1329079Y863439D02*
G01*
X-1301699Y863439D01*
X-1301699Y880400D01*
X-1301980Y882900D01*
X-1302740Y885040D01*
X-1303940Y886979D01*
X-1305560Y888580D01*
X-1307480Y889800D01*
X-1309640Y890540D01*
X-1312120Y890819D01*
X-1329079Y890819D01*
G37*
G36*
X-878840Y-270720D02*
G01*
X-761180Y-270720D01*
X-758680Y-270440D01*
X-756540Y-269680D01*
X-754620Y-268460D01*
X-753000Y-266860D01*
X-751780Y-264920D01*
X-751040Y-262780D01*
X-750759Y-260280D01*
X-750759Y-199720D01*
X-751040Y-197220D01*
X-751780Y-195080D01*
X-753000Y-193140D01*
X-754620Y-191540D01*
X-756540Y-190320D01*
X-758680Y-189560D01*
X-761180Y-189280D01*
X-878840Y-189280D01*
X-881320Y-189560D01*
X-883480Y-190320D01*
X-885400Y-191540D01*
X-887020Y-193140D01*
X-888240Y-195080D01*
X-888980Y-197220D01*
X-889260Y-199720D01*
X-889260Y-260280D01*
X-888980Y-262780D01*
X-888319Y-264680D01*
X-888100Y-266200D01*
X-888460Y-267680D01*
X-889100Y-268580D01*
X-888420Y-268200D01*
X-886740Y-268060D01*
X-885140Y-268640D01*
X-883480Y-269680D01*
X-881320Y-270440D01*
G37*
G36*
X-305460Y763439D02*
G01*
X-278080Y763439D01*
X-278080Y780400D01*
X-278360Y782900D01*
X-279100Y785040D01*
X-280320Y786979D01*
X-281780Y788439D01*
X-282640Y789720D01*
X-282960Y791260D01*
X-282640Y792800D01*
X-281780Y794080D01*
X-280320Y795540D01*
X-279100Y797480D01*
X-278360Y799620D01*
X-278080Y802120D01*
X-278080Y819080D01*
X-305460Y819080D01*
G37*
G36*
X-377220Y763439D02*
G01*
X-349840Y763439D01*
X-349840Y819080D01*
X-377220Y819080D01*
X-377220Y802120D01*
X-376940Y799620D01*
X-376180Y797480D01*
X-374980Y795540D01*
X-373519Y794080D01*
X-372640Y792800D01*
X-372340Y791260D01*
X-372640Y789720D01*
X-373519Y788439D01*
X-374980Y786979D01*
X-376180Y785040D01*
X-376940Y782900D01*
X-377220Y780400D01*
G37*
G36*
X-1400840Y763439D02*
G01*
X-1373460Y763439D01*
X-1373460Y819080D01*
X-1400840Y819080D01*
X-1400840Y802120D01*
X-1400560Y799620D01*
X-1399800Y797480D01*
X-1398600Y795540D01*
X-1397140Y794080D01*
X-1396260Y792800D01*
X-1395960Y791260D01*
X-1396260Y789720D01*
X-1397140Y788439D01*
X-1398600Y786979D01*
X-1399800Y785040D01*
X-1400560Y782900D01*
X-1400840Y780400D01*
G37*
G36*
X-1329079Y763439D02*
G01*
X-1301699Y763439D01*
X-1301699Y780400D01*
X-1301980Y782900D01*
X-1302740Y785040D01*
X-1303940Y786979D01*
X-1305400Y788439D01*
X-1306260Y789720D01*
X-1306579Y791260D01*
X-1306260Y792800D01*
X-1305400Y794080D01*
X-1303940Y795540D01*
X-1302740Y797480D01*
X-1301980Y799620D01*
X-1301699Y802120D01*
X-1301699Y819080D01*
X-1329079Y819080D01*
G37*
G36*
X558420Y-81000D02*
G01*
X573000Y-81000D01*
X573000Y-61000D01*
X568840Y-61000D01*
X566340Y-61280D01*
X564200Y-62020D01*
X562260Y-63240D01*
X560660Y-64840D01*
X559440Y-66780D01*
X558700Y-68920D01*
X558420Y-71420D01*
G37*
G36*
X591780Y-81000D02*
G01*
X606380Y-81000D01*
X606380Y-71420D01*
X606100Y-68920D01*
X605340Y-66780D01*
X604120Y-64840D01*
X602520Y-63240D01*
X600580Y-62020D01*
X598440Y-61280D01*
X595940Y-61000D01*
X591780Y-61000D01*
G37*
G36*
X-1329079Y691680D02*
G01*
X-1312120Y691680D01*
X-1309640Y691979D01*
X-1307480Y692720D01*
X-1305560Y693940D01*
X-1303940Y695540D01*
X-1302740Y697480D01*
X-1301980Y699620D01*
X-1301699Y702120D01*
X-1301699Y719080D01*
X-1329079Y719080D01*
G37*
G36*
X-1390420Y691680D02*
G01*
X-1373460Y691680D01*
X-1373460Y719080D01*
X-1400840Y719080D01*
X-1400840Y702120D01*
X-1400560Y699620D01*
X-1399800Y697480D01*
X-1398600Y695540D01*
X-1396980Y693940D01*
X-1395060Y692720D01*
X-1392900Y691979D01*
G37*
G36*
X591780Y-130600D02*
G01*
X595940Y-130600D01*
X598440Y-130320D01*
X600580Y-129580D01*
X602520Y-128360D01*
X604120Y-126760D01*
X605340Y-124820D01*
X606100Y-122680D01*
X606380Y-120180D01*
X606380Y-110600D01*
X591780Y-110600D01*
G37*
G36*
X568840Y-130600D02*
G01*
X573000Y-130600D01*
X573000Y-110600D01*
X558420Y-110600D01*
X558420Y-120180D01*
X558700Y-122680D01*
X559440Y-124820D01*
X560660Y-126760D01*
X562260Y-128360D01*
X564200Y-129580D01*
X566340Y-130320D01*
G37*
G36*
X-366800Y691680D02*
G01*
X-349840Y691680D01*
X-349840Y719080D01*
X-377220Y719080D01*
X-377220Y702120D01*
X-376940Y699620D01*
X-376180Y697480D01*
X-374980Y695540D01*
X-373360Y693940D01*
X-371440Y692720D01*
X-369280Y691979D01*
G37*
G36*
X-586000Y971979D02*
G01*
X-566000Y971979D01*
X-566000Y976160D01*
X-566280Y978640D01*
X-567040Y980800D01*
X-568240Y982720D01*
X-569860Y984340D01*
X-571780Y985540D01*
X-573940Y986300D01*
X-576420Y986580D01*
X-586000Y986580D01*
G37*

%LPD*%
G36*
X499060Y-574920D02*
G01*
X497520Y-574640D01*
X496180Y-573780D01*
X495300Y-572460D01*
X494980Y-570920D01*
X494820Y-481540D01*
X495080Y-480100D01*
X495840Y-478860D01*
X708800Y-241320D01*
X710140Y-240340D01*
X711780Y-240000D01*
X911000Y-240000D01*
X912520Y-240300D01*
X913820Y-241180D01*
X914680Y-242460D01*
X915000Y-244000D01*
X915000Y-367819D01*
X914780Y-369120D01*
X914140Y-370300D01*
X913160Y-371180D01*
X730520Y-489660D01*
X729820Y-490400D01*
X729980Y-566080D01*
X729680Y-567580D01*
X728840Y-568880D01*
X727580Y-569760D01*
X726060Y-570080D01*
G37*

%LPD*%
D14*
X-320070Y1389600D02*
G01*
X-220470Y1290000D01*
X-167970Y1290000D01*
X-117970Y1240000D01*
D13*
X760000Y352004D02*
G01*
X747444Y339450D01*
X641610Y339450D01*
D11*
X135029Y770000D02*
G01*
X135029Y742500D01*
X135029Y742500D02*
G01*
X135029Y720000D01*
X464828Y720000D01*
X464828Y617199D01*
D10*
X-100000Y1040000D02*
G01*
X-75000Y1040000D01*
X299Y964699D01*
X115329Y964699D01*
X-200000Y1040000D02*
G01*
X-145000Y985000D01*
X-65000Y985000D01*
X-10000Y930000D01*
X95618Y930000D01*
X-317001Y1205000D02*
G01*
X-200000Y1087998D01*
X-200000Y1040000D01*
D11*
X115326Y930000D02*
G01*
X115326Y964699D01*
X102998Y977028D01*
X102998Y1060000D01*
X-990000Y-75000D02*
G01*
X-990000Y45000D01*
X-394970Y640028D01*
X-394970Y659969D01*
X-395001Y660000D01*
D13*
X525329Y325000D02*
G01*
X660029Y325000D01*
X660029Y329499D01*
D14*
X525374Y325000D02*
G01*
X583873Y325000D01*
X660000Y329450D02*
G01*
X655549Y325000D01*
X583873Y325000D01*
X583873Y325000D02*
G01*
X554998Y325000D01*
D10*
X-220051Y1389549D02*
G01*
X-120501Y1290000D01*
X580029Y1290000D01*
X645029Y1225000D01*
X645029Y1195000D01*
X-120051Y1389549D02*
G01*
X-40501Y1310000D01*
X600029Y1310000D01*
X675029Y1235000D01*
X675029Y1180000D01*
X-20051Y1389549D02*
G01*
X39498Y1330000D01*
X610000Y1330000D01*
X710000Y1230000D01*
X710000Y1190000D01*
X859998Y1430000D02*
G01*
X859998Y1364681D01*
X875000Y1349679D01*
X657915Y225590D02*
G01*
X648193Y235311D01*
X600002Y235311D01*
X-1135001Y-315000D02*
G01*
X-940000Y-315000D01*
X-910000Y-285000D01*
X389998Y535000D02*
G01*
X410000Y514998D01*
X410000Y420000D01*
X224828Y899209D02*
G01*
X244209Y899209D01*
X279998Y934998D01*
X279998Y965000D01*
X-35000Y805000D02*
G01*
X-115000Y805000D01*
X-520001Y399998D01*
X-520001Y250000D01*
X-415001Y1100000D02*
G01*
X-420001Y1105000D01*
X-760000Y1105000D01*
X-99970Y920000D02*
G01*
X-99970Y899200D01*
X64828Y899200D01*
D11*
X-699198Y1000000D02*
G01*
X-809198Y890000D01*
X-1075001Y890000D01*
D10*
X194038Y930000D02*
G01*
X254998Y990961D01*
X254998Y1100000D01*
X410000Y420000D02*
G01*
X660000Y420000D01*
X390000Y655000D02*
G01*
X279998Y544998D01*
X279998Y490000D01*
X224828Y800790D02*
G01*
X350789Y800790D01*
X424998Y875000D01*
D11*
X224828Y820500D02*
G01*
X315528Y820500D01*
X579828Y1084800D01*
X579828Y1090000D01*
D10*
X-327641Y290079D02*
G01*
X-444970Y172750D01*
X-444970Y58524D01*
X-130001Y895000D02*
G01*
X-114530Y879529D01*
X64828Y879529D01*
X985000Y25000D02*
G01*
X985000Y-10311D01*
X994998Y-20309D01*
X1050000Y-20317D02*
G01*
X1049993Y-20309D01*
X994998Y-20309D01*
X174678Y140000D02*
G01*
X190000Y124679D01*
X190000Y90000D01*
D11*
X-140171Y-535000D02*
G01*
X-140171Y-484099D01*
X279828Y-535000D02*
G01*
X279828Y-484099D01*
X64828Y800801D02*
G01*
X64998Y800630D01*
X64998Y510000D01*
X174331Y930000D02*
G01*
X174331Y969331D01*
X184998Y980000D01*
X154628Y930000D02*
G01*
X154628Y1154800D01*
X209828Y1210000D01*
X840429Y1010000D02*
G01*
X840628Y1010198D01*
X840628Y1125000D01*
X840429Y1235000D02*
G01*
X840628Y1234801D01*
X840628Y1125000D01*
X135029Y930000D02*
G01*
X135029Y1184800D01*
X109828Y1210000D01*
X919228Y1010000D02*
G01*
X919368Y1010140D01*
X919368Y1125000D01*
X919228Y1235000D02*
G01*
X919368Y1234859D01*
X919368Y1125000D01*
X471828Y710500D02*
G01*
X471828Y686100D01*
X471828Y710500D02*
G01*
X471828Y735000D01*
X471828Y735000D02*
G01*
X471828Y845000D01*
X471828Y893899D02*
G01*
X483729Y893899D01*
X579828Y990000D01*
X471828Y845000D02*
G01*
X471828Y893899D01*
X471828Y686100D02*
G01*
X464828Y679099D01*
X464828Y617199D01*
X464828Y617199D02*
G01*
X409998Y562370D01*
X409998Y420000D01*
X194027Y770000D02*
G01*
X239998Y770000D01*
X244998Y765000D01*
X64828Y820500D02*
G01*
X37328Y820500D01*
X597829Y735000D02*
G01*
X597829Y710500D01*
X597829Y710500D02*
G01*
X597829Y686100D01*
X597829Y845000D02*
G01*
X597829Y735000D01*
D10*
X830000Y-305239D02*
G01*
X994998Y-140239D01*
X994998Y-59679D01*
X174998Y-115000D02*
G01*
X154197Y-135801D01*
X137597Y-135801D01*
X174998Y-234200D02*
G01*
X123293Y-182494D01*
X50005Y-182494D01*
X174998Y-234200D02*
G01*
X159691Y-249506D01*
X159691Y-300000D01*
X120329Y-300000D02*
G01*
X120329Y-275300D01*
X70029Y-225000D01*
X10029Y-225000D01*
X29Y-215000D01*
X29Y-182500D01*
D12*
X-24994Y-317494D02*
G01*
X-112505Y-317494D01*
X-210171Y-219828D01*
X-210171Y66309D01*
X-286140Y142280D01*
D10*
X529690Y-274998D02*
G01*
X545000Y-259688D01*
X545000Y-194200D01*
X490320Y-274998D02*
G01*
X490320Y-250320D01*
X445000Y-205000D01*
X395000Y-205000D01*
X375005Y-185005D01*
X375005Y-162494D01*
X425029Y-162500D02*
G01*
X437529Y-162500D01*
X469228Y-194200D01*
X545029Y-194200D01*
X465000Y-90000D02*
G01*
X470799Y-95799D01*
X507600Y-95799D01*
X95628Y770000D02*
G01*
X95628Y239400D01*
X174628Y160300D01*
X174628Y140000D01*
X657908Y205909D02*
G01*
X569089Y205909D01*
X560000Y215000D01*
X-629970Y-325000D02*
G01*
X-394970Y-325000D01*
X-289970Y-220000D01*
X-289970Y10000D01*
X-319970Y40000D01*
X-319970Y45000D01*
X-1429971Y630000D02*
G01*
X-1429971Y665000D01*
X-1269971Y665000D01*
X-1269971Y-24969D01*
X-1345001Y-100000D01*
X-1385001Y635000D02*
G01*
X-1439971Y580030D01*
X-1439971Y-605000D01*
X-1029970Y-605000D01*
X-1010668Y-585601D01*
X-1010668Y-560000D01*
X-1394971Y580000D02*
G01*
X-1422771Y552199D01*
X-1422771Y-585000D01*
X-1193071Y-585000D01*
X-1168071Y-560000D01*
X-444970Y58501D02*
G01*
X-444970Y-95000D01*
X-689970Y-340000D01*
X-1165000Y-340000D01*
X-1260000Y-245000D01*
X-1265001Y-245000D01*
X-20051Y1489549D02*
G01*
X50398Y1560000D01*
X1030029Y1560000D01*
X1115029Y1475000D01*
X1115029Y898701D01*
X960029Y743701D01*
X79948Y1489549D02*
G01*
X130398Y1540000D01*
X1010029Y1540000D01*
X1095029Y1455000D01*
X1095029Y925300D01*
X992030Y822300D01*
X960029Y822500D01*
X1065000Y1350000D02*
G01*
X1004998Y1350000D01*
X-1134971Y-240000D02*
G01*
X-1099971Y-240000D01*
X-959970Y-100000D01*
X-959970Y35000D01*
X-394970Y600000D01*
X-354970Y600000D01*
X-174970Y780000D01*
X-174970Y805000D01*
X315029Y965000D02*
G01*
X315029Y940000D01*
X254529Y879499D01*
X224828Y879499D01*
X355029Y965000D02*
G01*
X355029Y950000D01*
X264828Y859800D01*
X224828Y859800D01*
X-755000Y1170000D02*
G01*
X-740000Y1185000D01*
X-673001Y1185000D01*
X259998Y140000D02*
G01*
X314690Y140000D01*
X315000Y140309D01*
X344998Y670000D02*
G01*
X344998Y659998D01*
X245000Y560000D01*
X245000Y425000D01*
X224828Y840199D02*
G01*
X285128Y840199D01*
X390029Y945000D01*
X390029Y965000D01*
X115298Y770000D02*
G01*
X115298Y694701D01*
X130000Y680000D01*
X-35001Y760000D02*
G01*
X-85001Y710000D01*
X-160000Y710000D01*
X64828Y859800D02*
G01*
X-134670Y859800D01*
X-239871Y965000D01*
X-359970Y965000D01*
X-464970Y1070000D01*
X-774970Y1070000D01*
X-774970Y1065000D01*
D11*
X64828Y840199D02*
G01*
X-155171Y840199D01*
X-254970Y940000D01*
X-369970Y940000D01*
X-467371Y1037399D01*
X-600771Y1037399D01*
D10*
X-445001Y1165000D02*
G01*
X-617002Y1165000D01*
X-637002Y1185000D01*
X-719970Y1140000D02*
G01*
X-709970Y1130000D01*
X-389970Y1130000D01*
X-389970Y1040000D01*
X-334970Y985000D01*
X-194970Y985000D01*
X-154970Y945000D01*
X-64970Y945000D01*
X-249970Y885000D02*
G01*
X-284970Y920000D01*
X-389970Y920000D01*
X-439970Y970000D01*
X-444970Y970000D01*
X-1374971Y525000D02*
G01*
X-1299971Y450000D01*
X-1299971Y0D01*
X-1404971Y-105000D01*
X-1404971Y-400000D01*
X-1274971Y-400000D01*
X-1169971Y-505000D01*
X-1089371Y-505000D01*
X-1089371Y-560000D01*
X-620051Y1389549D02*
G01*
X-672997Y1336603D01*
X-672997Y1185000D01*
X-820051Y1489549D02*
G01*
X-765501Y1435000D01*
X-604970Y1435000D01*
X-569970Y1400000D01*
X-569970Y1335000D01*
X-429970Y1195000D01*
X-362969Y1195000D01*
X-352969Y1205000D01*
X315029Y140300D02*
G01*
X415429Y140300D01*
X439728Y165000D01*
X445029Y165000D01*
X-359970Y70000D02*
G01*
X-359970Y-245000D01*
X-404970Y-290000D01*
X-594970Y-290000D01*
D11*
X-424970Y-260000D02*
G01*
X-404970Y-240000D01*
X-404970Y150000D01*
X-331971Y223000D01*
X-276971Y223000D01*
X37328Y537300D01*
X37328Y820500D01*
D10*
X-520051Y1389549D02*
G01*
X-520051Y1350079D01*
X-444970Y1275000D01*
X-329970Y1275000D01*
X-169970Y1115000D01*
X-114970Y1115000D01*
X-14970Y1015000D01*
X10029Y1015000D01*
D11*
X424328Y807600D02*
G01*
X356728Y740000D01*
X174328Y740000D01*
X174328Y770000D01*
D44*
X375000Y-15000D02*
G01*
X34998Y-15000D01*
D10*
X124998Y625000D02*
G01*
X125000Y625000D01*
X125000Y505000D01*
X345000Y285000D01*
X772128Y285000D01*
X772128Y225601D01*
D13*
X641619Y430000D02*
G01*
X690000Y430000D01*
X705000Y415000D01*
X795000Y415000D01*
X815000Y395000D01*
X831999Y395000D01*
D10*
X831999Y395000D02*
G01*
X831999Y270558D01*
X844998Y257559D01*
X831999Y395000D02*
G01*
X831999Y358000D01*
X860000Y330000D01*
X944368Y330000D01*
X995029Y279340D01*
X-420070Y1389600D02*
G01*
X-195470Y1165000D01*
X-124970Y1165000D01*
X-24970Y1065000D01*
X-720070Y1489600D02*
G01*
X-669570Y1540000D01*
X-504970Y1540000D01*
X-469970Y1505000D01*
X-469970Y1455000D01*
X-449970Y1435000D01*
X-389970Y1435000D01*
X-369970Y1415000D01*
X-369970Y1370000D01*
X-189970Y1190000D01*
X-104970Y1190000D01*
X25029Y1060000D01*
X67029Y1060000D01*
D14*
X761728Y1010000D02*
G01*
X761728Y583299D01*
X916229Y428800D01*
X960029Y428800D01*
D13*
X868000Y395000D02*
G01*
X901779Y428780D01*
X959998Y428780D01*
D10*
X915029Y199699D02*
G01*
X995029Y200599D01*
X844998Y257559D02*
G01*
X793348Y205909D01*
X772088Y205909D01*
D13*
X868000Y395000D02*
G01*
X868000Y479299D01*
X854998Y492300D01*
D10*
X874998Y1310309D02*
G01*
X854690Y1310309D01*
X830000Y1335000D01*
X830000Y1430000D01*
X825000Y1435000D01*
X-280000Y1435000D01*
X-320051Y1394949D01*
X-320051Y1389549D01*
D14*
X761728Y1235000D02*
G01*
X761889Y1234839D01*
X761889Y1125000D01*
X761728Y1010000D02*
G01*
X761889Y1010160D01*
X761889Y1125000D01*
X-81999Y1240000D02*
G01*
X-51999Y1210000D01*
X9828Y1210000D01*
X761929Y1125000D02*
G01*
X761929Y1140000D01*
X512529Y1140000D01*
X475029Y1177500D01*
X475029Y1260000D01*
X20029Y1260000D01*
X20029Y1210000D01*
X9828Y1210000D01*
G36*
X-879054Y-199488D02*
G01*
X-760945Y-199488D01*
X-760945Y-260511D01*
X-879054Y-260511D01*
G37*
G36*
X558779Y-169594D02*
G01*
X531220Y-169594D01*
X531220Y-218805D01*
X558779Y-218805D01*
G37*
G36*
X596180Y-71194D02*
G01*
X568620Y-71194D01*
X568620Y-120405D01*
X596180Y-120405D01*
G37*
G36*
X521379Y-71194D02*
G01*
X493819Y-71194D01*
X493819Y-120405D01*
X521379Y-120405D01*
G37*
G36*
X61809Y-366003D02*
G01*
X38190Y-366003D01*
X38190Y-428996D01*
X61809Y-428996D01*
G37*
G36*
X11809Y-366003D02*
G01*
X-11809Y-366003D01*
X-11809Y-428996D01*
X11809Y-428996D01*
G37*
G36*
X-38190Y-366003D02*
G01*
X-61809Y-366003D01*
X-61809Y-428996D01*
X-38190Y-428996D01*
G37*
G36*
X-88190Y-366003D02*
G01*
X-111809Y-366003D01*
X-111809Y-428996D01*
X-88190Y-428996D01*
G37*
G36*
X61809Y-151003D02*
G01*
X38190Y-151003D01*
X38190Y-213996D01*
X61809Y-213996D01*
G37*
G36*
X11809Y-151003D02*
G01*
X-11809Y-151003D01*
X-11809Y-213996D01*
X11809Y-213996D01*
G37*
G36*
X-38190Y-151003D02*
G01*
X-61809Y-151003D01*
X-61809Y-213996D01*
X-38190Y-213996D01*
G37*
G36*
X-88190Y-151003D02*
G01*
X-111809Y-151003D01*
X-111809Y-213996D01*
X-88190Y-213996D01*
G37*
G36*
X65550Y-246633D02*
G01*
X-115550Y-246633D01*
X-115550Y-388366D01*
X65550Y-388366D01*
G37*
G36*
X436809Y-346003D02*
G01*
X413190Y-346003D01*
X413190Y-408996D01*
X436809Y-408996D01*
G37*
G36*
X386809Y-346003D02*
G01*
X363190Y-346003D01*
X363190Y-408996D01*
X386809Y-408996D01*
G37*
G36*
X336809Y-346003D02*
G01*
X313190Y-346003D01*
X313190Y-408996D01*
X336809Y-408996D01*
G37*
G36*
X286809Y-346003D02*
G01*
X263190Y-346003D01*
X263190Y-408996D01*
X286809Y-408996D01*
G37*
G36*
X436809Y-131003D02*
G01*
X413190Y-131003D01*
X413190Y-193996D01*
X436809Y-193996D01*
G37*
G36*
X386809Y-131003D02*
G01*
X363190Y-131003D01*
X363190Y-193996D01*
X386809Y-193996D01*
G37*
G36*
X336809Y-131003D02*
G01*
X313190Y-131003D01*
X313190Y-193996D01*
X336809Y-193996D01*
G37*
G36*
X286809Y-131003D02*
G01*
X263190Y-131003D01*
X263190Y-193996D01*
X286809Y-193996D01*
G37*
G36*
X440550Y-226633D02*
G01*
X259449Y-226633D01*
X259449Y-368366D01*
X440550Y-368366D01*
G37*
G36*
X188779Y-209594D02*
G01*
X161220Y-209594D01*
X161220Y-258805D01*
X188779Y-258805D01*
G37*
G36*
X226180Y-111194D02*
G01*
X198620Y-111194D01*
X198620Y-160405D01*
X226180Y-160405D01*
G37*
G36*
X151379Y-111194D02*
G01*
X123819Y-111194D01*
X123819Y-160405D01*
X151379Y-160405D01*
G37*
G36*
X-685470Y1160000D02*
G01*
X-660470Y1160000D01*
X-660470Y1210000D01*
X-685470Y1210000D01*
G37*
G36*
X-649471Y1160000D02*
G01*
X-624471Y1160000D01*
X-624471Y1210000D01*
X-649471Y1210000D01*
G37*
G36*
X54529Y1035000D02*
G01*
X79529Y1035000D01*
X79529Y1085000D01*
X54529Y1085000D01*
G37*
G36*
X90528Y1035000D02*
G01*
X115528Y1035000D01*
X115528Y1085000D01*
X90528Y1085000D01*
G37*
G36*
X-365470Y1180000D02*
G01*
X-340470Y1180000D01*
X-340470Y1230000D01*
X-365470Y1230000D01*
G37*
G36*
X-329471Y1180000D02*
G01*
X-304471Y1180000D01*
X-304471Y1230000D01*
X-329471Y1230000D01*
G37*
D23*
G01*
X854998Y617699D03*
G36*
X820983Y521534D02*
G01*
X889016Y521534D01*
X889016Y463070D01*
X820983Y463070D01*
G37*
G36*
X788819Y200000D02*
G01*
X788819Y211810D01*
X755354Y211810D01*
X755354Y200000D01*
G37*
G36*
X788819Y219684D02*
G01*
X788819Y231496D01*
X755354Y231496D01*
X755354Y219684D01*
G37*
G36*
X750433Y269881D02*
G01*
X738621Y269881D01*
X738621Y236417D01*
X750433Y236417D01*
G37*
G36*
X730748Y269881D02*
G01*
X718936Y269881D01*
X718936Y236417D01*
X730748Y236417D01*
G37*
G36*
X711063Y269881D02*
G01*
X699251Y269881D01*
X699251Y236417D01*
X711063Y236417D01*
G37*
G36*
X691378Y269881D02*
G01*
X679567Y269881D01*
X679567Y236417D01*
X691378Y236417D01*
G37*
G36*
X641180Y231496D02*
G01*
X641180Y219684D01*
X674645Y219684D01*
X674645Y231496D01*
G37*
G36*
X641180Y211810D02*
G01*
X641180Y200000D01*
X674645Y200000D01*
X674645Y211810D01*
G37*
G36*
X679566Y121849D02*
G01*
X711063Y121849D01*
X711063Y171849D01*
X679566Y171849D01*
G37*
G36*
X718936Y121849D02*
G01*
X750433Y121849D01*
X750433Y171849D01*
X718936Y171849D01*
G37*
G36*
X615748Y264843D02*
G01*
X615748Y284528D01*
X584251Y284528D01*
X584251Y264843D01*
G37*
G36*
X615748Y225473D02*
G01*
X615748Y245158D01*
X584251Y245158D01*
X584251Y225473D01*
G37*
G36*
X899251Y170156D02*
G01*
X899251Y150471D01*
X930748Y150471D01*
X930748Y170156D01*
G37*
G36*
X899251Y209526D02*
G01*
X899251Y189841D01*
X930748Y189841D01*
X930748Y209526D01*
G37*
G36*
X621442Y882402D02*
G01*
X574198Y882402D01*
X574198Y807597D01*
X621442Y807597D01*
G37*
G36*
X495452Y882402D02*
G01*
X448208Y882402D01*
X448208Y807597D01*
X495452Y807597D01*
G37*
G36*
X621442Y772402D02*
G01*
X574198Y772402D01*
X574198Y697597D01*
X621442Y697597D01*
G37*
G36*
X495452Y772402D02*
G01*
X448208Y772402D01*
X448208Y697597D01*
X495452Y697597D01*
G37*
G36*
X-545748Y1000156D02*
G01*
X-545748Y980471D01*
X-514251Y980471D01*
X-514251Y1000156D01*
G37*
G36*
X-545748Y1039526D02*
G01*
X-545748Y1019841D01*
X-514251Y1019841D01*
X-514251Y1039526D01*
G37*
G36*
X-674593Y986219D02*
G01*
X-674593Y1013780D01*
X-723806Y1013780D01*
X-723806Y986219D01*
G37*
G36*
X-576193Y948820D02*
G01*
X-576193Y976379D01*
X-625406Y976379D01*
X-625406Y948820D01*
G37*
G36*
X-576193Y1023620D02*
G01*
X-576193Y1051179D01*
X-625406Y1051179D01*
X-625406Y1023620D01*
G37*
G36*
X754803Y24881D02*
G01*
X754803Y-94409D01*
X905196Y-94409D01*
X905196Y24881D01*
G37*
G36*
X754803Y-245590D02*
G01*
X754803Y-364881D01*
X905196Y-364881D01*
X905196Y-245590D01*
G37*
G36*
X1010748Y-30156D02*
G01*
X1010748Y-10471D01*
X979251Y-10471D01*
X979251Y-30156D01*
G37*
G36*
X1010748Y-69526D02*
G01*
X1010748Y-49841D01*
X979251Y-49841D01*
X979251Y-69526D01*
G37*
G36*
X1034251Y-49843D02*
G01*
X1034251Y-69528D01*
X1065748Y-69528D01*
X1065748Y-49843D01*
G37*
G36*
X1034251Y-10473D02*
G01*
X1034251Y-30158D01*
X1065748Y-30158D01*
X1065748Y-10473D01*
G37*
G36*
X194828Y900000D02*
G01*
X94828Y900000D01*
X94828Y800000D01*
X194828Y800000D01*
G37*
G36*
X199041Y754000D02*
G01*
X199041Y785999D01*
X189041Y785999D01*
X189041Y754000D01*
G37*
G36*
X179356Y754000D02*
G01*
X179356Y785999D01*
X169356Y785999D01*
X169356Y754000D01*
G37*
G36*
X159672Y754000D02*
G01*
X159672Y785999D01*
X149672Y785999D01*
X149672Y754000D01*
G37*
G36*
X139985Y754000D02*
G01*
X139985Y785999D01*
X129985Y785999D01*
X129985Y754000D01*
G37*
G36*
X120300Y754000D02*
G01*
X120300Y785999D01*
X110300Y785999D01*
X110300Y754000D01*
G37*
G36*
X100615Y754000D02*
G01*
X100615Y785999D01*
X90615Y785999D01*
X90615Y754000D01*
G37*
G36*
X48828Y795787D02*
G01*
X80829Y795787D01*
X80829Y805787D01*
X48828Y805787D01*
G37*
G36*
X48828Y815471D02*
G01*
X80829Y815471D01*
X80829Y825471D01*
X48828Y825471D01*
G37*
G36*
X48828Y835156D02*
G01*
X80829Y835156D01*
X80829Y845156D01*
X48828Y845156D01*
G37*
G36*
X48828Y854843D02*
G01*
X80829Y854843D01*
X80829Y864843D01*
X48828Y864843D01*
G37*
G36*
X48828Y874528D02*
G01*
X80829Y874528D01*
X80829Y884528D01*
X48828Y884528D01*
G37*
G36*
X48828Y894212D02*
G01*
X80829Y894212D01*
X80829Y904212D01*
X48828Y904212D01*
G37*
G36*
X90615Y945999D02*
G01*
X90615Y914000D01*
X100615Y914000D01*
X100615Y945999D01*
G37*
G36*
X110300Y945999D02*
G01*
X110300Y914000D01*
X120300Y914000D01*
X120300Y945999D01*
G37*
G36*
X129985Y945999D02*
G01*
X129985Y914000D01*
X139985Y914000D01*
X139985Y945999D01*
G37*
G36*
X149672Y945999D02*
G01*
X149672Y914000D01*
X159672Y914000D01*
X159672Y945999D01*
G37*
G36*
X169356Y945999D02*
G01*
X169356Y914000D01*
X179356Y914000D01*
X179356Y945999D01*
G37*
G36*
X189041Y945999D02*
G01*
X189041Y914000D01*
X199041Y914000D01*
X199041Y945999D01*
G37*
G36*
X240829Y904212D02*
G01*
X208828Y904212D01*
X208828Y894212D01*
X240829Y894212D01*
G37*
G36*
X240829Y884528D02*
G01*
X208828Y884528D01*
X208828Y874528D01*
X240829Y874528D01*
G37*
G36*
X240829Y864843D02*
G01*
X208828Y864843D01*
X208828Y854843D01*
X240829Y854843D01*
G37*
G36*
X240829Y845156D02*
G01*
X208828Y845156D01*
X208828Y835156D01*
X240829Y835156D01*
G37*
G36*
X240829Y825471D02*
G01*
X208828Y825471D01*
X208828Y815471D01*
X240829Y815471D01*
G37*
G36*
X240829Y805787D02*
G01*
X208828Y805787D01*
X208828Y795787D01*
X240829Y795787D01*
G37*
G36*
X859251Y1320156D02*
G01*
X859251Y1300471D01*
X890748Y1300471D01*
X890748Y1320156D01*
G37*
G36*
X859251Y1359526D02*
G01*
X859251Y1339841D01*
X890748Y1339841D01*
X890748Y1359526D01*
G37*
G36*
X519843Y-290747D02*
G01*
X539528Y-290747D01*
X539528Y-259252D01*
X519843Y-259252D01*
G37*
G36*
X480473Y-290747D02*
G01*
X500158Y-290747D01*
X500158Y-259252D01*
X480473Y-259252D01*
G37*
G36*
X330748Y169843D02*
G01*
X330748Y189528D01*
X299251Y189528D01*
X299251Y169843D01*
G37*
G36*
X330748Y130473D02*
G01*
X330748Y150158D01*
X299251Y150158D01*
X299251Y130473D01*
G37*
G36*
X145156Y155747D02*
G01*
X125471Y155747D01*
X125471Y124252D01*
X145156Y124252D01*
G37*
G36*
X184526Y155747D02*
G01*
X164841Y155747D01*
X164841Y124252D01*
X184526Y124252D01*
G37*
G36*
X149843Y-315747D02*
G01*
X169528Y-315747D01*
X169528Y-284252D01*
X149843Y-284252D01*
G37*
G36*
X110473Y-315747D02*
G01*
X130158Y-315747D01*
X130158Y-284252D01*
X110473Y-284252D01*
G37*
G36*
X862717Y241810D02*
G01*
X862717Y273306D01*
X827282Y273306D01*
X827282Y241810D01*
G37*
G36*
X862717Y186693D02*
G01*
X862717Y218189D01*
X827282Y218189D01*
X827282Y186693D01*
G37*
G36*
X690235Y539843D02*
G01*
X690235Y501260D01*
X592992Y501260D01*
X592992Y539843D01*
G37*
G36*
X690235Y449290D02*
G01*
X690235Y410709D01*
X592992Y410709D01*
X592992Y449290D01*
G37*
G36*
X690235Y358739D02*
G01*
X690235Y320156D01*
X592992Y320156D01*
X592992Y358739D01*
G37*
D55*
G01*
X418388Y430000D03*
G36*
X722597Y501613D02*
G01*
X722597Y454369D01*
X797402Y454369D01*
X797402Y501613D01*
G37*
G36*
X722597Y375623D02*
G01*
X722597Y328380D01*
X797402Y328380D01*
X797402Y375623D01*
G37*
G36*
X819499Y370000D02*
G01*
X844499Y370000D01*
X844499Y420000D01*
X819499Y420000D01*
G37*
G36*
X855500Y370000D02*
G01*
X880500Y370000D01*
X880500Y420000D01*
X855500Y420000D01*
G37*
G36*
X-69499Y1265000D02*
G01*
X-94499Y1265000D01*
X-94499Y1215000D01*
X-69499Y1215000D01*
G37*
G36*
X-105500Y1265000D02*
G01*
X-130500Y1265000D01*
X-130500Y1215000D01*
X-105500Y1215000D01*
G37*
D35*
G01*
X-220051Y1489549D03*
G01*
X-220051Y1389549D03*
G01*
X-320051Y1489549D03*
G01*
X-420051Y1489549D03*
G01*
X-520051Y1489549D03*
G01*
X-620051Y1489549D03*
G01*
X-720051Y1489549D03*
G01*
X-820051Y1489549D03*
G01*
X-920051Y1489549D03*
G01*
X-1020051Y1489549D03*
G01*
X-1120050Y1489549D03*
G36*
X-1151019Y1420549D02*
G01*
X-1089020Y1420549D01*
X-1089020Y1358550D01*
X-1151019Y1358550D01*
G37*
G01*
X-1020051Y1389549D03*
G01*
X-920051Y1389549D03*
G01*
X-820051Y1389549D03*
G01*
X-720051Y1389549D03*
G01*
X-620051Y1389549D03*
G01*
X-520051Y1389549D03*
G01*
X-420051Y1389549D03*
G01*
X-320051Y1389549D03*
G01*
X779948Y1489549D03*
G01*
X779948Y1389549D03*
G01*
X679948Y1489549D03*
G01*
X579948Y1489549D03*
G01*
X479948Y1489549D03*
G01*
X379948Y1489549D03*
G01*
X279948Y1489549D03*
G01*
X179948Y1489549D03*
G01*
X79948Y1489549D03*
G01*
X-20051Y1489549D03*
G01*
X-120051Y1489549D03*
G01*
X-120051Y1389549D03*
G01*
X-20051Y1389549D03*
G01*
X79948Y1389549D03*
G01*
X179948Y1389549D03*
G01*
X279948Y1389549D03*
G01*
X379948Y1389549D03*
G01*
X479948Y1389549D03*
G01*
X579948Y1389549D03*
G01*
X679948Y1389549D03*
G01*
X-99970Y1040000D03*
G01*
X-199970Y1040000D03*
G36*
X-330970Y1070999D02*
G01*
X-268971Y1070999D01*
X-268971Y1009000D01*
X-330970Y1009000D01*
G37*
D37*
G01*
X959998Y901219D03*
G01*
X959998Y822480D03*
G01*
X959998Y743739D03*
G01*
X959998Y665000D03*
G01*
X959998Y586260D03*
G01*
X959998Y507519D03*
D38*
G01*
X959998Y428780D03*
G36*
X-1198071Y-530000D02*
G01*
X-1138071Y-530000D01*
X-1138071Y-590000D01*
X-1198071Y-590000D01*
G37*
D37*
G01*
X-1089331Y-560000D03*
G01*
X-1010591Y-560000D03*
G01*
X-931850Y-560000D03*
D39*
G01*
X995029Y200599D03*
D40*
G01*
X995029Y279340D03*
G36*
X731728Y1265000D02*
G01*
X791728Y1265000D01*
X791728Y1205000D01*
X731728Y1205000D01*
G37*
D37*
G01*
X840469Y1235000D03*
G01*
X919209Y1235000D03*
G01*
X997948Y1235000D03*
D35*
G01*
X409828Y1210000D03*
G01*
X309828Y1210000D03*
G01*
X209828Y1210000D03*
G01*
X109828Y1210000D03*
G36*
X-21171Y1240999D02*
G01*
X40829Y1240999D01*
X40829Y1179000D01*
X-21171Y1179000D01*
G37*
G36*
X731719Y1040000D02*
G01*
X791719Y1040000D01*
X791719Y980000D01*
X731719Y980000D01*
G37*
D37*
G01*
X840459Y1010000D03*
G01*
X919198Y1010000D03*
G01*
X997938Y1010000D03*
G36*
X731890Y1155000D02*
G01*
X791890Y1155000D01*
X791890Y1095000D01*
X731890Y1095000D01*
G37*
G01*
X840628Y1125000D03*
G01*
X919368Y1125000D03*
G01*
X998109Y1125000D03*
D35*
G01*
X579828Y990000D03*
G01*
X579828Y1090000D03*
D36*
G01*
X579828Y1190000D03*
G36*
X-734369Y-485630D02*
G01*
X-655630Y-485630D01*
X-655630Y-564369D01*
X-734369Y-564369D01*
G37*
D42*
G01*
X-595000Y-525000D03*
D37*
G01*
X-1360941Y-340940D03*
G01*
X-1360941Y141340D03*
G01*
X-286140Y-340000D03*
G01*
X-286140Y142280D03*
G36*
X-367007Y780630D02*
G01*
X-367007Y701889D01*
X-288267Y701889D01*
X-288267Y780630D01*
G37*
G36*
X-367007Y880630D02*
G01*
X-367007Y801889D01*
X-288267Y801889D01*
X-288267Y880630D01*
G37*
G36*
X-367007Y329448D02*
G01*
X-367007Y250709D01*
X-288267Y250709D01*
X-288267Y329448D01*
G37*
G36*
X-367007Y429448D02*
G01*
X-367007Y350709D01*
X-288267Y350709D01*
X-288267Y429448D01*
G37*
G36*
X-1390630Y329448D02*
G01*
X-1390630Y250709D01*
X-1311889Y250709D01*
X-1311889Y329448D01*
G37*
G36*
X-1390630Y429448D02*
G01*
X-1390630Y350709D01*
X-1311889Y350709D01*
X-1311889Y429448D01*
G37*
G36*
X-1390630Y780630D02*
G01*
X-1390630Y701889D01*
X-1311889Y701889D01*
X-1311889Y780630D01*
G37*
G36*
X-1390630Y880630D02*
G01*
X-1390630Y801889D01*
X-1311889Y801889D01*
X-1311889Y880630D01*
G37*
G36*
X579399Y-480630D02*
G01*
X500658Y-480630D01*
X500658Y-559369D01*
X579399Y-559369D01*
G37*
D42*
G01*
X440029Y-520000D03*
G36*
X319198Y-480630D02*
G01*
X240459Y-480630D01*
X240459Y-559369D01*
X319198Y-559369D01*
G37*
G01*
X179828Y-520000D03*
G36*
X-179540Y-559369D02*
G01*
X-100801Y-559369D01*
X-100801Y-480630D01*
X-179540Y-480630D01*
G37*
G01*
X-40171Y-520000D03*
G36*
X645658Y-559369D02*
G01*
X724399Y-559369D01*
X724399Y-480630D01*
X645658Y-480630D01*
G37*
G01*
X785029Y-520000D03*
D43*
G01*
X-1075001Y890000D03*
D16*
G01*
X-210001Y845000D03*
G01*
X154998Y580000D03*
G01*
X429998Y675000D03*
G01*
X464998Y-140000D03*
G01*
X509998Y-150000D03*
G01*
X524998Y-330000D03*
G01*
X614998Y1040000D03*
G01*
X-435001Y1310000D03*
G01*
X874998Y1470000D03*
G01*
X669998Y1325000D03*
G01*
X-755001Y-430000D03*
G01*
X-785001Y-400000D03*
G01*
X-815001Y-375000D03*
G01*
X-1035001Y-485000D03*
G01*
X-1090001Y-475000D03*
G01*
X-1120001Y-450000D03*
G01*
X-1135001Y-415000D03*
G01*
X-1135001Y-380000D03*
G01*
X-950001Y-485000D03*
G01*
X724998Y1065000D03*
G01*
X724998Y950000D03*
G01*
X514998Y1195000D03*
G01*
X514998Y1245000D03*
G01*
X559998Y1245000D03*
G01*
X519998Y1095000D03*
G01*
X-270001Y1550000D03*
G01*
X-370001Y1555000D03*
G01*
X-170001Y1555000D03*
G01*
X-95001Y1555000D03*
G01*
X-15001Y1555000D03*
G01*
X-205001Y1330000D03*
G01*
X-105001Y1325000D03*
G01*
X-680001Y945000D03*
G01*
X-675001Y1040000D03*
G01*
X484998Y190000D03*
G01*
X354998Y255000D03*
G01*
X399998Y175000D03*
G01*
X144998Y90000D03*
G01*
X229998Y90000D03*
G01*
X274998Y90000D03*
G01*
X349998Y105000D03*
G01*
X-350001Y1130000D03*
G01*
X-295001Y1130000D03*
G01*
X-400001Y1165000D03*
G01*
X189998Y1130000D03*
G01*
X-710001Y1220000D03*
G01*
X-1030001Y10000D03*
G01*
X334998Y445000D03*
G01*
X499998Y490000D03*
G01*
X454998Y535000D03*
G01*
X254998Y615000D03*
G01*
X179998Y505000D03*
G01*
X209998Y530000D03*
G01*
X299998Y675000D03*
G01*
X389998Y1005000D03*
G01*
X429998Y985000D03*
G01*
X224998Y1065000D03*
G01*
X184998Y1065000D03*
G01*
X144828Y850000D03*
G01*
X174998Y685000D03*
G01*
X4998Y810000D03*
G01*
X4998Y765000D03*
G01*
X4998Y725000D03*
G01*
X-445001Y1165000D03*
G01*
X-445001Y970000D03*
G01*
X-250001Y885000D03*
G01*
X-160001Y710000D03*
G01*
X-35001Y760000D03*
G01*
X129998Y680000D03*
G01*
X259998Y140000D03*
G01*
X244998Y425000D03*
G01*
X344998Y670000D03*
G01*
X389998Y965000D03*
G01*
X-840001Y1130000D03*
G01*
X1004998Y1350000D03*
G01*
X1064998Y1350000D03*
G01*
X-1305001Y-205000D03*
G01*
X-1305001Y-130000D03*
G01*
X269998Y220000D03*
G01*
X359998Y175000D03*
G01*
X-875001Y560000D03*
G01*
X-960001Y560000D03*
G01*
X-1045001Y560000D03*
G01*
X-1130001Y560000D03*
G01*
X-1220001Y560000D03*
G01*
X-820001Y790000D03*
G01*
X-855001Y755000D03*
G01*
X-890001Y720000D03*
G01*
X-930001Y680000D03*
G01*
X-970001Y640000D03*
G01*
X1014998Y-170000D03*
G01*
X519998Y-390000D03*
G01*
X484998Y-330000D03*
G01*
X484998Y-370000D03*
G01*
X484998Y-405000D03*
G01*
X179998Y-435000D03*
G01*
X184998Y-385000D03*
G01*
X184998Y-345000D03*
G01*
X99998Y-435000D03*
G01*
X99998Y-385000D03*
G01*
X99998Y-345000D03*
G01*
X-285001Y-270000D03*
G01*
X-285001Y-410000D03*
G01*
X-285001Y-445000D03*
G01*
X-285001Y-485000D03*
G01*
X-285001Y-530000D03*
G01*
X49998Y360000D03*
G01*
X-35001Y270000D03*
G01*
X-105001Y200000D03*
G01*
X-160001Y145000D03*
G01*
X-1Y170000D03*
G01*
X-70001Y105000D03*
G01*
X104998Y185000D03*
G01*
X64998Y240000D03*
G01*
X554998Y255000D03*
G01*
X129998Y460000D03*
G01*
X159998Y330000D03*
G01*
X204998Y380000D03*
G01*
X269998Y320000D03*
G01*
X-930001Y-95000D03*
G01*
X-950001Y-215000D03*
G01*
X-985001Y-210000D03*
G01*
X-910001Y-210000D03*
G01*
X219998Y-195000D03*
G01*
X134998Y-75000D03*
G01*
X109998Y-75000D03*
G01*
X84998Y-75000D03*
G01*
X59998Y-75000D03*
G01*
X34998Y-75000D03*
G01*
X134998Y45000D03*
G01*
X109998Y45000D03*
G01*
X84998Y45000D03*
G01*
X59998Y45000D03*
G01*
X34998Y45000D03*
G01*
X464998Y-90000D03*
G01*
X134998Y-45000D03*
G01*
X109998Y-45000D03*
G01*
X84998Y-45000D03*
G01*
X59998Y-45000D03*
G01*
X34998Y-45000D03*
G01*
X-650001Y-250000D03*
G01*
X-635001Y-220000D03*
G01*
X914998Y95000D03*
G01*
X864998Y150000D03*
G01*
X1019998Y55000D03*
G01*
X934998Y70000D03*
G01*
X1019998Y-100000D03*
G01*
X949998Y-240000D03*
G01*
X869998Y-210000D03*
G01*
X949998Y-135000D03*
G01*
X959998Y370000D03*
G01*
X1019998Y645000D03*
G01*
X1044998Y780000D03*
G01*
X1019998Y900000D03*
G01*
X499998Y960000D03*
G01*
X814998Y860000D03*
G01*
X899998Y780000D03*
G01*
X583878Y325000D03*
G01*
X525379Y325000D03*
G01*
X314998Y965000D03*
G01*
X9998Y1015000D03*
G01*
X354998Y965000D03*
G01*
X-25001Y1065000D03*
G01*
X644998Y1195000D03*
G01*
X674998Y1180000D03*
G01*
X709998Y1190000D03*
G01*
X859998Y1430000D03*
G01*
X559998Y215000D03*
G01*
X-1135001Y-240000D03*
G01*
X-910001Y-285000D03*
G01*
X-1135001Y-315000D03*
G01*
X669998Y-115000D03*
G01*
X669998Y-140000D03*
G01*
X669998Y-165000D03*
G01*
X669998Y-195000D03*
G01*
X669998Y-225000D03*
G01*
X254998Y1175000D03*
G01*
X964998Y145000D03*
G01*
X889998Y120000D03*
G01*
X614998Y385000D03*
G01*
X494998Y390000D03*
G01*
X499998Y455000D03*
G01*
X579998Y535000D03*
G01*
X639998Y565000D03*
G01*
X639998Y615000D03*
G01*
X614998Y655000D03*
G01*
X579998Y500000D03*
G01*
X579998Y610000D03*
G01*
X-860001Y-305000D03*
G01*
X-740001Y-305000D03*
G01*
X-1135001Y-200000D03*
G01*
X64998Y435000D03*
G01*
X314998Y520000D03*
G01*
X279998Y420000D03*
G01*
X389998Y535000D03*
G01*
X-320001Y45000D03*
G01*
X-630001Y-325000D03*
G01*
X-595001Y-290000D03*
G01*
X-360001Y70000D03*
G01*
X279998Y490000D03*
G01*
X389998Y655000D03*
G01*
X424998Y875000D03*
G01*
X-820001Y-240000D03*
G01*
X-820001Y-215000D03*
G01*
X-660001Y730000D03*
G01*
X-660001Y755000D03*
G01*
X-660001Y780000D03*
G01*
X-660001Y805000D03*
G01*
X-660001Y830000D03*
G01*
X-660001Y855000D03*
G01*
X604998Y910000D03*
G01*
X544998Y910000D03*
G01*
X474998Y1020000D03*
G01*
X534998Y755000D03*
G01*
X524998Y655000D03*
G01*
X499998Y635000D03*
G01*
X414998Y625000D03*
G01*
X-1265001Y-245000D03*
G01*
X-130001Y895000D03*
G01*
X-175001Y805000D03*
G01*
X984998Y25000D03*
G01*
X-100001Y920000D03*
G01*
X124998Y625000D03*
G01*
X279998Y965000D03*
G01*
X114998Y820000D03*
G01*
X174998Y880000D03*
G01*
X-520001Y250000D03*
G01*
X-35001Y805000D03*
G01*
X174998Y-115000D03*
G01*
X189998Y90000D03*
G01*
X444998Y165000D03*
G01*
X134998Y-15000D03*
G01*
X109998Y-15000D03*
G01*
X84998Y-15000D03*
G01*
X59998Y-15000D03*
G01*
X34998Y-15000D03*
G01*
X134998Y15000D03*
G01*
X109998Y15000D03*
G01*
X84998Y15000D03*
G01*
X59998Y15000D03*
G01*
X34998Y15000D03*
D17*
G01*
X64998Y510000D03*
G01*
X184998Y980000D03*
G01*
X-395001Y660000D03*
G01*
X-990001Y-75000D03*
G01*
X-1345001Y-100000D03*
G01*
X424328Y807600D03*
G01*
X244998Y765000D03*
G01*
X554998Y325000D03*
G01*
X-425001Y-260000D03*
D16*
G01*
X254998Y1100000D03*
G01*
X-415001Y1100000D03*
G01*
X-755001Y1170000D03*
G01*
X-1430001Y630000D03*
G01*
X-760001Y1105000D03*
G01*
X-1385001Y635000D03*
G01*
X-775001Y1065000D03*
G01*
X-1395001Y580000D03*
G01*
X-65001Y945000D03*
G01*
X-720001Y1140000D03*
G01*
X-1375001Y525000D03*
G01*
X-425001Y725000D03*
G01*
X-425001Y770000D03*
G01*
X-425001Y805000D03*
G01*
X-425001Y840000D03*
G01*
X-645001Y665000D03*
G01*
X-630001Y635000D03*
G01*
X-620001Y600000D03*
G01*
X-600001Y565000D03*
G01*
X-590001Y525000D03*
G01*
X-580001Y500000D03*
G01*
X-360001Y650000D03*
G01*
X-925001Y865000D03*
G01*
X-945001Y845000D03*
G01*
X-965001Y825000D03*
G01*
X-985001Y805000D03*
G01*
X-1005001Y785000D03*
G01*
X-1065001Y730000D03*
G01*
X-840001Y1235000D03*
G01*
X174998Y820000D03*
G01*
X114998Y880000D03*
G01*
X-390001Y1310000D03*
G01*
X794998Y605000D03*
G01*
X874998Y545000D03*
G01*
X749998Y540000D03*
G01*
X-315001Y535000D03*
G01*
X-295001Y505000D03*
G01*
X-275001Y475000D03*
G01*
X-185001Y270000D03*
G01*
X-130001Y325000D03*
G01*
X-65001Y390000D03*
G01*
X-1Y455000D03*
G01*
X-20001Y535000D03*
G01*
X-65001Y485000D03*
G01*
X-130001Y430000D03*
G01*
X-200001Y360000D03*
G01*
X114998Y850000D03*
G01*
X174998Y850000D03*
G01*
X144998Y880000D03*
G01*
X144998Y820000D03*
M02*
