G04 Layer: BottomSilkLayer*
G04 EasyEDA v6.4.25, 2021-09-19T11:37:02+02:00*
G04 64e9d69745c74d7bbaee3c671462624f,10*
G04 Gerber Generator version 0.2*
G04 Scale: 100 percent, Rotated: No, Reflected: No *
G04 Dimensions in inches *
G04 leading zeros omitted , absolute positions ,3 integer and 6 decimal *
%FSLAX36Y36*%
%MOIN*%

%ADD10C,0.0100*%
%ADD57C,0.0059*%
%ADD58C,0.0080*%
%ADD59C,0.0060*%
%ADD61C,0.0079*%

%LPD*%
G36*
X899280Y258400D02*
G01*
X897280Y258240D01*
X895500Y257760D01*
X893960Y257000D01*
X892680Y255960D01*
X891640Y254700D01*
X890879Y253220D01*
X890420Y251540D01*
X890297Y249600D01*
X893480Y249600D01*
X893860Y251920D01*
X894980Y253840D01*
X896800Y255120D01*
X899280Y255600D01*
X901460Y255200D01*
X903180Y254080D01*
X904280Y252360D01*
X904680Y250100D01*
X904040Y247440D01*
X902340Y245460D01*
X899900Y243960D01*
X897080Y242700D01*
X895540Y244259D01*
X894400Y245920D01*
X893720Y247700D01*
X893480Y249600D01*
X890297Y249600D01*
X890699Y247240D01*
X891780Y245020D01*
X893220Y243140D01*
X894780Y241700D01*
X894780Y241500D01*
X892680Y240120D01*
X890879Y238280D01*
X889640Y235920D01*
X889195Y233000D01*
X892680Y233000D01*
X893400Y235960D01*
X895380Y238120D01*
X898240Y239760D01*
X901680Y241200D01*
X903600Y239680D01*
X905120Y237880D01*
X906120Y235799D01*
X906480Y233500D01*
X905920Y231000D01*
X904400Y229000D01*
X902120Y227680D01*
X899280Y227200D01*
X896560Y227620D01*
X894479Y228820D01*
X893139Y230660D01*
X892680Y233000D01*
X889195Y233000D01*
X889360Y231180D01*
X889900Y229579D01*
X890780Y228140D01*
X891979Y226880D01*
X893439Y225859D01*
X895160Y225060D01*
X897120Y224579D01*
X899280Y224400D01*
X901480Y224560D01*
X903480Y225060D01*
X905280Y225840D01*
X906800Y226880D01*
X908060Y228180D01*
X908980Y229680D01*
X909580Y231360D01*
X909780Y233200D01*
X909240Y236260D01*
X907840Y238820D01*
X905879Y240859D01*
X903680Y242399D01*
X903680Y242600D01*
X905380Y243960D01*
X906780Y245640D01*
X907720Y247680D01*
X908080Y250100D01*
X907900Y251900D01*
X907400Y253500D01*
X906600Y254920D01*
X905540Y256119D01*
X904260Y257100D01*
X902760Y257800D01*
X901080Y258240D01*
G37*
G36*
X925380Y257900D02*
G01*
X922960Y257780D01*
X920759Y257440D01*
X918820Y256820D01*
X917159Y255900D01*
X915819Y254660D01*
X914820Y253100D01*
X914180Y251140D01*
X913980Y248800D01*
X917680Y248800D01*
X918199Y251660D01*
X919780Y253540D01*
X922360Y254579D01*
X925879Y254899D01*
X931680Y254899D01*
X931680Y242300D01*
X925879Y242300D01*
X922360Y242700D01*
X919780Y243900D01*
X918199Y245920D01*
X917680Y248800D01*
X913980Y248800D01*
X914520Y245300D01*
X916040Y242620D01*
X918439Y240720D01*
X921580Y239600D01*
X913080Y225000D01*
X917280Y225000D01*
X925480Y239200D01*
X931680Y239200D01*
X931680Y225000D01*
X935380Y225000D01*
X935380Y257900D01*
G37*
G36*
X398560Y867360D02*
G01*
X395980Y867220D01*
X393600Y866860D01*
X391400Y866260D01*
X389400Y865460D01*
X387620Y864440D01*
X386019Y863240D01*
X384660Y861880D01*
X383519Y860340D01*
X382640Y858660D01*
X381980Y856840D01*
X381580Y854900D01*
X381460Y852840D01*
X381800Y850040D01*
X382700Y847620D01*
X383980Y845580D01*
X385460Y843940D01*
X387960Y846060D01*
X386640Y847420D01*
X385640Y849000D01*
X384980Y850800D01*
X384760Y852840D01*
X385000Y855140D01*
X385700Y857220D01*
X386840Y859040D01*
X388420Y860600D01*
X390379Y861860D01*
X392720Y862780D01*
X395420Y863360D01*
X398459Y863560D01*
X401480Y863360D01*
X404200Y862800D01*
X406580Y861900D01*
X408579Y860680D01*
X410200Y859160D01*
X411380Y857340D01*
X412100Y855280D01*
X412360Y852960D01*
X412100Y850699D01*
X411360Y848680D01*
X410160Y846880D01*
X408560Y845260D01*
X410860Y843160D01*
X412860Y845160D01*
X414320Y847480D01*
X415240Y850120D01*
X415560Y853160D01*
X415420Y855160D01*
X415020Y857039D01*
X414380Y858820D01*
X413500Y860480D01*
X412380Y861979D01*
X411019Y863319D01*
X409460Y864500D01*
X407660Y865500D01*
X405680Y866280D01*
X403500Y866860D01*
X401120Y867220D01*
G37*
G36*
X411960Y837440D02*
G01*
X411960Y830060D01*
X386659Y830060D01*
X386659Y835860D01*
X384360Y835860D01*
X383920Y833880D01*
X383380Y832140D01*
X382760Y830600D01*
X382060Y829260D01*
X382060Y826440D01*
X411960Y826440D01*
X411960Y819740D01*
X415060Y819740D01*
X415060Y837440D01*
G37*
G36*
X408560Y752360D02*
G01*
X405980Y752220D01*
X403600Y751860D01*
X401400Y751260D01*
X399400Y750460D01*
X397620Y749440D01*
X396019Y748240D01*
X394660Y746880D01*
X393519Y745340D01*
X392640Y743660D01*
X391980Y741840D01*
X391580Y739900D01*
X391460Y737840D01*
X391800Y735040D01*
X392700Y732620D01*
X393980Y730580D01*
X395460Y728940D01*
X397960Y731060D01*
X396640Y732420D01*
X395640Y734000D01*
X394980Y735800D01*
X394760Y737840D01*
X395000Y740140D01*
X395700Y742220D01*
X396840Y744040D01*
X398420Y745600D01*
X400379Y746860D01*
X402720Y747780D01*
X405420Y748360D01*
X408459Y748560D01*
X411480Y748360D01*
X414200Y747800D01*
X416580Y746900D01*
X418579Y745680D01*
X420200Y744160D01*
X421380Y742340D01*
X422100Y740280D01*
X422360Y737960D01*
X422100Y735699D01*
X421360Y733680D01*
X420160Y731880D01*
X418560Y730260D01*
X420860Y728160D01*
X422860Y730160D01*
X424320Y732480D01*
X425240Y735120D01*
X425560Y738160D01*
X425420Y740160D01*
X425020Y742039D01*
X424380Y743820D01*
X423500Y745480D01*
X422380Y746979D01*
X421019Y748319D01*
X419460Y749500D01*
X417660Y750500D01*
X415680Y751280D01*
X413500Y751860D01*
X411120Y752220D01*
G37*
G36*
X396260Y724659D02*
G01*
X394320Y722620D01*
X392800Y720420D01*
X391800Y717920D01*
X391460Y715060D01*
X391620Y712980D01*
X392140Y711140D01*
X392960Y709520D01*
X394080Y708180D01*
X395480Y707099D01*
X397140Y706300D01*
X399040Y705819D01*
X401160Y705660D01*
X402800Y705759D01*
X404480Y706080D01*
X406140Y706580D01*
X407840Y707300D01*
X409540Y708199D01*
X411280Y709260D01*
X413020Y710500D01*
X414799Y711900D01*
X418420Y715160D01*
X422160Y718940D01*
X421860Y714820D01*
X421860Y704060D01*
X425060Y704060D01*
X425060Y724460D01*
X422760Y724460D01*
X418400Y719680D01*
X416360Y717640D01*
X414400Y715840D01*
X412520Y714260D01*
X410720Y712920D01*
X409000Y711780D01*
X407340Y710860D01*
X405740Y710140D01*
X404200Y709640D01*
X402700Y709340D01*
X401260Y709260D01*
X398540Y709620D01*
X396380Y710780D01*
X394960Y712700D01*
X394460Y715460D01*
X394760Y717480D01*
X395580Y719340D01*
X396820Y721040D01*
X398360Y722560D01*
G37*
G36*
X-491280Y1045100D02*
G01*
X-493340Y1044900D01*
X-495180Y1044300D01*
X-496760Y1043340D01*
X-498100Y1042080D01*
X-499159Y1040540D01*
X-499940Y1038780D01*
X-500400Y1036820D01*
X-500580Y1034700D01*
X-500200Y1031220D01*
X-499180Y1028379D01*
X-497740Y1026100D01*
X-496079Y1024300D01*
X-493680Y1026200D01*
X-495120Y1027740D01*
X-496380Y1029599D01*
X-497239Y1031820D01*
X-497580Y1034500D01*
X-497120Y1037260D01*
X-495820Y1039460D01*
X-493780Y1040879D01*
X-491079Y1041400D01*
X-489640Y1041260D01*
X-488320Y1040840D01*
X-487160Y1040100D01*
X-486180Y1039040D01*
X-485360Y1037600D01*
X-484780Y1035780D01*
X-484400Y1033560D01*
X-484280Y1030900D01*
X-481380Y1030900D01*
X-480880Y1035260D01*
X-479500Y1038139D01*
X-477440Y1039720D01*
X-474880Y1040200D01*
X-472680Y1039800D01*
X-470980Y1038660D01*
X-469860Y1036820D01*
X-469480Y1034400D01*
X-469720Y1032440D01*
X-470400Y1030660D01*
X-471460Y1029000D01*
X-472780Y1027500D01*
X-470379Y1025500D01*
X-468840Y1027400D01*
X-467600Y1029520D01*
X-466780Y1031919D01*
X-466480Y1034599D01*
X-466599Y1036540D01*
X-467020Y1038340D01*
X-467680Y1039920D01*
X-468600Y1041280D01*
X-469760Y1042380D01*
X-471160Y1043199D01*
X-472760Y1043720D01*
X-474580Y1043900D01*
X-477380Y1043480D01*
X-479680Y1042300D01*
X-481440Y1040440D01*
X-482680Y1038000D01*
X-482780Y1038000D01*
X-483840Y1040759D01*
X-485640Y1043020D01*
X-488120Y1044539D01*
G37*
G36*
X-499980Y1019900D02*
G01*
X-499980Y1002200D01*
X-496980Y1002200D01*
X-496980Y1009599D01*
X-471680Y1009599D01*
X-471680Y1003800D01*
X-469280Y1003800D01*
X-468860Y1005780D01*
X-468360Y1007520D01*
X-467760Y1009080D01*
X-467080Y1010500D01*
X-467080Y1013199D01*
X-496980Y1013199D01*
X-496980Y1019900D01*
G37*
G36*
X-499980Y996900D02*
G01*
X-499980Y992700D01*
X-485780Y984500D01*
X-485780Y978300D01*
X-482680Y978300D01*
X-482680Y984100D01*
X-482280Y987620D01*
X-481079Y990180D01*
X-479040Y991760D01*
X-476180Y992300D01*
X-473320Y991760D01*
X-471440Y990180D01*
X-470400Y987620D01*
X-470080Y984100D01*
X-470080Y978300D01*
X-499980Y978300D01*
X-499980Y974599D01*
X-467080Y974599D01*
X-467080Y984700D01*
X-467180Y987120D01*
X-467560Y989300D01*
X-468180Y991260D01*
X-469099Y992920D01*
X-470340Y994260D01*
X-471920Y995260D01*
X-473860Y995879D01*
X-476180Y996100D01*
X-479660Y995540D01*
X-482340Y993980D01*
X-484240Y991540D01*
X-485379Y988400D01*
G37*
G36*
X1011700Y-79360D02*
G01*
X1009400Y-79620D01*
X1007300Y-80399D01*
X1005440Y-81679D01*
X1003860Y-83460D01*
X1002560Y-85760D01*
X1001600Y-88560D01*
X1001000Y-91860D01*
X1000925Y-93280D01*
X1004300Y-93280D01*
X1004580Y-90800D01*
X1005040Y-88620D01*
X1005699Y-86740D01*
X1006540Y-85200D01*
X1007560Y-83980D01*
X1008760Y-83080D01*
X1010140Y-82560D01*
X1011700Y-82380D01*
X1014000Y-82920D01*
X1015840Y-84500D01*
X1017060Y-86920D01*
X1017500Y-90079D01*
X1017120Y-93200D01*
X1015980Y-95600D01*
X1014040Y-97120D01*
X1011300Y-97660D01*
X1009640Y-97440D01*
X1007880Y-96660D01*
X1006060Y-95300D01*
X1004300Y-93280D01*
X1000925Y-93280D01*
X1000800Y-95680D01*
X1000920Y-98760D01*
X1001260Y-101500D01*
X1001800Y-103960D01*
X1002520Y-106080D01*
X1003400Y-107940D01*
X1004440Y-109500D01*
X1005600Y-110780D01*
X1006880Y-111820D01*
X1008259Y-112600D01*
X1009720Y-113140D01*
X1011240Y-113460D01*
X1012800Y-113560D01*
X1015160Y-113320D01*
X1017200Y-112640D01*
X1018940Y-111580D01*
X1020400Y-110280D01*
X1018300Y-107980D01*
X1017159Y-109040D01*
X1015879Y-109820D01*
X1014479Y-110300D01*
X1013000Y-110480D01*
X1011280Y-110300D01*
X1009680Y-109740D01*
X1008199Y-108780D01*
X1006919Y-107360D01*
X1005840Y-105440D01*
X1005000Y-103000D01*
X1004440Y-100000D01*
X1004200Y-96380D01*
X1005900Y-98040D01*
X1007820Y-99300D01*
X1009820Y-100100D01*
X1011800Y-100360D01*
X1013800Y-100220D01*
X1015580Y-99740D01*
X1017140Y-98940D01*
X1018460Y-97800D01*
X1019500Y-96359D01*
X1020260Y-94600D01*
X1020740Y-92500D01*
X1020900Y-90079D01*
X1020720Y-87800D01*
X1020160Y-85740D01*
X1019300Y-83920D01*
X1018180Y-82360D01*
X1016800Y-81100D01*
X1015240Y-80160D01*
X1013540Y-79580D01*
G37*
G36*
X974599Y-79960D02*
G01*
X974599Y-97260D01*
X984100Y-97260D01*
X987620Y-97660D01*
X990180Y-98859D01*
X991760Y-100900D01*
X992300Y-103760D01*
X991760Y-106640D01*
X990180Y-108560D01*
X987620Y-109640D01*
X984100Y-109960D01*
X978300Y-109960D01*
X978300Y-97260D01*
X974599Y-97260D01*
X974599Y-112980D01*
X984700Y-112980D01*
X987120Y-112860D01*
X989300Y-112480D01*
X991260Y-111860D01*
X992920Y-110920D01*
X994260Y-109660D01*
X995260Y-108080D01*
X995879Y-106120D01*
X996100Y-103760D01*
X995540Y-100320D01*
X993980Y-97640D01*
X991540Y-95719D01*
X988400Y-94560D01*
X996900Y-79960D01*
X992700Y-79960D01*
X984500Y-94160D01*
X978300Y-94160D01*
X978300Y-79960D01*
G37*
G36*
X1063020Y-81260D02*
G01*
X1063180Y-84360D01*
X1063780Y-90020D01*
X1064240Y-92640D01*
X1064800Y-95140D01*
X1065460Y-97560D01*
X1066280Y-99880D01*
X1067200Y-102160D01*
X1068280Y-104400D01*
X1069500Y-106620D01*
X1070880Y-108840D01*
X1072420Y-111060D01*
X1056220Y-111060D01*
X1056220Y-114160D01*
X1076620Y-114160D01*
X1076620Y-111960D01*
X1074800Y-109500D01*
X1073220Y-107120D01*
X1071880Y-104760D01*
X1070740Y-102400D01*
X1069800Y-100060D01*
X1069020Y-97660D01*
X1068400Y-95220D01*
X1067900Y-92700D01*
X1067500Y-90060D01*
X1066980Y-84380D01*
X1066820Y-81260D01*
G37*
G36*
X1030420Y-81260D02*
G01*
X1030420Y-98560D01*
X1039920Y-98560D01*
X1043439Y-98960D01*
X1046000Y-100160D01*
X1047580Y-102200D01*
X1048120Y-105060D01*
X1047580Y-107920D01*
X1046000Y-109800D01*
X1043439Y-110840D01*
X1039920Y-111160D01*
X1034120Y-111160D01*
X1034120Y-98560D01*
X1030420Y-98560D01*
X1030420Y-114160D01*
X1040420Y-114160D01*
X1042860Y-114060D01*
X1045060Y-113680D01*
X1047020Y-113059D01*
X1048680Y-112140D01*
X1050000Y-110900D01*
X1051000Y-109320D01*
X1051600Y-107380D01*
X1051820Y-105060D01*
X1051280Y-101580D01*
X1049740Y-98900D01*
X1047340Y-97000D01*
X1044220Y-95860D01*
X1052720Y-81260D01*
X1048520Y-81260D01*
X1040320Y-95460D01*
X1034120Y-95460D01*
X1034120Y-81260D01*
G37*
G36*
X847500Y1403540D02*
G01*
X845140Y1403280D01*
X843100Y1402600D01*
X841360Y1401540D01*
X839900Y1400240D01*
X842000Y1397940D01*
X843139Y1399000D01*
X844419Y1399780D01*
X845819Y1400260D01*
X847300Y1400440D01*
X849020Y1400260D01*
X850620Y1399720D01*
X852099Y1398760D01*
X853379Y1397360D01*
X854440Y1395460D01*
X855260Y1393000D01*
X855800Y1389980D01*
X856000Y1386339D01*
X854340Y1388020D01*
X852460Y1389319D01*
X850440Y1390140D01*
X848400Y1390440D01*
X846440Y1390260D01*
X844680Y1389780D01*
X843139Y1388959D01*
X841840Y1387820D01*
X840800Y1386360D01*
X840040Y1384560D01*
X839560Y1382460D01*
X839400Y1380040D01*
X842800Y1380040D01*
X843180Y1383160D01*
X844320Y1385560D01*
X846260Y1387100D01*
X849000Y1387640D01*
X850660Y1387400D01*
X852420Y1386639D01*
X854240Y1385260D01*
X856000Y1383240D01*
X855720Y1380780D01*
X855260Y1378620D01*
X854599Y1376759D01*
X853760Y1375200D01*
X852740Y1373959D01*
X851540Y1373060D01*
X850160Y1372520D01*
X848600Y1372340D01*
X846300Y1372900D01*
X844460Y1374500D01*
X843240Y1376940D01*
X842800Y1380040D01*
X839400Y1380040D01*
X839599Y1377760D01*
X840140Y1375720D01*
X841000Y1373899D01*
X842120Y1372360D01*
X843500Y1371120D01*
X845060Y1370200D01*
X846760Y1369620D01*
X848600Y1369440D01*
X850900Y1369680D01*
X853000Y1370460D01*
X854860Y1371740D01*
X856440Y1373520D01*
X857740Y1375800D01*
X858700Y1378580D01*
X859300Y1381860D01*
X859500Y1385640D01*
X859380Y1388720D01*
X859040Y1391480D01*
X858520Y1393920D01*
X857780Y1396060D01*
X856900Y1397900D01*
X855860Y1399460D01*
X854700Y1400740D01*
X853420Y1401780D01*
X852039Y1402560D01*
X850580Y1403100D01*
X849060Y1403420D01*
G37*
G36*
X871800Y1402940D02*
G01*
X871800Y1373040D01*
X865100Y1373040D01*
X865100Y1370040D01*
X882800Y1370040D01*
X882800Y1373040D01*
X875400Y1373040D01*
X875400Y1398340D01*
X881200Y1398340D01*
X881200Y1400740D01*
X879220Y1401140D01*
X877480Y1401639D01*
X875920Y1402240D01*
X874500Y1402940D01*
G37*
G36*
X900300Y1402940D02*
G01*
X897880Y1402820D01*
X895699Y1402460D01*
X893740Y1401819D01*
X892080Y1400900D01*
X890740Y1399660D01*
X889740Y1398080D01*
X889120Y1396140D01*
X888900Y1393839D01*
X892700Y1393839D01*
X893240Y1396680D01*
X894820Y1398560D01*
X897380Y1399620D01*
X900900Y1399940D01*
X906700Y1399940D01*
X906700Y1387240D01*
X900900Y1387240D01*
X897380Y1387640D01*
X894820Y1388880D01*
X893240Y1390940D01*
X892700Y1393839D01*
X888900Y1393839D01*
X889460Y1390340D01*
X891020Y1387640D01*
X893460Y1385720D01*
X896600Y1384540D01*
X888100Y1370040D01*
X892300Y1370040D01*
X900500Y1384240D01*
X906700Y1384240D01*
X906700Y1370040D01*
X910400Y1370040D01*
X910400Y1402940D01*
G37*
G36*
X540000Y-304360D02*
G01*
X536520Y-304740D01*
X533680Y-305760D01*
X531400Y-307200D01*
X529600Y-308880D01*
X531500Y-311260D01*
X533060Y-309840D01*
X534900Y-308620D01*
X537120Y-307780D01*
X539800Y-307460D01*
X542560Y-307920D01*
X544760Y-309200D01*
X546180Y-311220D01*
X546700Y-313880D01*
X546560Y-315340D01*
X546140Y-316660D01*
X545400Y-317820D01*
X544340Y-318800D01*
X542900Y-319600D01*
X541080Y-320180D01*
X538860Y-320540D01*
X536200Y-320680D01*
X536200Y-323560D01*
X540560Y-324060D01*
X543440Y-325439D01*
X545020Y-327500D01*
X545500Y-330080D01*
X545100Y-332299D01*
X543960Y-334020D01*
X542120Y-335140D01*
X539700Y-335560D01*
X537740Y-335280D01*
X535940Y-334600D01*
X534300Y-333579D01*
X532800Y-332260D01*
X530800Y-334680D01*
X532700Y-336200D01*
X534820Y-337440D01*
X537220Y-338260D01*
X539900Y-338560D01*
X541860Y-338440D01*
X543640Y-338020D01*
X545220Y-337340D01*
X546580Y-336420D01*
X547680Y-335240D01*
X548500Y-333840D01*
X549020Y-332220D01*
X549200Y-330360D01*
X548780Y-327580D01*
X547560Y-325319D01*
X545700Y-323600D01*
X543300Y-322380D01*
X543300Y-322180D01*
X546060Y-321120D01*
X548320Y-319320D01*
X549840Y-316860D01*
X550400Y-313760D01*
X550200Y-311700D01*
X549600Y-309860D01*
X548640Y-308240D01*
X547380Y-306900D01*
X545840Y-305820D01*
X544080Y-305020D01*
X542120Y-304540D01*
G37*
G36*
X504600Y-304960D02*
G01*
X504600Y-322260D01*
X514099Y-322260D01*
X517620Y-322660D01*
X520180Y-323860D01*
X521760Y-325900D01*
X522299Y-328760D01*
X521760Y-331640D01*
X520180Y-333560D01*
X517620Y-334640D01*
X514099Y-334960D01*
X508300Y-334960D01*
X508300Y-322260D01*
X504600Y-322260D01*
X504600Y-337980D01*
X514700Y-337980D01*
X517120Y-337860D01*
X519300Y-337480D01*
X521260Y-336860D01*
X522920Y-335920D01*
X524260Y-334660D01*
X525260Y-333080D01*
X525880Y-331120D01*
X526100Y-328760D01*
X525540Y-325319D01*
X523980Y-322640D01*
X521540Y-320720D01*
X518400Y-319560D01*
X526900Y-304960D01*
X522700Y-304960D01*
X514500Y-319160D01*
X508300Y-319160D01*
X508300Y-304960D01*
G37*
G36*
X359200Y166460D02*
G01*
X359200Y161980D01*
X350000Y161980D01*
X350000Y158480D01*
X359200Y158480D01*
X359200Y147980D01*
X362100Y147980D01*
X362100Y158480D01*
X374159Y158500D01*
X378700Y158760D01*
X378700Y158560D01*
X373900Y155980D01*
X362100Y147980D01*
X359200Y147980D01*
X359200Y144080D01*
X361599Y144080D01*
X382900Y158060D01*
X382900Y161980D01*
X362100Y161980D01*
X362100Y166460D01*
G37*
G36*
X350000Y141860D02*
G01*
X350000Y137780D01*
X364200Y129480D01*
X364200Y123360D01*
X367299Y123360D01*
X367299Y129080D01*
X367700Y132580D01*
X368900Y135160D01*
X370920Y136740D01*
X373800Y137260D01*
X376659Y136740D01*
X378540Y135160D01*
X379580Y132580D01*
X379900Y129080D01*
X379900Y123360D01*
X350000Y123360D01*
X350000Y119560D01*
X382900Y119560D01*
X382900Y129680D01*
X382780Y132080D01*
X382440Y134280D01*
X381820Y136220D01*
X380900Y137880D01*
X379660Y139220D01*
X378100Y140240D01*
X376140Y140860D01*
X373800Y141060D01*
X370300Y140520D01*
X367620Y138980D01*
X365720Y136560D01*
X364600Y133360D01*
G37*
G36*
X127020Y202900D02*
G01*
X127020Y173100D01*
X120340Y173100D01*
X120340Y170000D01*
X138020Y170000D01*
X138020Y173100D01*
X130740Y173100D01*
X130740Y198299D01*
X136540Y198299D01*
X136540Y200700D01*
X134500Y201119D01*
X132740Y201620D01*
X131180Y202200D01*
X129840Y202900D01*
G37*
G36*
X151720Y202900D02*
G01*
X151720Y173100D01*
X145020Y173100D01*
X145020Y170000D01*
X162840Y170000D01*
X162840Y173100D01*
X155420Y173100D01*
X155420Y198299D01*
X161220Y198299D01*
X161220Y200700D01*
X159200Y201119D01*
X157420Y201620D01*
X155880Y202200D01*
X154520Y202900D01*
G37*
G36*
X180340Y202900D02*
G01*
X177920Y202780D01*
X175720Y202440D01*
X173780Y201820D01*
X172120Y200900D01*
X170780Y199660D01*
X169760Y198100D01*
X169140Y196140D01*
X168939Y193800D01*
X172740Y193800D01*
X173260Y196660D01*
X174840Y198540D01*
X177420Y199579D01*
X180920Y199899D01*
X186620Y199899D01*
X186620Y187300D01*
X180920Y187300D01*
X177420Y187700D01*
X174840Y188900D01*
X173260Y190920D01*
X172740Y193800D01*
X168939Y193800D01*
X169480Y190300D01*
X171020Y187620D01*
X173440Y185720D01*
X176620Y184600D01*
X168140Y170000D01*
X172220Y170000D01*
X180520Y184200D01*
X186620Y184200D01*
X186620Y170000D01*
X190420Y170000D01*
X190420Y202900D01*
G37*
G36*
X183200Y-266600D02*
G01*
X183200Y-287000D01*
X185400Y-287000D01*
X189800Y-282180D01*
X191840Y-280140D01*
X193800Y-278320D01*
X195660Y-276740D01*
X197460Y-275380D01*
X199180Y-274240D01*
X200840Y-273320D01*
X202420Y-272600D01*
X203960Y-272100D01*
X205460Y-271800D01*
X206900Y-271700D01*
X209600Y-272080D01*
X211759Y-273240D01*
X213180Y-275200D01*
X213700Y-278000D01*
X213400Y-279960D01*
X212580Y-281800D01*
X211340Y-283480D01*
X209800Y-285000D01*
X211900Y-287200D01*
X213880Y-285140D01*
X215380Y-282920D01*
X216360Y-280440D01*
X216700Y-277600D01*
X216520Y-275500D01*
X216020Y-273620D01*
X215200Y-272000D01*
X214080Y-270640D01*
X212680Y-269560D01*
X211040Y-268760D01*
X209180Y-268260D01*
X207100Y-268100D01*
X205420Y-268200D01*
X203740Y-268520D01*
X202040Y-269060D01*
X200340Y-269780D01*
X198619Y-270680D01*
X196900Y-271760D01*
X195159Y-273000D01*
X193380Y-274400D01*
X191600Y-275940D01*
X187960Y-279460D01*
X186100Y-281400D01*
X186300Y-276000D01*
X186300Y-266600D01*
G37*
G36*
X183200Y-292000D02*
G01*
X183200Y-309700D01*
X186200Y-309700D01*
X186200Y-302300D01*
X211500Y-302300D01*
X211500Y-308100D01*
X213900Y-308100D01*
X214320Y-306120D01*
X214820Y-304380D01*
X215400Y-302820D01*
X216100Y-301400D01*
X216100Y-298700D01*
X186200Y-298700D01*
X186200Y-292000D01*
G37*
G36*
X183200Y-315000D02*
G01*
X183200Y-319200D01*
X197399Y-327400D01*
X197399Y-333600D01*
X200500Y-333600D01*
X200500Y-327800D01*
X200900Y-324280D01*
X202100Y-321719D01*
X204120Y-320140D01*
X207000Y-319600D01*
X209860Y-320140D01*
X211740Y-321719D01*
X212780Y-324280D01*
X213100Y-327800D01*
X213100Y-333600D01*
X183200Y-333600D01*
X183200Y-337299D01*
X216100Y-337299D01*
X216100Y-327200D01*
X215980Y-324780D01*
X215620Y-322600D01*
X214980Y-320640D01*
X214060Y-318980D01*
X212820Y-317640D01*
X211240Y-316640D01*
X209320Y-316020D01*
X207000Y-315800D01*
X203500Y-316360D01*
X200820Y-317920D01*
X198920Y-320360D01*
X197800Y-323500D01*
G37*
D59*
X582848Y-13249D02*
G01*
X586949Y-15248D01*
X591049Y-19349D01*
X593149Y-23449D01*
X595149Y-29648D01*
X595149Y-39848D01*
X593149Y-45949D01*
X591049Y-50048D01*
X586949Y-54149D01*
X582848Y-56149D01*
X574648Y-56149D01*
X570649Y-54149D01*
X566548Y-50048D01*
X564449Y-45949D01*
X562448Y-39848D01*
X562448Y-29648D01*
X564449Y-23449D01*
X566548Y-19349D01*
X570649Y-15248D01*
X574648Y-13249D01*
X582848Y-13249D01*
X576748Y-48049D02*
G01*
X564449Y-60248D01*
X548949Y-21448D02*
G01*
X544849Y-19349D01*
X538648Y-13249D01*
X538648Y-56149D01*
X500649Y-19349D02*
G01*
X502649Y-15248D01*
X508849Y-13249D01*
X512948Y-13249D01*
X519048Y-15248D01*
X523149Y-21448D01*
X525149Y-31649D01*
X525149Y-41849D01*
X523149Y-50048D01*
X519048Y-54149D01*
X512948Y-56149D01*
X510848Y-56149D01*
X504749Y-54149D01*
X500649Y-50048D01*
X498648Y-43948D01*
X498648Y-41849D01*
X500649Y-35749D01*
X504749Y-31649D01*
X510848Y-29648D01*
X512948Y-29648D01*
X519048Y-31649D01*
X523149Y-35749D01*
X525149Y-41849D01*
X6297Y-93400D02*
G01*
X10397Y-95399D01*
X14498Y-99499D01*
X16598Y-103600D01*
X18598Y-109800D01*
X18598Y-120000D01*
X16598Y-126100D01*
X14498Y-130199D01*
X10397Y-134299D01*
X6297Y-136300D01*
X-1902Y-136300D01*
X-5901Y-134299D01*
X-10002Y-130199D01*
X-12102Y-126100D01*
X-14102Y-120000D01*
X-14102Y-109800D01*
X-12102Y-103600D01*
X-10002Y-99499D01*
X-5901Y-95399D01*
X-1902Y-93400D01*
X6297Y-93400D01*
X198Y-128200D02*
G01*
X-12102Y-140399D01*
X-27601Y-101599D02*
G01*
X-31702Y-99499D01*
X-37902Y-93400D01*
X-37902Y-136300D01*
X-63602Y-93400D02*
G01*
X-57502Y-95399D01*
X-53401Y-101599D01*
X-51401Y-111799D01*
X-51401Y-117899D01*
X-53401Y-128200D01*
X-57502Y-134299D01*
X-63602Y-136300D01*
X-67701Y-136300D01*
X-73901Y-134299D01*
X-77902Y-128200D01*
X-80002Y-117899D01*
X-80002Y-111799D01*
X-77902Y-101599D01*
X-73901Y-95399D01*
X-67701Y-93400D01*
X-63602Y-93400D01*
X382597Y-78400D02*
G01*
X386697Y-80399D01*
X390797Y-84499D01*
X392897Y-88600D01*
X394898Y-94800D01*
X394898Y-105000D01*
X392897Y-111100D01*
X390797Y-115199D01*
X386697Y-119299D01*
X382597Y-121300D01*
X374398Y-121300D01*
X370397Y-119299D01*
X366297Y-115199D01*
X364197Y-111100D01*
X362197Y-105000D01*
X362197Y-94800D01*
X364197Y-88600D01*
X366297Y-84499D01*
X370397Y-80399D01*
X374398Y-78400D01*
X382597Y-78400D01*
X376498Y-113200D02*
G01*
X364197Y-125399D01*
X319997Y-78400D02*
G01*
X340497Y-121300D01*
X348698Y-78400D02*
G01*
X319997Y-78400D01*
X192848Y-53249D02*
G01*
X196949Y-55248D01*
X201049Y-59349D01*
X203149Y-63449D01*
X205149Y-69648D01*
X205149Y-79848D01*
X203149Y-85949D01*
X201049Y-90048D01*
X196949Y-94149D01*
X192848Y-96149D01*
X184648Y-96149D01*
X180649Y-94149D01*
X176548Y-90048D01*
X174449Y-85949D01*
X172448Y-79848D01*
X172448Y-69648D01*
X174449Y-63449D01*
X176548Y-59349D01*
X180649Y-55248D01*
X184648Y-53249D01*
X192848Y-53249D01*
X186748Y-88049D02*
G01*
X174449Y-100248D01*
X158949Y-61448D02*
G01*
X154849Y-59349D01*
X148648Y-53249D01*
X148648Y-96149D01*
X-605000Y1159591D02*
G01*
X-605000Y1202545D01*
X-605000Y1159591D02*
G01*
X-586590Y1159591D01*
X-580455Y1161635D01*
X-578409Y1163681D01*
X-576364Y1167773D01*
X-576364Y1173908D01*
X-578409Y1178000D01*
X-580455Y1180045D01*
X-586590Y1182091D01*
X-605000Y1182091D01*
X-562863Y1159591D02*
G01*
X-552636Y1202545D01*
X-542408Y1159591D02*
G01*
X-552636Y1202545D01*
X-542408Y1159591D02*
G01*
X-532182Y1202545D01*
X-521954Y1159591D02*
G01*
X-532182Y1202545D01*
X-508455Y1159591D02*
G01*
X-508455Y1202545D01*
X-508455Y1159591D02*
G01*
X-492091Y1202545D01*
X-475726Y1159591D02*
G01*
X-492091Y1202545D01*
X-475726Y1159591D02*
G01*
X-475726Y1202545D01*
X50000Y964591D02*
G01*
X50000Y1007545D01*
X50000Y964591D02*
G01*
X68409Y964591D01*
X74544Y966635D01*
X76590Y968681D01*
X78635Y972773D01*
X78635Y976864D01*
X76590Y980954D01*
X74544Y983000D01*
X68409Y985045D01*
X50000Y985045D01*
X64318Y985045D02*
G01*
X78635Y1007545D01*
X92136Y964591D02*
G01*
X120772Y1007545D01*
X120772Y964591D02*
G01*
X92136Y1007545D01*
X-275681Y1184591D02*
G01*
X-275681Y1227545D01*
X-290000Y1184591D02*
G01*
X-261364Y1184591D01*
X-247863Y1184591D02*
G01*
X-219227Y1227545D01*
X-219227Y1184591D02*
G01*
X-247863Y1227545D01*
X865201Y700700D02*
G01*
X869301Y698600D01*
X873401Y694499D01*
X875402Y690500D01*
X875402Y682300D01*
X873401Y678200D01*
X869301Y674099D01*
X865201Y671999D01*
X859002Y670000D01*
X848801Y670000D01*
X842701Y671999D01*
X838602Y674099D01*
X834502Y678200D01*
X832502Y682300D01*
X832502Y690500D01*
X834502Y694499D01*
X838602Y698600D01*
X842701Y700700D01*
X867201Y714200D02*
G01*
X869301Y718299D01*
X875402Y724400D01*
X832502Y724400D01*
X867201Y737899D02*
G01*
X869301Y741999D01*
X875402Y748099D01*
X832502Y748099D01*
X749349Y221851D02*
G01*
X749349Y191150D01*
X747349Y185050D01*
X743248Y180951D01*
X737048Y178951D01*
X732948Y178951D01*
X726849Y180951D01*
X722749Y185050D01*
X720748Y191150D01*
X720748Y221851D01*
X696949Y221851D02*
G01*
X703149Y219850D01*
X705149Y215751D01*
X705149Y211651D01*
X703149Y207550D01*
X699048Y205450D01*
X690848Y203451D01*
X684749Y201451D01*
X680649Y197350D01*
X678549Y193251D01*
X678549Y187051D01*
X680649Y182950D01*
X682649Y180951D01*
X688849Y178951D01*
X696949Y178951D01*
X703149Y180951D01*
X705149Y182950D01*
X707249Y187051D01*
X707249Y193251D01*
X705149Y197350D01*
X701049Y201451D01*
X694948Y203451D01*
X686748Y205450D01*
X682649Y207550D01*
X680649Y211651D01*
X680649Y215751D01*
X682649Y219850D01*
X688849Y221851D01*
X696949Y221851D01*
X550401Y195000D02*
G01*
X507501Y195000D01*
X550401Y195000D02*
G01*
X550401Y213400D01*
X548401Y219499D01*
X546301Y221599D01*
X542200Y223600D01*
X538100Y223600D01*
X534000Y221599D01*
X532001Y219499D01*
X530001Y213400D01*
X530001Y195000D01*
X530001Y209299D02*
G01*
X507501Y223600D01*
X542200Y237100D02*
G01*
X544300Y241199D01*
X550401Y247399D01*
X507501Y247399D01*
X550401Y281300D02*
G01*
X521800Y260900D01*
X521800Y291500D01*
X550401Y281300D02*
G01*
X507501Y281300D01*
X-617300Y1115399D02*
G01*
X-613200Y1113400D01*
X-609101Y1109299D01*
X-607001Y1105199D01*
X-605001Y1099000D01*
X-605001Y1088800D01*
X-607001Y1082699D01*
X-609101Y1078600D01*
X-613200Y1074499D01*
X-617300Y1072500D01*
X-625501Y1072500D01*
X-629501Y1074499D01*
X-633600Y1078600D01*
X-635700Y1082699D01*
X-637700Y1088800D01*
X-637700Y1099000D01*
X-635700Y1105199D01*
X-633600Y1109299D01*
X-629501Y1113400D01*
X-625501Y1115399D01*
X-617300Y1115399D01*
X-623401Y1080599D02*
G01*
X-635700Y1068400D01*
X-651201Y1107199D02*
G01*
X-655300Y1109299D01*
X-661500Y1115399D01*
X-661500Y1072500D01*
X-695401Y1115399D02*
G01*
X-675001Y1086799D01*
X-705600Y1086799D01*
X-695401Y1115399D02*
G01*
X-695401Y1072500D01*
D58*
X-2095000Y749272D02*
G01*
X-2095000Y825635D01*
X-2095000Y749272D02*
G01*
X-2065909Y825635D01*
X-2036817Y749272D02*
G01*
X-2065909Y825635D01*
X-2036817Y749272D02*
G01*
X-2036817Y825635D01*
X-2012818Y749272D02*
G01*
X-2009182Y752908D01*
X-2005545Y749272D01*
X-2009182Y745635D01*
X-2012818Y749272D01*
X-2009182Y774726D02*
G01*
X-2009182Y825635D01*
X-1981545Y774726D02*
G01*
X-1981545Y825635D01*
X-1981545Y789272D02*
G01*
X-1970635Y778364D01*
X-1963364Y774726D01*
X-1952455Y774726D01*
X-1945181Y778364D01*
X-1941545Y789272D01*
X-1941545Y825635D01*
X-1917545Y749272D02*
G01*
X-1913908Y752908D01*
X-1910273Y749272D01*
X-1913908Y745635D01*
X-1917545Y749272D01*
X-1913908Y774726D02*
G01*
X-1913908Y825635D01*
X-1842636Y749272D02*
G01*
X-1879000Y749272D01*
X-1882636Y781999D01*
X-1879000Y778364D01*
X-1868090Y774726D01*
X-1857182Y774726D01*
X-1846273Y778364D01*
X-1839000Y785635D01*
X-1835363Y796545D01*
X-1835363Y803818D01*
X-1839000Y814726D01*
X-1846273Y821999D01*
X-1857182Y825635D01*
X-1868090Y825635D01*
X-1879000Y821999D01*
X-1882636Y818364D01*
X-1886273Y811091D01*
X-1767726Y760181D02*
G01*
X-1771363Y752908D01*
X-1782273Y749272D01*
X-1789544Y749272D01*
X-1800455Y752908D01*
X-1807726Y763818D01*
X-1811363Y781999D01*
X-1811363Y800181D01*
X-1807726Y814726D01*
X-1800455Y821999D01*
X-1789544Y825635D01*
X-1785909Y825635D01*
X-1775000Y821999D01*
X-1767726Y814726D01*
X-1764090Y803818D01*
X-1764090Y800181D01*
X-1767726Y789272D01*
X-1775000Y781999D01*
X-1785909Y778364D01*
X-1789544Y778364D01*
X-1800455Y781999D01*
X-1807726Y789272D01*
X-1811363Y800181D01*
X-1718272Y749272D02*
G01*
X-1729182Y752908D01*
X-1736455Y763818D01*
X-1740091Y781999D01*
X-1740091Y792908D01*
X-1736455Y811091D01*
X-1729182Y821999D01*
X-1718272Y825635D01*
X-1710999Y825635D01*
X-1700091Y821999D01*
X-1692818Y811091D01*
X-1689182Y792908D01*
X-1689182Y781999D01*
X-1692818Y763818D01*
X-1700091Y752908D01*
X-1710999Y749272D01*
X-1718272Y749272D01*
X-464273Y371817D02*
G01*
X-467908Y364544D01*
X-475182Y357273D01*
X-482454Y353636D01*
X-493364Y350000D01*
X-511544Y350000D01*
X-522454Y353636D01*
X-529727Y357273D01*
X-536999Y364544D01*
X-540636Y371817D01*
X-540636Y386363D01*
X-536999Y393636D01*
X-529727Y400909D01*
X-522454Y404544D01*
X-511544Y408182D01*
X-493364Y408182D01*
X-482454Y404544D01*
X-475182Y400909D01*
X-467908Y393636D01*
X-464273Y386363D01*
X-464273Y371817D01*
X-464273Y432181D02*
G01*
X-518818Y432181D01*
X-529727Y435817D01*
X-536999Y443090D01*
X-540636Y454000D01*
X-540636Y461273D01*
X-536999Y472181D01*
X-529727Y479454D01*
X-518818Y483090D01*
X-464273Y483090D01*
X-464273Y532545D02*
G01*
X-540636Y532545D01*
X-464273Y507091D02*
G01*
X-464273Y558000D01*
X-464273Y581999D02*
G01*
X-540636Y581999D01*
X-464273Y581999D02*
G01*
X-464273Y614726D01*
X-467908Y625635D01*
X-471544Y629272D01*
X-478818Y632908D01*
X-489727Y632908D01*
X-496999Y629272D01*
X-500636Y625635D01*
X-504273Y614726D01*
X-504273Y581999D01*
X-464273Y656909D02*
G01*
X-518818Y656909D01*
X-529727Y660545D01*
X-536999Y667818D01*
X-540636Y678726D01*
X-540636Y685999D01*
X-536999Y696909D01*
X-529727Y704182D01*
X-518818Y707818D01*
X-464273Y707818D01*
X-464273Y757273D02*
G01*
X-540636Y757273D01*
X-464273Y731817D02*
G01*
X-464273Y782726D01*
X-1189272Y415000D02*
G01*
X-1265635Y415000D01*
X-1189272Y439000D02*
G01*
X-1265635Y439000D01*
X-1189272Y439000D02*
G01*
X-1265635Y489908D01*
X-1189272Y489908D02*
G01*
X-1265635Y489908D01*
X-1189272Y513908D02*
G01*
X-1265635Y513908D01*
X-1189272Y513908D02*
G01*
X-1189272Y546635D01*
X-1192908Y557545D01*
X-1196545Y561181D01*
X-1203818Y564818D01*
X-1214726Y564818D01*
X-1221999Y561181D01*
X-1225635Y557545D01*
X-1229272Y546635D01*
X-1229272Y513908D01*
X-1189272Y588818D02*
G01*
X-1243818Y588818D01*
X-1254726Y592454D01*
X-1261999Y599726D01*
X-1265635Y610635D01*
X-1265635Y617908D01*
X-1261999Y628818D01*
X-1254726Y636091D01*
X-1243818Y639726D01*
X-1189272Y639726D01*
X-1189272Y689182D02*
G01*
X-1265635Y689182D01*
X-1189272Y663726D02*
G01*
X-1189272Y714636D01*
X-442091Y810000D02*
G01*
X-442091Y744544D01*
X-1267091Y810000D02*
G01*
X-1267091Y744544D01*
X-1232273Y290181D02*
G01*
X-1232273Y355635D01*
X-1265000Y322908D02*
G01*
X-1199546Y322908D01*
X-437273Y300181D02*
G01*
X-437273Y365635D01*
X-470000Y332908D02*
G01*
X-404546Y332908D01*
D59*
X652497Y-32604D02*
G01*
X695397Y-32604D01*
X652497Y-32604D02*
G01*
X652497Y-46903D01*
X654498Y-53103D01*
X658598Y-57103D01*
X662698Y-59203D01*
X668897Y-61203D01*
X679098Y-61203D01*
X685198Y-59203D01*
X689297Y-57103D01*
X693397Y-53103D01*
X695397Y-46903D01*
X695397Y-32604D01*
X660698Y-74704D02*
G01*
X658598Y-78804D01*
X652497Y-85003D01*
X695397Y-85003D01*
X300402Y830000D02*
G01*
X269702Y830000D01*
X263603Y831999D01*
X259503Y836100D01*
X257502Y842300D01*
X257502Y846399D01*
X259503Y852500D01*
X263603Y856599D01*
X269702Y858600D01*
X300402Y858600D01*
X292202Y872100D02*
G01*
X294302Y876199D01*
X300402Y882399D01*
X257502Y882399D01*
X845182Y125682D02*
G01*
X849273Y123636D01*
X853365Y119544D01*
X855410Y115455D01*
X855410Y107273D01*
X853365Y103182D01*
X849273Y99090D01*
X845182Y97044D01*
X839045Y95000D01*
X828819Y95000D01*
X822682Y97044D01*
X818591Y99090D01*
X814501Y103182D01*
X812456Y107273D01*
X812456Y115455D01*
X814501Y119544D01*
X818591Y123636D01*
X822682Y125682D01*
X841091Y165772D02*
G01*
X834956Y163726D01*
X830865Y159636D01*
X828819Y153499D01*
X828819Y151455D01*
X830865Y145318D01*
X834956Y141226D01*
X841091Y139182D01*
X843136Y139182D01*
X849273Y141226D01*
X853365Y145318D01*
X855410Y151455D01*
X855410Y153499D01*
X853365Y159636D01*
X849273Y163726D01*
X841091Y165772D01*
X830865Y165772D01*
X820636Y163726D01*
X814501Y159636D01*
X812456Y153499D01*
X812456Y149409D01*
X814501Y143272D01*
X818591Y141226D01*
X530000Y234600D02*
G01*
X530000Y265300D01*
X531999Y271399D01*
X536099Y275500D01*
X542299Y277500D01*
X546400Y277500D01*
X552500Y275500D01*
X556599Y271399D01*
X558599Y265300D01*
X558599Y234600D01*
X596700Y234600D02*
G01*
X576199Y234600D01*
X574200Y253000D01*
X576199Y250999D01*
X582399Y248899D01*
X588500Y248899D01*
X594600Y250999D01*
X598699Y255000D01*
X600799Y261199D01*
X600799Y265300D01*
X598699Y271399D01*
X594600Y275500D01*
X588500Y277500D01*
X582399Y277500D01*
X576199Y275500D01*
X574200Y273499D01*
X572100Y269400D01*
X769498Y568501D02*
G01*
X773599Y566401D01*
X777699Y562301D01*
X779699Y558301D01*
X779699Y550100D01*
X777699Y546001D01*
X773599Y541900D01*
X769498Y539801D01*
X763298Y537800D01*
X753099Y537800D01*
X746998Y539801D01*
X742898Y541900D01*
X738798Y546001D01*
X736799Y550100D01*
X736799Y558301D01*
X738798Y562301D01*
X742898Y566401D01*
X746998Y568501D01*
X771499Y582001D02*
G01*
X773599Y586100D01*
X779699Y592201D01*
X736799Y592201D01*
X769498Y607800D02*
G01*
X771499Y607800D01*
X775599Y609801D01*
X777699Y611801D01*
X779699Y615900D01*
X779699Y624101D01*
X777699Y628200D01*
X775599Y630300D01*
X771499Y632301D01*
X767398Y632301D01*
X763298Y630300D01*
X757199Y626201D01*
X736799Y605700D01*
X736799Y634301D01*
X855699Y314800D02*
G01*
X853599Y310700D01*
X849499Y306599D01*
X845500Y304600D01*
X837299Y304600D01*
X833199Y306599D01*
X829099Y310700D01*
X826999Y314800D01*
X825000Y320999D01*
X825000Y331199D01*
X826999Y337300D01*
X829099Y341399D01*
X833199Y345500D01*
X837299Y347500D01*
X845500Y347500D01*
X849499Y345500D01*
X853599Y341399D01*
X855699Y337300D01*
X855699Y331199D01*
X845500Y331199D02*
G01*
X855699Y331199D01*
X893699Y304600D02*
G01*
X873299Y304600D01*
X871199Y323000D01*
X873299Y320999D01*
X879399Y318899D01*
X885500Y318899D01*
X891700Y320999D01*
X895799Y325000D01*
X897799Y331199D01*
X897799Y335300D01*
X895799Y341399D01*
X891700Y345500D01*
X885500Y347500D01*
X879399Y347500D01*
X873299Y345500D01*
X871199Y343499D01*
X869200Y339400D01*
X-130699Y1325199D02*
G01*
X-128599Y1329299D01*
X-124499Y1333400D01*
X-120500Y1335399D01*
X-112300Y1335399D01*
X-108199Y1333400D01*
X-104099Y1329299D01*
X-101999Y1325199D01*
X-100000Y1319000D01*
X-100000Y1308800D01*
X-101999Y1302699D01*
X-104099Y1298600D01*
X-108199Y1294499D01*
X-112300Y1292500D01*
X-120500Y1292500D01*
X-124499Y1294499D01*
X-128599Y1298600D01*
X-130699Y1302699D01*
X-130699Y1308800D01*
X-120500Y1308800D02*
G01*
X-130699Y1308800D01*
X-164600Y1335399D02*
G01*
X-144200Y1306799D01*
X-174899Y1306799D01*
X-164600Y1335399D02*
G01*
X-164600Y1292500D01*
D10*
X576499Y-170590D02*
G01*
X602479Y-170590D01*
X576499Y-170590D01*
X602479Y-170590D01*
X602479Y-138499D01*
X487519Y-138499D02*
G01*
X487519Y-170590D01*
X513500Y-170590D01*
D61*
X533190Y-109569D02*
G01*
X556809Y-109569D01*
D10*
X75000Y-160000D02*
G01*
X75000Y-415000D01*
X-125000Y-160000D02*
G01*
X-125000Y-415000D01*
X450000Y-140000D02*
G01*
X450000Y-395000D01*
X250000Y-140000D02*
G01*
X250000Y-395000D01*
X206499Y-210590D02*
G01*
X232479Y-210590D01*
X206499Y-210590D01*
X232479Y-210590D01*
X232479Y-178499D01*
X117519Y-178499D02*
G01*
X117519Y-210590D01*
X143500Y-210590D01*
D61*
X163190Y-149569D02*
G01*
X186809Y-149569D01*
D10*
X-623971Y1224000D02*
G01*
X-685970Y1224000D01*
X-685970Y1145999D02*
G01*
X-623971Y1145999D01*
X116028Y1099000D02*
G01*
X54029Y1099000D01*
X54029Y1020999D02*
G01*
X116028Y1020999D01*
X-303971Y1244000D02*
G01*
X-365970Y1244000D01*
X-365970Y1165999D02*
G01*
X-303971Y1165999D01*
D59*
X898015Y649929D02*
G01*
X898015Y591464D01*
X811984Y591464D02*
G01*
X811984Y649929D01*
X817983Y655929D02*
G01*
X892016Y655929D01*
X898015Y460070D02*
G01*
X898015Y518535D01*
X811984Y518535D02*
G01*
X811984Y460070D01*
X817983Y454070D02*
G01*
X892016Y454070D01*
D10*
X765000Y121849D02*
G01*
X790000Y121849D01*
X790000Y186849D01*
X790000Y241849D02*
G01*
X790000Y266849D01*
X760000Y266849D01*
X670000Y266849D02*
G01*
X645000Y266849D01*
X645000Y241849D01*
X670000Y121849D02*
G01*
X645000Y121849D01*
X645000Y186849D01*
D57*
X623622Y292397D02*
G01*
X576377Y292397D01*
X623622Y262082D02*
G01*
X623622Y292397D01*
X623622Y217593D02*
G01*
X576377Y217593D01*
X623622Y247908D02*
G01*
X623622Y217593D01*
X576377Y247908D02*
G01*
X576377Y217593D01*
X576377Y262082D02*
G01*
X576377Y292397D01*
D10*
X-1420000Y-400000D02*
G01*
X-227089Y-400000D01*
X-227089Y200390D01*
X-1420000Y200390D01*
X-1420000Y-400000D01*
X-945000Y-360000D02*
G01*
X-675000Y-360000D01*
X-675000Y-10000D01*
X-945000Y-10000D01*
X-945000Y-360000D01*
D57*
X891377Y142602D02*
G01*
X938622Y142602D01*
X891377Y172917D02*
G01*
X891377Y142602D01*
X891377Y217406D02*
G01*
X938622Y217406D01*
X891377Y187091D02*
G01*
X891377Y217406D01*
X938622Y187091D02*
G01*
X938622Y217406D01*
X938622Y172917D02*
G01*
X938622Y142602D01*
D10*
X436403Y884369D02*
G01*
X436403Y805630D01*
X574198Y892244D02*
G01*
X621442Y892244D01*
X574198Y797755D02*
G01*
X621442Y797755D01*
X495457Y892244D02*
G01*
X448215Y892244D01*
X495457Y797755D02*
G01*
X448215Y797755D01*
X633253Y884369D02*
G01*
X633253Y805630D01*
X625379Y892244D02*
G01*
X621442Y892244D01*
X625379Y797755D02*
G01*
X621442Y797755D01*
X444277Y892244D02*
G01*
X448215Y892244D01*
X444277Y797755D02*
G01*
X448215Y797755D01*
X436403Y774369D02*
G01*
X436403Y695630D01*
X574198Y782244D02*
G01*
X621442Y782244D01*
X574198Y687755D02*
G01*
X621442Y687755D01*
X495457Y782244D02*
G01*
X448215Y782244D01*
X495457Y687755D02*
G01*
X448215Y687755D01*
X633253Y774369D02*
G01*
X633253Y695630D01*
X625379Y782244D02*
G01*
X621442Y782244D01*
X625379Y687755D02*
G01*
X621442Y687755D01*
X444277Y782244D02*
G01*
X448215Y782244D01*
X444277Y687755D02*
G01*
X448215Y687755D01*
D57*
X-553622Y972602D02*
G01*
X-506377Y972602D01*
X-553622Y1002917D02*
G01*
X-553622Y972602D01*
X-553622Y1047406D02*
G01*
X-506377Y1047406D01*
X-553622Y1017091D02*
G01*
X-553622Y1047406D01*
X-506377Y1017091D02*
G01*
X-506377Y1047406D01*
X-506377Y1002917D02*
G01*
X-506377Y972602D01*
D10*
X-675590Y968501D02*
G01*
X-675590Y942519D01*
X-675590Y968501D01*
X-675590Y942519D01*
X-643500Y942519D01*
X-643500Y1057480D02*
G01*
X-675590Y1057480D01*
X-675590Y1031498D01*
D61*
X-614570Y1011808D02*
G01*
X-614570Y988191D01*
D10*
X-1430000Y211340D02*
G01*
X-248900Y211340D01*
X-248900Y920000D01*
X-1430000Y920000D01*
X-1430000Y211340D01*
X830000Y-110000D02*
G01*
X830000Y-190000D01*
X810000Y-170000D02*
G01*
X850000Y-170000D01*
X830000Y-170000D02*
G01*
X810000Y-170000D01*
X850000Y-130000D02*
G01*
X830000Y-170000D01*
X810000Y-130000D02*
G01*
X850000Y-130000D01*
X830000Y-170000D02*
G01*
X810000Y-130000D01*
X952440Y-311732D02*
G01*
X952440Y-28267D01*
X707559Y-311732D02*
G01*
X707559Y-28267D01*
X952440Y-28267D02*
G01*
X914296Y-28267D01*
X745703Y-28267D02*
G01*
X707559Y-28267D01*
X952440Y-311732D02*
G01*
X914296Y-311732D01*
X745703Y-311732D02*
G01*
X707559Y-311732D01*
X952440Y-216921D02*
G01*
X707559Y-216921D01*
D57*
X1018622Y-2602D02*
G01*
X971377Y-2602D01*
X1018622Y-32917D02*
G01*
X1018622Y-2602D01*
X1018622Y-77406D02*
G01*
X971377Y-77406D01*
X1018622Y-47091D02*
G01*
X1018622Y-77406D01*
X971377Y-47091D02*
G01*
X971377Y-77406D01*
X971377Y-32917D02*
G01*
X971377Y-2602D01*
X1026377Y-77397D02*
G01*
X1073622Y-77397D01*
X1026377Y-47082D02*
G01*
X1026377Y-77397D01*
X1026377Y-2593D02*
G01*
X1073622Y-2593D01*
X1026377Y-32908D02*
G01*
X1026377Y-2593D01*
X1073622Y-32908D02*
G01*
X1073622Y-2593D01*
X1073622Y-47082D02*
G01*
X1073622Y-77397D01*
D61*
X223568Y771260D02*
G01*
X223568Y928739D01*
X66089Y928739D01*
X66089Y771260D01*
X223568Y771260D01*
D57*
X851377Y1292602D02*
G01*
X898622Y1292602D01*
X851377Y1322917D02*
G01*
X851377Y1292602D01*
X851377Y1367406D02*
G01*
X898622Y1367406D01*
X851377Y1337091D02*
G01*
X851377Y1367406D01*
X898622Y1337091D02*
G01*
X898622Y1367406D01*
X898622Y1322917D02*
G01*
X898622Y1292602D01*
X547397Y-298622D02*
G01*
X547397Y-251377D01*
X517082Y-298622D02*
G01*
X547397Y-298622D01*
X472592Y-298622D02*
G01*
X472592Y-251377D01*
X502907Y-298622D02*
G01*
X472592Y-298622D01*
X502907Y-251377D02*
G01*
X472592Y-251377D01*
X517082Y-251377D02*
G01*
X547397Y-251377D01*
X338622Y197397D02*
G01*
X291377Y197397D01*
X338622Y167082D02*
G01*
X338622Y197397D01*
X338622Y122593D02*
G01*
X291377Y122593D01*
X338622Y152908D02*
G01*
X338622Y122593D01*
X291377Y152908D02*
G01*
X291377Y122593D01*
X291377Y167082D02*
G01*
X291377Y197397D01*
X117602Y163622D02*
G01*
X117602Y116377D01*
X147917Y163622D02*
G01*
X117602Y163622D01*
X192407Y163622D02*
G01*
X192407Y116377D01*
X162092Y163622D02*
G01*
X192407Y163622D01*
X162092Y116377D02*
G01*
X192407Y116377D01*
X147917Y116377D02*
G01*
X117602Y116377D01*
X177397Y-323622D02*
G01*
X177397Y-276377D01*
X147082Y-323622D02*
G01*
X177397Y-323622D01*
X102592Y-323622D02*
G01*
X102592Y-276377D01*
X132907Y-323622D02*
G01*
X102592Y-323622D01*
X132907Y-276377D02*
G01*
X102592Y-276377D01*
X147082Y-276377D02*
G01*
X177397Y-276377D01*
D10*
X603419Y-464879D02*
G01*
X376648Y-464879D01*
X376648Y-574720D01*
X603419Y-574720D01*
X603419Y-464879D01*
X343218Y-464879D02*
G01*
X116449Y-464879D01*
X116449Y-574720D01*
X343218Y-574720D01*
X343218Y-464879D01*
X-203560Y-575120D02*
G01*
X23208Y-575120D01*
X23208Y-465279D01*
X-203560Y-465279D01*
X-203560Y-575120D01*
X621638Y-575120D02*
G01*
X848409Y-575120D01*
X848409Y-465279D01*
X621638Y-465279D01*
X621638Y-575120D01*
X860739Y284724D02*
G01*
X829242Y284724D01*
X872938Y241033D02*
G01*
X872938Y272528D01*
X817046Y241033D02*
G01*
X817046Y272528D01*
X873167Y218360D02*
G01*
X873167Y186864D01*
X860968Y174666D02*
G01*
X829474Y174666D01*
X817277Y218360D02*
G01*
X817277Y186864D01*
D59*
X476008Y560952D02*
G01*
X476008Y299047D01*
X583991Y299047D01*
X583991Y560952D01*
X476008Y560952D01*
D10*
X720630Y316574D02*
G01*
X799369Y316574D01*
X712755Y454369D02*
G01*
X712755Y501613D01*
X807244Y454369D02*
G01*
X807244Y501613D01*
X712755Y375628D02*
G01*
X712755Y328386D01*
X807244Y375628D02*
G01*
X807244Y328386D01*
X720630Y513425D02*
G01*
X799369Y513425D01*
X712755Y505551D02*
G01*
X712755Y501613D01*
X807244Y505551D02*
G01*
X807244Y501613D01*
X712755Y324448D02*
G01*
X712755Y328386D01*
X807244Y324448D02*
G01*
X807244Y328386D01*
X881000Y434000D02*
G01*
X818999Y434000D01*
X818999Y355999D02*
G01*
X881000Y355999D01*
X-131000Y1200999D02*
G01*
X-68999Y1200999D01*
X-68999Y1279000D02*
G01*
X-131000Y1279000D01*
G75*
G01*
X-623475Y1145630D02*
G03*
X-615601Y1157441I-1968J9842D01*
G75*
G01*
X-694341Y1157441D02*
G03*
X-686467Y1145630I9842J-1969D01*
G75*
G01*
X-694341Y1212559D02*
G02*
X-686467Y1224370I9842J1969D01*
G75*
G01*
X-623475Y1224370D02*
G02*
X-615601Y1212559I-1968J-9842D01*
G75*
G01*
X116525Y1020630D02*
G03*
X124399Y1032441I-1968J9842D01*
G75*
G01*
X45659Y1032441D02*
G03*
X53533Y1020630I9842J-1969D01*
G75*
G01*
X45659Y1087559D02*
G02*
X53533Y1099370I9842J1969D01*
G75*
G01*
X116525Y1099370D02*
G02*
X124399Y1087559I-1968J-9842D01*
G75*
G01*
X-303475Y1165630D02*
G03*
X-295601Y1177441I-1968J9842D01*
G75*
G01*
X-374341Y1177441D02*
G03*
X-366467Y1165630I9842J-1969D01*
G75*
G01*
X-374341Y1232559D02*
G02*
X-366467Y1244370I9842J1969D01*
G75*
G01*
X-303475Y1244370D02*
G02*
X-295601Y1232559I-1968J-9842D01*
D59*
G75*
G01*
X811984Y649929D02*
G02*
X817984Y655929I6000J0D01*
G75*
G01*
X892016Y655929D02*
G02*
X898016Y649929I0J-6000D01*
G75*
G01*
X811984Y460071D02*
G03*
X817984Y454071I6000J0D01*
G75*
G01*
X892016Y454071D02*
G03*
X898016Y460071I0J6000D01*
D10*
G75*
G01*
X633254Y884370D02*
G03*
X625380Y892244I-7874J0D01*
G75*
G01*
X633254Y805630D02*
G02*
X625380Y797756I-7874J0D01*
G75*
G01*
X436403Y884370D02*
G02*
X444277Y892244I7874J0D01*
G75*
G01*
X436403Y805630D02*
G03*
X444277Y797756I7874J0D01*
G75*
G01*
X633254Y774370D02*
G03*
X625380Y782244I-7874J0D01*
G75*
G01*
X633254Y695630D02*
G02*
X625380Y687756I-7874J0D01*
G75*
G01*
X436403Y774370D02*
G02*
X444277Y782244I7874J0D01*
G75*
G01*
X436403Y695630D02*
G03*
X444277Y687756I7874J0D01*
G75*
G01*
X860969Y174665D02*
G03*
X873167Y186863I0J12198D01*
G75*
G01*
X817275Y186863D02*
G03*
X829474Y174665I12198J0D01*
G75*
G01*
X872938Y272527D02*
G03*
X860739Y284725I-12198J0D01*
G75*
G01*
X829244Y284725D02*
G03*
X817046Y272527I0J-12198D01*
G75*
G01*
X720630Y513425D02*
G03*
X712756Y505551I0J-7874D01*
G75*
G01*
X799370Y513425D02*
G02*
X807244Y505551I0J-7874D01*
G75*
G01*
X720630Y316574D02*
G02*
X712756Y324448I0J7874D01*
G75*
G01*
X799370Y316574D02*
G03*
X807244Y324448I0J7874D01*
G75*
G01*
X881496Y355630D02*
G03*
X889370Y367441I-1968J9842D01*
G75*
G01*
X810630Y367441D02*
G03*
X818504Y355630I9842J-1969D01*
G75*
G01*
X810630Y422559D02*
G02*
X818504Y434370I9842J1969D01*
G75*
G01*
X881496Y434370D02*
G02*
X889370Y422559I-1968J-9842D01*
G75*
G01*
X-131496Y1279370D02*
G03*
X-139370Y1267559I1968J-9842D01*
G75*
G01*
X-60630Y1267559D02*
G03*
X-68504Y1279370I-9842J1969D01*
G75*
G01*
X-60630Y1212441D02*
G02*
X-68504Y1200630I-9842J-1969D01*
G75*
G01*
X-131496Y1200630D02*
G02*
X-139370Y1212441I1968J9842D01*
G75*
G01
X-94991Y-130000D02*
G03X-94991Y-130000I-10000J0D01*
G75*
G01
X280009Y-110000D02*
G03X280009Y-110000I-10000J0D01*
G75*
G01
X787069Y101850D02*
G03X787069Y101850I-7070J0D01*
G75*
G01
X218369Y755000D02*
G03X218369Y755000I-3540J0D01*
M02*
