M48
INCH,LZ
;FILE_FORMAT=2:4
;TYPE=PLATED
;Layer: Drill PTH
;EasyEDA v6.4.25, 2021-09-19T11:37:02+02:00
;64e9d69745c74d7bbaee3c671462624f,10
;Gerber Generator version 0.2
;Holesize 1 = 0.0120 inch
T01C0.0120
;Holesize 2 = 0.0120 inch
T02C0.0120
;Holesize 3 = 0.0320 inch
T03C0.0320
;Holesize 4 = 0.0350 inch
T04C0.0350
;Holesize 5 = 0.0350 inch
T05C0.0350
;Holesize 6 = 0.0360 inch
T06C0.0360
;Holesize 7 = 0.0390 inch
T07C0.0390
;Holesize 8 = 0.0400 inch
T08C0.0400
;Holesize 9 = 0.0470 inch
T09C0.0470
%
G05
G90
T01
X-002100Y008450
X001550Y005800
X004300Y006750
X004650Y-001400
X005100Y-001500
X005250Y-003300
X006150Y010400
X-004350Y013100
X008750Y014700
X006700Y013250
X-007550Y-004300
X-007850Y-004000
X-008150Y-003750
X-010350Y-004850
X-010900Y-004750
X-011200Y-004500
X-011350Y-004150
X-011350Y-003800
X-009500Y-004850
X007250Y010650
X007250Y009500
X005150Y011950
X005150Y012450
X005600Y012450
X005200Y010950
X-002700Y015500
X-003700Y015550
X-001700Y015550
X-000950Y015550
X-000150Y015550
X-002050Y013300
X-001050Y013250
X-006800Y009450
X-006750Y010400
X004850Y001900
X003550Y002550
X004000Y001750
X001450Y000900
X002300Y000900
X002750Y000900
X003500Y001050
X-003500Y011300
X-002950Y011300
X-004000Y011650
X001900Y011300
X-007100Y012200
X-010300Y000100
X003350Y004450
X005000Y004900
X004550Y005350
X002550Y006150
X001800Y005050
X002100Y005300
X003000Y006750
X003900Y010050
X004300Y009850
X002250Y010650
X001850Y010650
X001448Y008500
X001750Y006850
X000050Y008100
X000050Y007650
X000050Y007250
X-004450Y011650
X-004450Y009700
X-002500Y008850
X-001600Y007100
X-000350Y007600
X001300Y006800
X002600Y001400
X002450Y004250
X003450Y006700
X003900Y009650
X-008400Y011300
X010050Y013500
X010650Y013500
X-013050Y-002050
X-013050Y-001300
X002700Y002200
X003600Y001750
X-008750Y005600
X-009600Y005600
X-010450Y005600
X-011300Y005600
X-012200Y005600
X-008200Y007900
X-008550Y007550
X-008900Y007200
X-009300Y006800
X-009700Y006400
X010150Y-001700
X005200Y-003900
X004850Y-003300
X004850Y-003700
X004850Y-004050
X001800Y-004350
X001850Y-003850
X001850Y-003450
X001000Y-004350
X001000Y-003850
X001000Y-003450
X-002850Y-002700
X-002850Y-004100
X-002850Y-004450
X-002850Y-004850
X-002850Y-005300
X000500Y003600
X-000350Y002700
X-001050Y002000
X-001600Y001450
X-000000Y001700
X-000700Y001050
X001050Y001850
X000650Y002400
X005550Y002550
X001300Y004600
X001600Y003300
X002050Y003800
X002700Y003200
X-009300Y-000950
X-009500Y-002150
X-009850Y-002100
X-009100Y-002100
X002200Y-001950
X001350Y-000750
X001100Y-000750
X000850Y-000750
X000600Y-000750
X000350Y-000750
X001350Y000450
X001100Y000450
X000850Y000450
X000600Y000450
X000350Y000450
X004650Y-000900
X001350Y-000450
X001100Y-000450
X000850Y-000450
X000600Y-000450
X000350Y-000450
X-006500Y-002500
X-006350Y-002200
X009150Y000950
X008650Y001500
X010200Y000550
X009350Y000700
X010200Y-001000
X009500Y-002400
X008700Y-002100
X009500Y-001350
X009600Y003700
X010200Y006450
X010450Y007800
X010200Y009000
X005000Y009600
X008150Y008600
X009000Y007800
X005839Y003250
X005254Y003250
X003150Y009650
X000100Y010150
X003550Y009650
X-000250Y010650
X006450Y011950
X006750Y011800
X007100Y011900
X008600Y014300
X005600Y002150
X-011350Y-002400
X-009100Y-002850
X-011350Y-003150
X006700Y-001150
X006700Y-001400
X006700Y-001650
X006700Y-001950
X006700Y-002250
X002550Y011750
X009650Y001450
X008900Y001200
X006150Y003850
X004950Y003900
X005000Y004550
X005800Y005350
X006400Y005650
X006400Y006150
X006150Y006550
X005800Y005000
X005800Y006100
X-008600Y-003050
X-007400Y-003050
X-011350Y-002000
X000650Y004350
X003150Y005200
X002800Y004200
X003900Y005350
X-003200Y000450
X-006300Y-003250
X-005950Y-002900
X-003600Y000700
X002800Y004900
X003900Y006550
X004250Y008750
X-008200Y-002400
X-008200Y-002150
X-006600Y007300
X-006600Y007550
X-006600Y007800
X-006600Y008050
X-006600Y008300
X-006600Y008550
X006050Y009100
X005450Y009100
X004750Y010200
X005350Y007550
X005250Y006550
X005000Y006350
X004150Y006250
X-012650Y-002450
X-001300Y008950
X-001750Y008050
X009850Y000250
X-001000Y009200
X001250Y006250
X002800Y009650
X001150Y008200
X001750Y008800
X-005200Y002500
X-000350Y008050
X001750Y-001150
X001900Y000900
X004450Y001650
X001350Y-000150
X001100Y-000150
X000850Y-000150
X000600Y-000150
X000350Y-000150
X001350Y000150
X001100Y000150
X000850Y000150
X000600Y000150
X000350Y000150
X002550Y011000
X-004150Y011000
X-007550Y011700
X-014300Y006300
X-007600Y011050
X-013850Y006350
X-007750Y010650
X-013950Y005800
X-000650Y009450
X-007200Y011400
X-013750Y005250
X-004250Y007250
X-004250Y007700
X-004250Y008050
X-004250Y008400
X-006450Y006650
X-006300Y006350
X-006200Y006000
X-006000Y005650
X-005900Y005250
X-005800Y005000
X-003600Y006500
X-009250Y008650
X-009450Y008450
X-009650Y008250
X-009850Y008050
X-010050Y007850
X-010650Y007300
X-008400Y012350
X001750Y008200
X001150Y008800
X-003900Y013100
X007950Y006050
X008750Y005450
X007500Y005400
X-003150Y005350
X-002950Y005050
X-002750Y004750
X-001850Y002700
X-001300Y003250
X-000650Y003900
X-000000Y004550
X-000200Y005350
X-000650Y004850
X-001300Y004300
X-002000Y003600
X001150Y008500
X001750Y008500
X001450Y008800
X001450Y008200
T02
X000650Y005100
X001850Y009800
X-003950Y006600
X-009900Y-000750
X-013450Y-001000
X004243Y008076
X002450Y007650
X005550Y003250
X-004250Y-002600
T03
X-010750Y008900
T04
X-002201Y014895
X-002201Y013895
X-003201Y014895
X-004201Y014895
X-005201Y014895
X-006201Y014895
X-007201Y014895
X-008201Y014895
X-009201Y014895
X-010201Y014895
X-011201Y014895
X-011200Y013895
X-010201Y013895
X-009201Y013895
X-008201Y013895
X-007201Y013895
X-006201Y013895
X-005201Y013895
X-004201Y013895
X-003201Y013895
X007799Y014895
X007799Y013895
X006799Y014895
X005799Y014895
X004799Y014895
X003799Y014895
X002799Y014895
X001799Y014895
X000799Y014895
X-000201Y014895
X-001201Y014895
X-001201Y013895
X-000201Y013895
X000799Y013895
X001799Y013895
X002799Y013895
X003799Y013895
X004799Y013895
X005799Y013895
X006799Y013895
T05
X009950Y002006
X009950Y002793
T06
X-011681Y-005600
X-010893Y-005600
X-010106Y-005600
X-009319Y-005600
X007617Y012350
X008405Y012350
X009192Y012350
X009979Y012350
X007617Y010100
X008405Y010100
X009192Y010100
X009979Y010100
X007619Y011250
X008406Y011250
X009194Y011250
X009981Y011250
X-013609Y-003409
X-013609Y001413
X-002861Y-003400
X-002861Y001423
T07
X009600Y009012
X009600Y008225
X009600Y007437
X009600Y006650
X009600Y005863
X009600Y005075
X009600Y004288
T08
X-001000Y010400
X-002000Y010400
X-003000Y010400
X004098Y012100
X003098Y012100
X002098Y012100
X001098Y012100
X000098Y012100
X005798Y009900
X005798Y010900
X005798Y011900
T09
X-006950Y-005250
X-005950Y-005250
X-003276Y007413
X-003276Y008413
X-003276Y002901
X-003276Y003901
X-013513Y002901
X-013513Y003901
X-013513Y007413
X-013513Y008413
X005400Y-005200
X004400Y-005200
X002798Y-005200
X001798Y-005200
X-001402Y-005200
X-000402Y-005200
X006850Y-005200
X007850Y-005200
M30
